<ttFont>
    <TTGlyph name="A" xMin="8" yMin="0" xMax="584" yMax="644">
      <contour>
        <pt x="446" y="0" on="1"/>
        <pt x="430" y="84" on="1"/>
        <pt x="413" y="144" on="1"/>
        <pt x="287" y="147" on="1"/>
        <pt x="176" y="144" on="1"/>
        <pt x="159" y="91" on="1"/>
        <pt x="142" y="0" on="1"/>
        <pt x="8" y="0" on="1"/>
        <pt x="226" y="644" on="1"/>
        <pt x="387" y="644" on="1"/>
        <pt x="584" y="0" on="1"/>
      </contour>
      <contour>
        <pt x="308" y="517" on="1"/>
        <pt x="299" y="517" on="1"/>
        <pt x="211" y="249" on="1"/>
        <pt x="297" y="247" on="1"/>
        <pt x="384" y="249" on="1"/>
      </contour>
    </TTGlyph>
    <TTGlyph name="AE" xMin="-18" yMin="0" xMax="814" yMax="644">
      <contour>
        <pt x="805" y="0" on="1"/>
        <pt x="416" y="0" on="1"/>
        <pt x="411" y="84" on="1"/>
        <pt x="394" y="221" on="1"/>
        <pt x="182" y="165" on="1"/>
        <pt x="147" y="91" on="1"/>
        <pt x="117" y="0" on="1"/>
        <pt x="-18" y="0" on="1"/>
        <pt x="292" y="644" on="1"/>
        <pt x="732" y="644" on="1"/>
        <pt x="741" y="633" on="1"/>
        <pt x="730" y="532" on="1"/>
        <pt x="575" y="537" on="1"/>
        <pt x="487" y="537" on="1"/>
        <pt x="509" y="356" on="1"/>
        <pt x="703" y="406" on="1"/>
        <pt x="713" y="398" on="1"/>
        <pt x="724" y="303" on="1"/>
        <pt x="521" y="255" on="1"/>
        <pt x="539" y="106" on="1"/>
        <pt x="641" y="106" on="1"/>
        <pt x="806" y="112" on="1"/>
        <pt x="814" y="101" on="1"/>
      </contour>
      <contour>
        <pt x="358" y="517" on="1"/>
        <pt x="349" y="517" on="1"/>
        <pt x="240" y="286" on="1"/>
        <pt x="382" y="323" on="1"/>
      </contour>
    </TTGlyph>
    <TTGlyph name="AEacute" xMin="-18" yMin="0" xMax="814" yMax="889">
      <component glyphName="AE" x="0" y="0" flags="0x1000"/>
      <component glyphName="acute.cap" x="331" y="179" flags="0x1000"/>
    </TTGlyph>
    <TTGlyph name="Aacute" xMin="8" yMin="0" xMax="584" yMax="889">
      <component glyphName="A" x="0" y="0" flags="0x1000"/>
      <component glyphName="acute.cap" x="130" y="179" flags="0x1000"/>
    </TTGlyph>
    <TTGlyph name="Abreve" xMin="8" yMin="0" xMax="584" yMax="869">
      <component glyphName="A" x="0" y="0" flags="0x1000"/>
      <component glyphName="breve.cap" x="107" y="179" flags="0x1000"/>
    </TTGlyph>
    <TTGlyph name="Abreveacute" xMin="8" yMin="0" xMax="584" yMax="998">
      <component glyphName="A" x="0" y="0" flags="0x1000"/>
      <component glyphName="breveacute" x="107" y="179" flags="0x1000"/>
    </TTGlyph>
    <TTGlyph name="Abrevedotbelow" xMin="8" yMin="-194" xMax="584" yMax="868">
      <contour>
        <pt x="244" y="720" on="0"/>
        <pt x="168" y="775" on="0"/>
        <pt x="151" y="826" on="1"/>
        <pt x="182" y="868" on="1"/>
        <pt x="201" y="868" on="1"/>
        <pt x="228" y="813" on="0"/>
        <pt x="304" y="813" on="1"/>
        <pt x="375" y="813" on="0"/>
        <pt x="402" y="868" on="1"/>
        <pt x="421" y="868" on="1"/>
        <pt x="452" y="826" on="1"/>
        <pt x="433" y="775" on="0"/>
        <pt x="354" y="720" on="0"/>
        <pt x="299" y="720" on="1"/>
      </contour>
      <contour>
        <pt x="446" y="0" on="1"/>
        <pt x="430" y="84" on="1"/>
        <pt x="413" y="144" on="1"/>
        <pt x="287" y="147" on="1"/>
        <pt x="176" y="144" on="1"/>
        <pt x="159" y="91" on="1"/>
        <pt x="142" y="0" on="1"/>
        <pt x="8" y="0" on="1"/>
        <pt x="225" y="644" on="1"/>
        <pt x="387" y="644" on="1"/>
        <pt x="584" y="0" on="1"/>
      </contour>
      <contour>
        <pt x="308" y="517" on="1"/>
        <pt x="299" y="517" on="1"/>
        <pt x="211" y="249" on="1"/>
        <pt x="296" y="247" on="1"/>
        <pt x="384" y="249" on="1"/>
      </contour>
      <contour>
        <pt x="330" y="-52" on="0"/>
        <pt x="365" y="-88" on="0"/>
        <pt x="365" y="-120" on="1"/>
        <pt x="365" y="-154" on="0"/>
        <pt x="327" y="-194" on="0"/>
        <pt x="294" y="-194" on="1"/>
        <pt x="261" y="-194" on="0"/>
        <pt x="226" y="-158" on="0"/>
        <pt x="226" y="-125" on="1"/>
        <pt x="226" y="-92" on="0"/>
        <pt x="265" y="-52" on="0"/>
        <pt x="299" y="-52" on="1"/>
      </contour>
    </TTGlyph>
    <TTGlyph name="Abrevegrave" xMin="8" yMin="0" xMax="584" yMax="998">
      <component glyphName="A" x="0" y="0" flags="0x1000"/>
      <component glyphName="brevegrave" x="107" y="179" flags="0x1000"/>
    </TTGlyph>
    <TTGlyph name="Abrevehookabove" xMin="8" yMin="0" xMax="584" yMax="1053">
      <contour>
        <pt x="245" y="991" on="0"/>
        <pt x="214" y="966" on="1"/>
        <pt x="192" y="1002" on="1"/>
        <pt x="241" y="1053" on="0"/>
        <pt x="297" y="1053" on="1"/>
        <pt x="331" y="1053" on="0"/>
        <pt x="377" y="1013" on="0"/>
        <pt x="377" y="982" on="1"/>
        <pt x="377" y="962" on="0"/>
        <pt x="353" y="926" on="0"/>
        <pt x="322" y="899" on="1"/>
        <pt x="345" y="860" on="1"/>
        <pt x="296" y="832" on="1"/>
        <pt x="254" y="898" on="1"/>
        <pt x="278" y="916" on="0"/>
        <pt x="306" y="954" on="0"/>
        <pt x="306" y="969" on="1"/>
        <pt x="306" y="991" on="0"/>
        <pt x="278" y="991" on="1"/>
      </contour>
      <contour>
        <pt x="245" y="701" on="0"/>
        <pt x="168" y="755" on="0"/>
        <pt x="151" y="806" on="1"/>
        <pt x="182" y="849" on="1"/>
        <pt x="201" y="849" on="1"/>
        <pt x="214" y="823" on="0"/>
        <pt x="268" y="793" on="0"/>
        <pt x="304" y="793" on="1"/>
        <pt x="375" y="793" on="0"/>
        <pt x="402" y="849" on="1"/>
        <pt x="421" y="849" on="1"/>
        <pt x="452" y="806" on="1"/>
        <pt x="433" y="755" on="0"/>
        <pt x="355" y="701" on="0"/>
        <pt x="299" y="701" on="1"/>
      </contour>
      <contour>
        <pt x="446" y="0" on="1"/>
        <pt x="430" y="84" on="1"/>
        <pt x="413" y="144" on="1"/>
        <pt x="287" y="147" on="1"/>
        <pt x="176" y="144" on="1"/>
        <pt x="159" y="91" on="1"/>
        <pt x="142" y="0" on="1"/>
        <pt x="8" y="0" on="1"/>
        <pt x="225" y="644" on="1"/>
        <pt x="387" y="644" on="1"/>
        <pt x="584" y="0" on="1"/>
      </contour>
      <contour>
        <pt x="308" y="517" on="1"/>
        <pt x="299" y="517" on="1"/>
        <pt x="211" y="249" on="1"/>
        <pt x="296" y="247" on="1"/>
        <pt x="384" y="249" on="1"/>
      </contour>
    </TTGlyph>
    <TTGlyph name="Abrevetilde" xMin="8" yMin="0" xMax="584" yMax="1022">
      <contour>
        <pt x="143" y="907" on="1"/>
        <pt x="143" y="918" on="1"/>
        <pt x="208" y="1002" on="1"/>
        <pt x="220" y="1006" on="1"/>
        <pt x="237" y="1004" on="0"/>
        <pt x="297" y="988" on="1"/>
        <pt x="350" y="973" on="0"/>
        <pt x="362" y="973" on="1"/>
        <pt x="373" y="973" on="0"/>
        <pt x="395" y="992" on="0"/>
        <pt x="417" y="1018" on="0"/>
        <pt x="420" y="1022" on="1"/>
        <pt x="431" y="1022" on="1"/>
        <pt x="467" y="985" on="1"/>
        <pt x="467" y="974" on="1"/>
        <pt x="402" y="890" on="1"/>
        <pt x="391" y="885" on="1"/>
        <pt x="366" y="889" on="0"/>
        <pt x="314" y="904" on="1"/>
        <pt x="261" y="919" on="0"/>
        <pt x="248" y="919" on="1"/>
        <pt x="238" y="919" on="0"/>
        <pt x="218" y="902" on="0"/>
        <pt x="197" y="877" on="0"/>
        <pt x="191" y="870" on="1"/>
        <pt x="180" y="870" on="1"/>
      </contour>
      <contour>
        <pt x="375" y="789" on="0"/>
        <pt x="401" y="842" on="1"/>
        <pt x="419" y="842" on="1"/>
        <pt x="448" y="802" on="1"/>
        <pt x="431" y="753" on="0"/>
        <pt x="355" y="700" on="0"/>
        <pt x="303" y="700" on="1"/>
        <pt x="251" y="700" on="0"/>
        <pt x="178" y="753" on="0"/>
        <pt x="161" y="802" on="1"/>
        <pt x="190" y="842" on="1"/>
        <pt x="209" y="842" on="1"/>
        <pt x="234" y="789" on="0"/>
        <pt x="307" y="789" on="1"/>
      </contour>
      <contour>
        <pt x="446" y="0" on="1"/>
        <pt x="430" y="84" on="1"/>
        <pt x="413" y="144" on="1"/>
        <pt x="287" y="147" on="1"/>
        <pt x="176" y="144" on="1"/>
        <pt x="159" y="91" on="1"/>
        <pt x="142" y="0" on="1"/>
        <pt x="8" y="0" on="1"/>
        <pt x="225" y="644" on="1"/>
        <pt x="387" y="644" on="1"/>
        <pt x="584" y="0" on="1"/>
      </contour>
      <contour>
        <pt x="308" y="517" on="1"/>
        <pt x="299" y="517" on="1"/>
        <pt x="211" y="249" on="1"/>
        <pt x="296" y="247" on="1"/>
        <pt x="384" y="249" on="1"/>
      </contour>
    </TTGlyph>
    <TTGlyph name="Acaron" xMin="8" yMin="0" xMax="584" yMax="875">
      <component glyphName="A" x="0" y="0" flags="0x1000"/>
      <component glyphName="caron.cap" x="108" y="179" flags="0x1000"/>
    </TTGlyph>
    <TTGlyph name="Acircumflex" xMin="8" yMin="0" xMax="584" yMax="885">
      <contour>
        <pt x="154" y="781" on="1"/>
        <pt x="223" y="827" on="0"/>
        <pt x="288" y="885" on="1"/>
        <pt x="315" y="885" on="1"/>
        <pt x="377" y="830" on="0"/>
        <pt x="449" y="781" on="1"/>
        <pt x="425" y="728" on="1"/>
        <pt x="412" y="728" on="1"/>
        <pt x="381" y="746" on="1"/>
        <pt x="344" y="765" on="0"/>
        <pt x="302" y="791" on="1"/>
        <pt x="260" y="765" on="0"/>
        <pt x="223" y="746" on="1"/>
        <pt x="192" y="728" on="1"/>
        <pt x="179" y="728" on="1"/>
      </contour>
      <contour>
        <pt x="446" y="0" on="1"/>
        <pt x="430" y="84" on="1"/>
        <pt x="413" y="144" on="1"/>
        <pt x="287" y="147" on="1"/>
        <pt x="176" y="144" on="1"/>
        <pt x="159" y="91" on="1"/>
        <pt x="142" y="0" on="1"/>
        <pt x="8" y="0" on="1"/>
        <pt x="225" y="644" on="1"/>
        <pt x="387" y="644" on="1"/>
        <pt x="584" y="0" on="1"/>
      </contour>
      <contour>
        <pt x="308" y="517" on="1"/>
        <pt x="299" y="517" on="1"/>
        <pt x="211" y="249" on="1"/>
        <pt x="296" y="247" on="1"/>
        <pt x="384" y="249" on="1"/>
      </contour>
    </TTGlyph>
    <TTGlyph name="Acircumflexacute" xMin="8" yMin="0" xMax="584" yMax="995">
      <component glyphName="A" x="0" y="0" flags="0x1000"/>
      <component glyphName="circumflexacute" x="107" y="179" flags="0x1000"/>
    </TTGlyph>
    <TTGlyph name="Acircumflexdotbelow" xMin="8" yMin="-194" xMax="584" yMax="885">
      <contour>
        <pt x="153" y="781" on="1"/>
        <pt x="222" y="827" on="0"/>
        <pt x="287" y="885" on="1"/>
        <pt x="314" y="885" on="1"/>
        <pt x="376" y="830" on="0"/>
        <pt x="448" y="781" on="1"/>
        <pt x="424" y="728" on="1"/>
        <pt x="411" y="728" on="1"/>
        <pt x="380" y="746" on="1"/>
        <pt x="343" y="765" on="0"/>
        <pt x="301" y="791" on="1"/>
        <pt x="259" y="765" on="0"/>
        <pt x="222" y="746" on="1"/>
        <pt x="191" y="728" on="1"/>
        <pt x="178" y="728" on="1"/>
      </contour>
      <contour>
        <pt x="446" y="0" on="1"/>
        <pt x="430" y="84" on="1"/>
        <pt x="413" y="144" on="1"/>
        <pt x="287" y="147" on="1"/>
        <pt x="176" y="144" on="1"/>
        <pt x="159" y="91" on="1"/>
        <pt x="142" y="0" on="1"/>
        <pt x="8" y="0" on="1"/>
        <pt x="225" y="644" on="1"/>
        <pt x="387" y="644" on="1"/>
        <pt x="584" y="0" on="1"/>
      </contour>
      <contour>
        <pt x="308" y="517" on="1"/>
        <pt x="299" y="517" on="1"/>
        <pt x="211" y="249" on="1"/>
        <pt x="296" y="247" on="1"/>
        <pt x="384" y="249" on="1"/>
      </contour>
      <contour>
        <pt x="330" y="-52" on="0"/>
        <pt x="365" y="-88" on="0"/>
        <pt x="365" y="-120" on="1"/>
        <pt x="365" y="-154" on="0"/>
        <pt x="327" y="-194" on="0"/>
        <pt x="294" y="-194" on="1"/>
        <pt x="261" y="-194" on="0"/>
        <pt x="226" y="-158" on="0"/>
        <pt x="226" y="-125" on="1"/>
        <pt x="226" y="-92" on="0"/>
        <pt x="265" y="-52" on="0"/>
        <pt x="299" y="-52" on="1"/>
      </contour>
    </TTGlyph>
    <TTGlyph name="Acircumflexgrave" xMin="8" yMin="0" xMax="584" yMax="995">
      <component glyphName="A" x="0" y="0" flags="0x1000"/>
      <component glyphName="circumflexgrave" x="107" y="179" flags="0x1000"/>
    </TTGlyph>
    <TTGlyph name="Acircumflexhookabove" xMin="8" yMin="0" xMax="584" yMax="1038">
      <contour>
        <pt x="354" y="980" on="0"/>
        <pt x="325" y="956" on="1"/>
        <pt x="303" y="990" on="1"/>
        <pt x="348" y="1038" on="0"/>
        <pt x="403" y="1038" on="1"/>
        <pt x="436" y="1038" on="0"/>
        <pt x="480" y="1000" on="0"/>
        <pt x="480" y="971" on="1"/>
        <pt x="480" y="952" on="0"/>
        <pt x="456" y="917" on="0"/>
        <pt x="426" y="892" on="1"/>
        <pt x="448" y="855" on="1"/>
        <pt x="402" y="828" on="1"/>
        <pt x="362" y="891" on="1"/>
        <pt x="412" y="927" on="0"/>
        <pt x="412" y="958" on="1"/>
        <pt x="412" y="980" on="0"/>
        <pt x="385" y="980" on="1"/>
      </contour>
      <contour>
        <pt x="153" y="761" on="1"/>
        <pt x="222" y="807" on="0"/>
        <pt x="287" y="865" on="1"/>
        <pt x="314" y="865" on="1"/>
        <pt x="376" y="810" on="0"/>
        <pt x="448" y="761" on="1"/>
        <pt x="424" y="708" on="1"/>
        <pt x="411" y="708" on="1"/>
        <pt x="380" y="726" on="1"/>
        <pt x="343" y="745" on="0"/>
        <pt x="301" y="771" on="1"/>
        <pt x="259" y="745" on="0"/>
        <pt x="222" y="726" on="1"/>
        <pt x="191" y="708" on="1"/>
        <pt x="178" y="708" on="1"/>
      </contour>
      <contour>
        <pt x="446" y="0" on="1"/>
        <pt x="430" y="84" on="1"/>
        <pt x="413" y="144" on="1"/>
        <pt x="287" y="147" on="1"/>
        <pt x="176" y="144" on="1"/>
        <pt x="159" y="91" on="1"/>
        <pt x="142" y="0" on="1"/>
        <pt x="8" y="0" on="1"/>
        <pt x="225" y="644" on="1"/>
        <pt x="387" y="644" on="1"/>
        <pt x="584" y="0" on="1"/>
      </contour>
      <contour>
        <pt x="308" y="517" on="1"/>
        <pt x="299" y="517" on="1"/>
        <pt x="211" y="249" on="1"/>
        <pt x="296" y="247" on="1"/>
        <pt x="384" y="249" on="1"/>
      </contour>
    </TTGlyph>
    <TTGlyph name="Acircumflextilde" xMin="8" yMin="0" xMax="584" yMax="1022">
      <contour>
        <pt x="143" y="907" on="1"/>
        <pt x="143" y="918" on="1"/>
        <pt x="208" y="1002" on="1"/>
        <pt x="220" y="1006" on="1"/>
        <pt x="237" y="1004" on="0"/>
        <pt x="297" y="988" on="1"/>
        <pt x="350" y="973" on="0"/>
        <pt x="362" y="973" on="1"/>
        <pt x="373" y="973" on="0"/>
        <pt x="395" y="992" on="0"/>
        <pt x="417" y="1018" on="0"/>
        <pt x="420" y="1022" on="1"/>
        <pt x="431" y="1022" on="1"/>
        <pt x="467" y="985" on="1"/>
        <pt x="467" y="974" on="1"/>
        <pt x="402" y="890" on="1"/>
        <pt x="391" y="885" on="1"/>
        <pt x="366" y="889" on="0"/>
        <pt x="314" y="904" on="1"/>
        <pt x="261" y="919" on="0"/>
        <pt x="248" y="919" on="1"/>
        <pt x="238" y="919" on="0"/>
        <pt x="218" y="902" on="0"/>
        <pt x="197" y="877" on="0"/>
        <pt x="191" y="870" on="1"/>
        <pt x="180" y="870" on="1"/>
      </contour>
      <contour>
        <pt x="376" y="810" on="0"/>
        <pt x="448" y="761" on="1"/>
        <pt x="424" y="708" on="1"/>
        <pt x="411" y="708" on="1"/>
        <pt x="380" y="726" on="1"/>
        <pt x="343" y="745" on="0"/>
        <pt x="301" y="771" on="1"/>
        <pt x="259" y="745" on="0"/>
        <pt x="222" y="726" on="1"/>
        <pt x="191" y="708" on="1"/>
        <pt x="178" y="708" on="1"/>
        <pt x="153" y="761" on="1"/>
        <pt x="222" y="807" on="0"/>
        <pt x="287" y="865" on="1"/>
        <pt x="314" y="865" on="1"/>
      </contour>
      <contour>
        <pt x="446" y="0" on="1"/>
        <pt x="430" y="84" on="1"/>
        <pt x="413" y="144" on="1"/>
        <pt x="287" y="147" on="1"/>
        <pt x="176" y="144" on="1"/>
        <pt x="159" y="91" on="1"/>
        <pt x="142" y="0" on="1"/>
        <pt x="8" y="0" on="1"/>
        <pt x="225" y="644" on="1"/>
        <pt x="387" y="644" on="1"/>
        <pt x="584" y="0" on="1"/>
      </contour>
      <contour>
        <pt x="308" y="517" on="1"/>
        <pt x="299" y="517" on="1"/>
        <pt x="211" y="249" on="1"/>
        <pt x="296" y="247" on="1"/>
        <pt x="384" y="249" on="1"/>
      </contour>
    </TTGlyph>
    <TTGlyph name="Adieresis" xMin="8" yMin="0" xMax="584" yMax="862">
      <contour>
        <pt x="184" y="732" on="0"/>
        <pt x="152" y="765" on="0"/>
        <pt x="152" y="795" on="1"/>
        <pt x="152" y="826" on="0"/>
        <pt x="187" y="862" on="0"/>
        <pt x="218" y="862" on="1"/>
        <pt x="247" y="862" on="0"/>
        <pt x="279" y="829" on="0"/>
        <pt x="279" y="800" on="1"/>
        <pt x="279" y="768" on="0"/>
        <pt x="244" y="732" on="0"/>
        <pt x="213" y="732" on="1"/>
      </contour>
      <contour>
        <pt x="358" y="732" on="0"/>
        <pt x="326" y="765" on="0"/>
        <pt x="326" y="795" on="1"/>
        <pt x="326" y="826" on="0"/>
        <pt x="361" y="862" on="0"/>
        <pt x="392" y="862" on="1"/>
        <pt x="421" y="862" on="0"/>
        <pt x="453" y="829" on="0"/>
        <pt x="453" y="800" on="1"/>
        <pt x="453" y="768" on="0"/>
        <pt x="418" y="732" on="0"/>
        <pt x="387" y="732" on="1"/>
      </contour>
      <contour>
        <pt x="446" y="0" on="1"/>
        <pt x="430" y="84" on="1"/>
        <pt x="413" y="144" on="1"/>
        <pt x="287" y="147" on="1"/>
        <pt x="176" y="144" on="1"/>
        <pt x="159" y="91" on="1"/>
        <pt x="142" y="0" on="1"/>
        <pt x="8" y="0" on="1"/>
        <pt x="225" y="644" on="1"/>
        <pt x="387" y="644" on="1"/>
        <pt x="584" y="0" on="1"/>
      </contour>
      <contour>
        <pt x="308" y="517" on="1"/>
        <pt x="299" y="517" on="1"/>
        <pt x="211" y="249" on="1"/>
        <pt x="296" y="247" on="1"/>
        <pt x="384" y="249" on="1"/>
      </contour>
    </TTGlyph>
    <TTGlyph name="Adotbelow" xMin="8" yMin="-194" xMax="584" yMax="644">
      <contour>
        <pt x="446" y="0" on="1"/>
        <pt x="430" y="84" on="1"/>
        <pt x="413" y="144" on="1"/>
        <pt x="287" y="147" on="1"/>
        <pt x="176" y="144" on="1"/>
        <pt x="159" y="91" on="1"/>
        <pt x="142" y="0" on="1"/>
        <pt x="8" y="0" on="1"/>
        <pt x="225" y="644" on="1"/>
        <pt x="387" y="644" on="1"/>
        <pt x="584" y="0" on="1"/>
      </contour>
      <contour>
        <pt x="308" y="517" on="1"/>
        <pt x="299" y="517" on="1"/>
        <pt x="211" y="249" on="1"/>
        <pt x="296" y="247" on="1"/>
        <pt x="384" y="249" on="1"/>
      </contour>
      <contour>
        <pt x="330" y="-52" on="0"/>
        <pt x="365" y="-88" on="0"/>
        <pt x="365" y="-120" on="1"/>
        <pt x="365" y="-154" on="0"/>
        <pt x="327" y="-194" on="0"/>
        <pt x="294" y="-194" on="1"/>
        <pt x="261" y="-194" on="0"/>
        <pt x="226" y="-158" on="0"/>
        <pt x="226" y="-125" on="1"/>
        <pt x="226" y="-92" on="0"/>
        <pt x="265" y="-52" on="0"/>
        <pt x="299" y="-52" on="1"/>
      </contour>
    </TTGlyph>
    <TTGlyph name="Agrave" xMin="8" yMin="0" xMax="584" yMax="890">
      <contour>
        <pt x="273" y="760" on="0"/>
        <pt x="181" y="796" on="1"/>
        <pt x="177" y="808" on="1"/>
        <pt x="211" y="887" on="1"/>
        <pt x="223" y="890" on="1"/>
        <pt x="310" y="838" on="0"/>
        <pt x="431" y="777" on="1"/>
        <pt x="409" y="722" on="1"/>
        <pt x="396" y="718" on="1"/>
      </contour>
      <contour>
        <pt x="446" y="0" on="1"/>
        <pt x="430" y="84" on="1"/>
        <pt x="413" y="144" on="1"/>
        <pt x="287" y="147" on="1"/>
        <pt x="176" y="144" on="1"/>
        <pt x="159" y="91" on="1"/>
        <pt x="142" y="0" on="1"/>
        <pt x="8" y="0" on="1"/>
        <pt x="225" y="644" on="1"/>
        <pt x="387" y="644" on="1"/>
        <pt x="584" y="0" on="1"/>
      </contour>
      <contour>
        <pt x="308" y="517" on="1"/>
        <pt x="299" y="517" on="1"/>
        <pt x="211" y="249" on="1"/>
        <pt x="296" y="247" on="1"/>
        <pt x="384" y="249" on="1"/>
      </contour>
    </TTGlyph>
    <TTGlyph name="Ahookabove" xMin="8" yMin="0" xMax="584" yMax="919">
      <component glyphName="A" x="0" y="0" flags="0x1000"/>
      <component glyphName="hookabove" x="106" y="178" flags="0x1000"/>
    </TTGlyph>
    <TTGlyph name="Amacron" xMin="8" yMin="0" xMax="584" yMax="839">
      <component glyphName="A" x="0" y="0" flags="0x1000"/>
      <component glyphName="macron" x="107" y="179" flags="0x1000"/>
    </TTGlyph>
    <TTGlyph name="Aogonek" xMin="8" yMin="-197" xMax="621" yMax="644">
      <contour>
        <pt x="565" y="-197" on="0"/>
        <pt x="515" y="-197" on="1"/>
        <pt x="474" y="-197" on="0"/>
        <pt x="426" y="-149" on="0"/>
        <pt x="426" y="-109" on="1"/>
        <pt x="426" y="-84" on="0"/>
        <pt x="448" y="-35" on="0"/>
        <pt x="476" y="0" on="1"/>
        <pt x="446" y="0" on="1"/>
        <pt x="430" y="84" on="1"/>
        <pt x="413" y="144" on="1"/>
        <pt x="287" y="147" on="1"/>
        <pt x="176" y="144" on="1"/>
        <pt x="159" y="91" on="1"/>
        <pt x="142" y="0" on="1"/>
        <pt x="8" y="0" on="1"/>
        <pt x="225" y="644" on="1"/>
        <pt x="387" y="644" on="1"/>
        <pt x="584" y="0" on="1"/>
        <pt x="541" y="0" on="1"/>
        <pt x="499" y="-59" on="0"/>
        <pt x="499" y="-89" on="1"/>
        <pt x="499" y="-122" on="0"/>
        <pt x="534" y="-122" on="1"/>
        <pt x="567" y="-122" on="0"/>
        <pt x="602" y="-93" on="1"/>
        <pt x="609" y="-93" on="1"/>
        <pt x="621" y="-147" on="1"/>
      </contour>
      <contour>
        <pt x="308" y="517" on="1"/>
        <pt x="299" y="517" on="1"/>
        <pt x="211" y="249" on="1"/>
        <pt x="296" y="247" on="1"/>
        <pt x="384" y="249" on="1"/>
      </contour>
    </TTGlyph>
    <TTGlyph name="Aring" xMin="8" yMin="0" xMax="584" yMax="903">
      <component glyphName="A" x="0" y="0" flags="0x1000"/>
      <component glyphName="ring" x="107" y="179" flags="0x1000"/>
    </TTGlyph>
    <TTGlyph name="Aringacute" xMin="8" yMin="0" xMax="584" yMax="935">
      <contour>
        <pt x="203" y="855" on="1"/>
        <pt x="320" y="893" on="0"/>
        <pt x="425" y="935" on="1"/>
        <pt x="437" y="930" on="1"/>
        <pt x="458" y="847" on="1"/>
        <pt x="452" y="836" on="1"/>
        <pt x="343" y="811" on="0"/>
        <pt x="228" y="791" on="1"/>
        <pt x="216" y="797" on="1"/>
      </contour>
      <contour>
        <pt x="446" y="0" on="1"/>
        <pt x="430" y="82" on="1"/>
        <pt x="413" y="141" on="1"/>
        <pt x="287" y="144" on="1"/>
        <pt x="176" y="141" on="1"/>
        <pt x="159" y="89" on="1"/>
        <pt x="142" y="0" on="1"/>
        <pt x="8" y="0" on="1"/>
        <pt x="228" y="621" on="1"/>
        <pt x="211" y="644" on="0"/>
        <pt x="211" y="682" on="1"/>
        <pt x="211" y="727" on="0"/>
        <pt x="262" y="777" on="0"/>
        <pt x="309" y="777" on="1"/>
        <pt x="355" y="777" on="0"/>
        <pt x="403" y="729" on="0"/>
        <pt x="403" y="686" on="1"/>
        <pt x="403" y="646" on="0"/>
        <pt x="383" y="621" on="1"/>
        <pt x="584" y="0" on="1"/>
      </contour>
      <contour>
        <pt x="266" y="720" on="0"/>
        <pt x="266" y="683" on="1"/>
        <pt x="266" y="643" on="0"/>
        <pt x="307" y="643" on="1"/>
        <pt x="348" y="643" on="0"/>
        <pt x="348" y="681" on="1"/>
        <pt x="348" y="720" on="0"/>
        <pt x="306" y="720" on="1"/>
      </contour>
      <contour>
        <pt x="308" y="505" on="1"/>
        <pt x="299" y="505" on="1"/>
        <pt x="211" y="244" on="1"/>
        <pt x="296" y="242" on="1"/>
        <pt x="383" y="244" on="1"/>
      </contour>
    </TTGlyph>
    <TTGlyph name="Atilde" xMin="8" yMin="0" xMax="584" yMax="880">
      <component glyphName="A" x="0" y="0" flags="0x1000"/>
      <component glyphName="tilde" x="107" y="179" flags="0x1000"/>
    </TTGlyph>
    <TTGlyph name="B" xMin="78" yMin="-5" xMax="547" yMax="645">
      <contour>
        <pt x="547" y="304" on="0"/>
        <pt x="547" y="182" on="1"/>
        <pt x="547" y="-5" on="0"/>
        <pt x="254" y="-5" on="1"/>
        <pt x="168" y="-5" on="0"/>
        <pt x="78" y="0" on="1"/>
        <pt x="85" y="192" on="1"/>
        <pt x="78" y="644" on="1"/>
        <pt x="307" y="645" on="1"/>
        <pt x="406" y="645" on="0"/>
        <pt x="516" y="562" on="0"/>
        <pt x="516" y="484" on="1"/>
        <pt x="516" y="432" on="0"/>
        <pt x="465" y="354" on="0"/>
        <pt x="418" y="334" on="1"/>
      </contour>
      <contour>
        <pt x="377" y="510" on="0"/>
        <pt x="325" y="547" on="0"/>
        <pt x="260" y="547" on="1"/>
        <pt x="211" y="547" on="1"/>
        <pt x="208" y="372" on="1"/>
        <pt x="302" y="369" on="1"/>
        <pt x="377" y="389" on="0"/>
        <pt x="377" y="466" on="1"/>
      </contour>
      <contour>
        <pt x="340" y="92" on="0"/>
        <pt x="409" y="142" on="0"/>
        <pt x="409" y="189" on="1"/>
        <pt x="409" y="260" on="0"/>
        <pt x="317" y="277" on="1"/>
        <pt x="206" y="275" on="1"/>
        <pt x="205" y="204" on="1"/>
        <pt x="208" y="96" on="1"/>
        <pt x="243" y="92" on="0"/>
        <pt x="277" y="92" on="1"/>
      </contour>
    </TTGlyph>
    <TTGlyph name="C" xMin="28" yMin="-9" xMax="505" yMax="652">
      <contour>
        <pt x="430" y="652" on="0"/>
        <pt x="505" y="613" on="1"/>
        <pt x="481" y="500" on="1"/>
        <pt x="470" y="495" on="1"/>
        <pt x="407" y="540" on="0"/>
        <pt x="330" y="540" on="1"/>
        <pt x="171" y="540" on="0"/>
        <pt x="171" y="331" on="1"/>
        <pt x="171" y="105" on="0"/>
        <pt x="334" y="105" on="1"/>
        <pt x="414" y="105" on="0"/>
        <pt x="482" y="148" on="1"/>
        <pt x="494" y="141" on="1"/>
        <pt x="483" y="26" on="1"/>
        <pt x="407" y="-9" on="0"/>
        <pt x="323" y="-9" on="1"/>
        <pt x="179" y="-9" on="0"/>
        <pt x="28" y="159" on="0"/>
        <pt x="28" y="316" on="1"/>
        <pt x="28" y="476" on="0"/>
        <pt x="189" y="652" on="0"/>
        <pt x="336" y="652" on="1"/>
      </contour>
    </TTGlyph>
    <TTGlyph name="C.ss01" xMin="-100" yMin="0" xMax="554" yMax="505">
      <contour>
        <pt x="224" y="403" on="0"/>
        <pt x="167" y="335" on="0"/>
        <pt x="167" y="261" on="1"/>
        <pt x="167" y="103" on="0"/>
        <pt x="289" y="103" on="1"/>
        <pt x="351" y="103" on="0"/>
        <pt x="404" y="132" on="1"/>
        <pt x="415" y="126" on="1"/>
        <pt x="407" y="49" on="1"/>
        <pt x="554" y="49" on="1"/>
        <pt x="554" y="0" on="1"/>
        <pt x="-100" y="0" on="1"/>
        <pt x="-100" y="49" on="1"/>
        <pt x="119" y="49" on="1"/>
        <pt x="39" y="111" on="0"/>
        <pt x="39" y="248" on="1"/>
        <pt x="39" y="392" on="0"/>
        <pt x="129" y="456" on="1"/>
        <pt x="-100" y="456" on="1"/>
        <pt x="-100" y="505" on="1"/>
        <pt x="554" y="505" on="1"/>
        <pt x="554" y="456" on="1"/>
        <pt x="421" y="456" on="1"/>
        <pt x="404" y="375" on="1"/>
        <pt x="394" y="370" on="1"/>
        <pt x="348" y="403" on="0"/>
        <pt x="283" y="403" on="1"/>
      </contour>
    </TTGlyph>
    <TTGlyph name="Cacute" xMin="28" yMin="-9" xMax="505" yMax="889">
      <component glyphName="C" x="0" y="0" flags="0x1000"/>
      <component glyphName="acute.cap" x="144" y="179" flags="0x1000"/>
    </TTGlyph>
    <TTGlyph name="Ccaron" xMin="28" yMin="-9" xMax="505" yMax="875">
      <component glyphName="C" x="0" y="0" flags="0x1000"/>
      <component glyphName="caron.cap" x="122" y="179" flags="0x1000"/>
    </TTGlyph>
    <TTGlyph name="Ccedilla" xMin="28" yMin="-201" xMax="505" yMax="652">
      <contour>
        <pt x="414" y="105" on="0"/>
        <pt x="481" y="148" on="1"/>
        <pt x="494" y="141" on="1"/>
        <pt x="483" y="26" on="1"/>
        <pt x="416" y="-4" on="0"/>
        <pt x="343" y="-9" on="1"/>
        <pt x="333" y="-48" on="1"/>
        <pt x="367" y="-67" on="1"/>
        <pt x="408" y="-89" on="0"/>
        <pt x="408" y="-126" on="1"/>
        <pt x="408" y="-159" on="0"/>
        <pt x="356" y="-201" on="0"/>
        <pt x="314" y="-201" on="1"/>
        <pt x="269" y="-201" on="0"/>
        <pt x="232" y="-173" on="1"/>
        <pt x="241" y="-117" on="1"/>
        <pt x="247" y="-114" on="1"/>
        <pt x="277" y="-144" on="0"/>
        <pt x="306" y="-144" on="1"/>
        <pt x="330" y="-144" on="0"/>
        <pt x="330" y="-123" on="1"/>
        <pt x="330" y="-112" on="0"/>
        <pt x="313" y="-103" on="1"/>
        <pt x="264" y="-75" on="1"/>
        <pt x="280" y="-7" on="1"/>
        <pt x="156" y="6" on="0"/>
        <pt x="28" y="171" on="0"/>
        <pt x="28" y="316" on="1"/>
        <pt x="28" y="476" on="0"/>
        <pt x="189" y="652" on="0"/>
        <pt x="335" y="652" on="1"/>
        <pt x="430" y="652" on="0"/>
        <pt x="505" y="613" on="1"/>
        <pt x="480" y="500" on="1"/>
        <pt x="470" y="495" on="1"/>
        <pt x="407" y="540" on="0"/>
        <pt x="330" y="540" on="1"/>
        <pt x="170" y="540" on="0"/>
        <pt x="170" y="331" on="1"/>
        <pt x="170" y="105" on="0"/>
        <pt x="334" y="105" on="1"/>
      </contour>
    </TTGlyph>
    <TTGlyph name="Ccircumflex" xMin="28" yMin="-9" xMax="505" yMax="885">
      <contour>
        <pt x="237" y="827" on="0"/>
        <pt x="302" y="885" on="1"/>
        <pt x="329" y="885" on="1"/>
        <pt x="391" y="830" on="0"/>
        <pt x="463" y="781" on="1"/>
        <pt x="439" y="728" on="1"/>
        <pt x="426" y="728" on="1"/>
        <pt x="395" y="746" on="1"/>
        <pt x="358" y="765" on="0"/>
        <pt x="316" y="791" on="1"/>
        <pt x="274" y="765" on="0"/>
        <pt x="237" y="746" on="1"/>
        <pt x="206" y="728" on="1"/>
        <pt x="193" y="728" on="1"/>
        <pt x="168" y="781" on="1"/>
      </contour>
      <contour>
        <pt x="430" y="652" on="0"/>
        <pt x="505" y="613" on="1"/>
        <pt x="480" y="500" on="1"/>
        <pt x="470" y="495" on="1"/>
        <pt x="407" y="540" on="0"/>
        <pt x="330" y="540" on="1"/>
        <pt x="170" y="540" on="0"/>
        <pt x="170" y="331" on="1"/>
        <pt x="170" y="105" on="0"/>
        <pt x="334" y="105" on="1"/>
        <pt x="414" y="105" on="0"/>
        <pt x="481" y="148" on="1"/>
        <pt x="494" y="141" on="1"/>
        <pt x="483" y="26" on="1"/>
        <pt x="407" y="-9" on="0"/>
        <pt x="323" y="-9" on="1"/>
        <pt x="179" y="-9" on="0"/>
        <pt x="28" y="159" on="0"/>
        <pt x="28" y="316" on="1"/>
        <pt x="28" y="476" on="0"/>
        <pt x="189" y="652" on="0"/>
        <pt x="335" y="652" on="1"/>
      </contour>
    </TTGlyph>
    <TTGlyph name="Cdotaccent" xMin="28" yMin="-9" xMax="505" yMax="872">
      <contour>
        <pt x="350" y="872" on="0"/>
        <pt x="385" y="836" on="0"/>
        <pt x="385" y="804" on="1"/>
        <pt x="385" y="770" on="0"/>
        <pt x="347" y="730" on="0"/>
        <pt x="314" y="730" on="1"/>
        <pt x="281" y="730" on="0"/>
        <pt x="246" y="766" on="0"/>
        <pt x="246" y="799" on="1"/>
        <pt x="246" y="832" on="0"/>
        <pt x="285" y="872" on="0"/>
        <pt x="319" y="872" on="1"/>
      </contour>
      <contour>
        <pt x="430" y="652" on="0"/>
        <pt x="505" y="613" on="1"/>
        <pt x="480" y="500" on="1"/>
        <pt x="470" y="495" on="1"/>
        <pt x="407" y="540" on="0"/>
        <pt x="330" y="540" on="1"/>
        <pt x="170" y="540" on="0"/>
        <pt x="170" y="331" on="1"/>
        <pt x="170" y="105" on="0"/>
        <pt x="334" y="105" on="1"/>
        <pt x="414" y="105" on="0"/>
        <pt x="481" y="148" on="1"/>
        <pt x="494" y="141" on="1"/>
        <pt x="483" y="26" on="1"/>
        <pt x="407" y="-9" on="0"/>
        <pt x="323" y="-9" on="1"/>
        <pt x="179" y="-9" on="0"/>
        <pt x="28" y="159" on="0"/>
        <pt x="28" y="316" on="1"/>
        <pt x="28" y="476" on="0"/>
        <pt x="189" y="652" on="0"/>
        <pt x="335" y="652" on="1"/>
      </contour>
    </TTGlyph>
    <TTGlyph name="D" xMin="78" yMin="-7" xMax="627" yMax="648">
      <contour>
        <pt x="477" y="648" on="0"/>
        <pt x="627" y="492" on="0"/>
        <pt x="627" y="346" on="1"/>
        <pt x="627" y="175" on="0"/>
        <pt x="459" y="-7" on="0"/>
        <pt x="303" y="-7" on="1"/>
        <pt x="193" y="-7" on="0"/>
        <pt x="78" y="0" on="1"/>
        <pt x="85" y="192" on="1"/>
        <pt x="78" y="644" on="1"/>
        <pt x="337" y="648" on="1"/>
      </contour>
      <contour>
        <pt x="486" y="98" on="0"/>
        <pt x="486" y="315" on="1"/>
        <pt x="486" y="433" on="0"/>
        <pt x="409" y="540" on="0"/>
        <pt x="327" y="540" on="1"/>
        <pt x="274" y="540" on="0"/>
        <pt x="214" y="535" on="1"/>
        <pt x="208" y="204" on="1"/>
        <pt x="211" y="105" on="1"/>
        <pt x="281" y="98" on="0"/>
        <pt x="327" y="98" on="1"/>
      </contour>
    </TTGlyph>
    <TTGlyph name="D.ss01" xMin="-100" yMin="0" xMax="670" yMax="505">
      <contour>
        <pt x="451" y="456" on="1"/>
        <pt x="530" y="396" on="0"/>
        <pt x="530" y="270" on="1"/>
        <pt x="530" y="118" on="0"/>
        <pt x="436" y="49" on="1"/>
        <pt x="670" y="49" on="1"/>
        <pt x="670" y="0" on="1"/>
        <pt x="-100" y="0" on="1"/>
        <pt x="-100" y="49" on="1"/>
        <pt x="82" y="49" on="1"/>
        <pt x="86" y="152" on="1"/>
        <pt x="81" y="456" on="1"/>
        <pt x="-100" y="456" on="1"/>
        <pt x="-100" y="505" on="1"/>
        <pt x="670" y="505" on="1"/>
        <pt x="670" y="456" on="1"/>
      </contour>
      <contour>
        <pt x="250" y="94" on="0"/>
        <pt x="287" y="94" on="1"/>
        <pt x="403" y="94" on="0"/>
        <pt x="403" y="242" on="1"/>
        <pt x="403" y="328" on="0"/>
        <pt x="347" y="402" on="0"/>
        <pt x="285" y="402" on="1"/>
        <pt x="239" y="402" on="0"/>
        <pt x="202" y="398" on="1"/>
        <pt x="197" y="164" on="1"/>
        <pt x="199" y="101" on="1"/>
      </contour>
    </TTGlyph>
    <TTGlyph name="Dcaron" xMin="78" yMin="-7" xMax="627" yMax="875">
      <component glyphName="D" x="0" y="0" flags="0x1000"/>
      <component glyphName="caron.cap" x="127" y="179" flags="0x1000"/>
    </TTGlyph>
    <TTGlyph name="Dcroat" xMin="78" yMin="-7" xMax="627" yMax="839">
      <component glyphName="D" x="0" y="0" flags="0x1000"/>
      <component glyphName="macron" x="126" y="179" flags="0x1000"/>
    </TTGlyph>
    <TTGlyph name="Delta" xMin="8" yMin="0" xMax="584" yMax="644">
      <contour>
        <pt x="8" y="0" on="1"/>
        <pt x="225" y="644" on="1"/>
        <pt x="387" y="644" on="1"/>
        <pt x="584" y="0" on="1"/>
      </contour>
      <contour>
        <pt x="163" y="104" on="1"/>
        <pt x="425" y="104" on="1"/>
        <pt x="308" y="517" on="1"/>
        <pt x="299" y="517" on="1"/>
      </contour>
    </TTGlyph>
    <TTGlyph name="E" xMin="78" yMin="0" xMax="494" yMax="644">
      <contour>
        <pt x="491" y="101" on="1"/>
        <pt x="482" y="0" on="1"/>
        <pt x="78" y="0" on="1"/>
        <pt x="85" y="192" on="1"/>
        <pt x="78" y="644" on="1"/>
        <pt x="486" y="644" on="1"/>
        <pt x="494" y="633" on="1"/>
        <pt x="484" y="532" on="1"/>
        <pt x="330" y="537" on="1"/>
        <pt x="214" y="536" on="1"/>
        <pt x="211" y="381" on="1"/>
        <pt x="322" y="379" on="1"/>
        <pt x="427" y="382" on="1"/>
        <pt x="435" y="372" on="1"/>
        <pt x="426" y="271" on="1"/>
        <pt x="312" y="274" on="1"/>
        <pt x="209" y="273" on="1"/>
        <pt x="208" y="204" on="1"/>
        <pt x="211" y="107" on="1"/>
        <pt x="324" y="106" on="1"/>
        <pt x="483" y="112" on="1"/>
      </contour>
    </TTGlyph>
    <TTGlyph name="Eacute" xMin="78" yMin="0" xMax="494" yMax="889">
      <component glyphName="E" x="0" y="0" flags="0x1000"/>
      <component glyphName="acute.cap" x="111" y="179" flags="0x1000"/>
    </TTGlyph>
    <TTGlyph name="Ebreve" xMin="78" yMin="0" xMax="494" yMax="869">
      <component glyphName="E" x="0" y="0" flags="0x1000"/>
      <component glyphName="breve.cap" x="88" y="179" flags="0x1000"/>
    </TTGlyph>
    <TTGlyph name="Ecaron" xMin="78" yMin="0" xMax="494" yMax="875">
      <component glyphName="E" x="0" y="0" flags="0x1000"/>
      <component glyphName="caron.cap" x="89" y="179" flags="0x1000"/>
    </TTGlyph>
    <TTGlyph name="Ecircumflex" xMin="78" yMin="0" xMax="493" yMax="885">
      <contour>
        <pt x="135" y="781" on="1"/>
        <pt x="204" y="827" on="0"/>
        <pt x="269" y="885" on="1"/>
        <pt x="296" y="885" on="1"/>
        <pt x="358" y="830" on="0"/>
        <pt x="430" y="781" on="1"/>
        <pt x="406" y="728" on="1"/>
        <pt x="393" y="728" on="1"/>
        <pt x="362" y="746" on="1"/>
        <pt x="325" y="765" on="0"/>
        <pt x="283" y="791" on="1"/>
        <pt x="241" y="765" on="0"/>
        <pt x="204" y="746" on="1"/>
        <pt x="173" y="728" on="1"/>
        <pt x="160" y="728" on="1"/>
      </contour>
      <contour>
        <pt x="490" y="101" on="1"/>
        <pt x="482" y="0" on="1"/>
        <pt x="78" y="0" on="1"/>
        <pt x="86" y="192" on="1"/>
        <pt x="78" y="644" on="1"/>
        <pt x="486" y="644" on="1"/>
        <pt x="493" y="633" on="1"/>
        <pt x="484" y="532" on="1"/>
        <pt x="329" y="537" on="1"/>
        <pt x="214" y="536" on="1"/>
        <pt x="212" y="380" on="1"/>
        <pt x="321" y="379" on="1"/>
        <pt x="427" y="382" on="1"/>
        <pt x="435" y="372" on="1"/>
        <pt x="426" y="271" on="1"/>
        <pt x="312" y="274" on="1"/>
        <pt x="210" y="273" on="1"/>
        <pt x="209" y="204" on="1"/>
        <pt x="212" y="107" on="1"/>
        <pt x="324" y="106" on="1"/>
        <pt x="483" y="112" on="1"/>
      </contour>
    </TTGlyph>
    <TTGlyph name="Ecircumflexacute" xMin="78" yMin="0" xMax="494" yMax="995">
      <component glyphName="E" x="0" y="0" flags="0x1000"/>
      <component glyphName="circumflexacute" x="88" y="179" flags="0x1000"/>
    </TTGlyph>
    <TTGlyph name="Ecircumflexdotbelow" xMin="78" yMin="-194" xMax="493" yMax="885">
      <contour>
        <pt x="135" y="781" on="1"/>
        <pt x="204" y="827" on="0"/>
        <pt x="269" y="885" on="1"/>
        <pt x="296" y="885" on="1"/>
        <pt x="358" y="830" on="0"/>
        <pt x="430" y="781" on="1"/>
        <pt x="406" y="728" on="1"/>
        <pt x="393" y="728" on="1"/>
        <pt x="362" y="746" on="1"/>
        <pt x="325" y="765" on="0"/>
        <pt x="283" y="791" on="1"/>
        <pt x="241" y="765" on="0"/>
        <pt x="204" y="746" on="1"/>
        <pt x="173" y="728" on="1"/>
        <pt x="160" y="728" on="1"/>
      </contour>
      <contour>
        <pt x="490" y="101" on="1"/>
        <pt x="482" y="0" on="1"/>
        <pt x="78" y="0" on="1"/>
        <pt x="86" y="192" on="1"/>
        <pt x="78" y="644" on="1"/>
        <pt x="486" y="644" on="1"/>
        <pt x="493" y="633" on="1"/>
        <pt x="484" y="532" on="1"/>
        <pt x="329" y="537" on="1"/>
        <pt x="214" y="536" on="1"/>
        <pt x="212" y="380" on="1"/>
        <pt x="321" y="379" on="1"/>
        <pt x="427" y="382" on="1"/>
        <pt x="435" y="372" on="1"/>
        <pt x="426" y="271" on="1"/>
        <pt x="312" y="274" on="1"/>
        <pt x="210" y="273" on="1"/>
        <pt x="209" y="204" on="1"/>
        <pt x="212" y="107" on="1"/>
        <pt x="324" y="106" on="1"/>
        <pt x="483" y="112" on="1"/>
      </contour>
      <contour>
        <pt x="328" y="-52" on="0"/>
        <pt x="363" y="-88" on="0"/>
        <pt x="363" y="-120" on="1"/>
        <pt x="363" y="-154" on="0"/>
        <pt x="325" y="-194" on="0"/>
        <pt x="292" y="-194" on="1"/>
        <pt x="259" y="-194" on="0"/>
        <pt x="224" y="-158" on="0"/>
        <pt x="224" y="-125" on="1"/>
        <pt x="224" y="-92" on="0"/>
        <pt x="263" y="-52" on="0"/>
        <pt x="297" y="-52" on="1"/>
      </contour>
    </TTGlyph>
    <TTGlyph name="Ecircumflexgrave" xMin="78" yMin="0" xMax="494" yMax="995">
      <component glyphName="E" x="0" y="0" flags="0x1000"/>
      <component glyphName="circumflexgrave" x="88" y="179" flags="0x1000"/>
    </TTGlyph>
    <TTGlyph name="Ecircumflexhookabove" xMin="78" yMin="0" xMax="493" yMax="1038">
      <contour>
        <pt x="335" y="980" on="0"/>
        <pt x="306" y="956" on="1"/>
        <pt x="284" y="990" on="1"/>
        <pt x="329" y="1038" on="0"/>
        <pt x="384" y="1038" on="1"/>
        <pt x="417" y="1038" on="0"/>
        <pt x="461" y="1000" on="0"/>
        <pt x="461" y="971" on="1"/>
        <pt x="461" y="952" on="0"/>
        <pt x="437" y="917" on="0"/>
        <pt x="407" y="892" on="1"/>
        <pt x="429" y="855" on="1"/>
        <pt x="383" y="828" on="1"/>
        <pt x="343" y="891" on="1"/>
        <pt x="393" y="927" on="0"/>
        <pt x="393" y="958" on="1"/>
        <pt x="393" y="980" on="0"/>
        <pt x="366" y="980" on="1"/>
      </contour>
      <contour>
        <pt x="134" y="761" on="1"/>
        <pt x="203" y="807" on="0"/>
        <pt x="268" y="865" on="1"/>
        <pt x="295" y="865" on="1"/>
        <pt x="357" y="810" on="0"/>
        <pt x="429" y="761" on="1"/>
        <pt x="405" y="708" on="1"/>
        <pt x="392" y="708" on="1"/>
        <pt x="361" y="726" on="1"/>
        <pt x="324" y="745" on="0"/>
        <pt x="282" y="771" on="1"/>
        <pt x="240" y="745" on="0"/>
        <pt x="203" y="726" on="1"/>
        <pt x="172" y="708" on="1"/>
        <pt x="159" y="708" on="1"/>
      </contour>
      <contour>
        <pt x="490" y="101" on="1"/>
        <pt x="482" y="0" on="1"/>
        <pt x="78" y="0" on="1"/>
        <pt x="86" y="192" on="1"/>
        <pt x="78" y="644" on="1"/>
        <pt x="486" y="644" on="1"/>
        <pt x="493" y="633" on="1"/>
        <pt x="484" y="532" on="1"/>
        <pt x="329" y="537" on="1"/>
        <pt x="214" y="536" on="1"/>
        <pt x="212" y="380" on="1"/>
        <pt x="321" y="379" on="1"/>
        <pt x="427" y="382" on="1"/>
        <pt x="435" y="372" on="1"/>
        <pt x="426" y="271" on="1"/>
        <pt x="312" y="274" on="1"/>
        <pt x="210" y="273" on="1"/>
        <pt x="209" y="204" on="1"/>
        <pt x="212" y="107" on="1"/>
        <pt x="324" y="106" on="1"/>
        <pt x="483" y="112" on="1"/>
      </contour>
    </TTGlyph>
    <TTGlyph name="Ecircumflextilde" xMin="78" yMin="0" xMax="494" yMax="995">
      <component glyphName="E" x="0" y="0" flags="0x1000"/>
      <component glyphName="circumflexgrave" x="88" y="179" flags="0x1000"/>
    </TTGlyph>
    <TTGlyph name="Edieresis" xMin="78" yMin="0" xMax="493" yMax="862">
      <contour>
        <pt x="165" y="732" on="0"/>
        <pt x="133" y="765" on="0"/>
        <pt x="133" y="795" on="1"/>
        <pt x="133" y="826" on="0"/>
        <pt x="168" y="862" on="0"/>
        <pt x="199" y="862" on="1"/>
        <pt x="228" y="862" on="0"/>
        <pt x="260" y="829" on="0"/>
        <pt x="260" y="800" on="1"/>
        <pt x="260" y="768" on="0"/>
        <pt x="225" y="732" on="0"/>
        <pt x="194" y="732" on="1"/>
      </contour>
      <contour>
        <pt x="339" y="732" on="0"/>
        <pt x="307" y="765" on="0"/>
        <pt x="307" y="795" on="1"/>
        <pt x="307" y="826" on="0"/>
        <pt x="342" y="862" on="0"/>
        <pt x="373" y="862" on="1"/>
        <pt x="402" y="862" on="0"/>
        <pt x="434" y="829" on="0"/>
        <pt x="434" y="800" on="1"/>
        <pt x="434" y="768" on="0"/>
        <pt x="399" y="732" on="0"/>
        <pt x="368" y="732" on="1"/>
      </contour>
      <contour>
        <pt x="490" y="101" on="1"/>
        <pt x="482" y="0" on="1"/>
        <pt x="78" y="0" on="1"/>
        <pt x="86" y="192" on="1"/>
        <pt x="78" y="644" on="1"/>
        <pt x="486" y="644" on="1"/>
        <pt x="493" y="633" on="1"/>
        <pt x="484" y="532" on="1"/>
        <pt x="329" y="537" on="1"/>
        <pt x="214" y="536" on="1"/>
        <pt x="212" y="380" on="1"/>
        <pt x="321" y="379" on="1"/>
        <pt x="427" y="382" on="1"/>
        <pt x="435" y="372" on="1"/>
        <pt x="426" y="271" on="1"/>
        <pt x="312" y="274" on="1"/>
        <pt x="210" y="273" on="1"/>
        <pt x="209" y="204" on="1"/>
        <pt x="212" y="107" on="1"/>
        <pt x="324" y="106" on="1"/>
        <pt x="483" y="112" on="1"/>
      </contour>
    </TTGlyph>
    <TTGlyph name="Edotaccent" xMin="78" yMin="0" xMax="493" yMax="872">
      <contour>
        <pt x="248" y="730" on="0"/>
        <pt x="213" y="766" on="0"/>
        <pt x="213" y="799" on="1"/>
        <pt x="213" y="832" on="0"/>
        <pt x="252" y="872" on="0"/>
        <pt x="286" y="872" on="1"/>
        <pt x="317" y="872" on="0"/>
        <pt x="352" y="836" on="0"/>
        <pt x="352" y="804" on="1"/>
        <pt x="352" y="770" on="0"/>
        <pt x="314" y="730" on="0"/>
        <pt x="281" y="730" on="1"/>
      </contour>
      <contour>
        <pt x="490" y="101" on="1"/>
        <pt x="482" y="0" on="1"/>
        <pt x="78" y="0" on="1"/>
        <pt x="86" y="192" on="1"/>
        <pt x="78" y="644" on="1"/>
        <pt x="486" y="644" on="1"/>
        <pt x="493" y="633" on="1"/>
        <pt x="484" y="532" on="1"/>
        <pt x="329" y="537" on="1"/>
        <pt x="214" y="536" on="1"/>
        <pt x="212" y="380" on="1"/>
        <pt x="321" y="379" on="1"/>
        <pt x="427" y="382" on="1"/>
        <pt x="435" y="372" on="1"/>
        <pt x="426" y="271" on="1"/>
        <pt x="312" y="274" on="1"/>
        <pt x="210" y="273" on="1"/>
        <pt x="209" y="204" on="1"/>
        <pt x="212" y="107" on="1"/>
        <pt x="324" y="106" on="1"/>
        <pt x="483" y="112" on="1"/>
      </contour>
    </TTGlyph>
    <TTGlyph name="Edotbelow" xMin="78" yMin="-194" xMax="493" yMax="644">
      <contour>
        <pt x="490" y="101" on="1"/>
        <pt x="482" y="0" on="1"/>
        <pt x="78" y="0" on="1"/>
        <pt x="86" y="192" on="1"/>
        <pt x="78" y="644" on="1"/>
        <pt x="486" y="644" on="1"/>
        <pt x="493" y="633" on="1"/>
        <pt x="484" y="532" on="1"/>
        <pt x="329" y="537" on="1"/>
        <pt x="214" y="536" on="1"/>
        <pt x="212" y="380" on="1"/>
        <pt x="321" y="379" on="1"/>
        <pt x="427" y="382" on="1"/>
        <pt x="435" y="372" on="1"/>
        <pt x="426" y="271" on="1"/>
        <pt x="312" y="274" on="1"/>
        <pt x="210" y="273" on="1"/>
        <pt x="209" y="204" on="1"/>
        <pt x="212" y="107" on="1"/>
        <pt x="324" y="106" on="1"/>
        <pt x="483" y="112" on="1"/>
      </contour>
      <contour>
        <pt x="328" y="-52" on="0"/>
        <pt x="363" y="-88" on="0"/>
        <pt x="363" y="-120" on="1"/>
        <pt x="363" y="-154" on="0"/>
        <pt x="325" y="-194" on="0"/>
        <pt x="292" y="-194" on="1"/>
        <pt x="259" y="-194" on="0"/>
        <pt x="224" y="-158" on="0"/>
        <pt x="224" y="-125" on="1"/>
        <pt x="224" y="-92" on="0"/>
        <pt x="263" y="-52" on="0"/>
        <pt x="297" y="-52" on="1"/>
      </contour>
    </TTGlyph>
    <TTGlyph name="Egrave" xMin="78" yMin="0" xMax="493" yMax="890">
      <contour>
        <pt x="254" y="760" on="0"/>
        <pt x="162" y="796" on="1"/>
        <pt x="158" y="808" on="1"/>
        <pt x="192" y="887" on="1"/>
        <pt x="204" y="890" on="1"/>
        <pt x="291" y="838" on="0"/>
        <pt x="412" y="777" on="1"/>
        <pt x="390" y="722" on="1"/>
        <pt x="377" y="718" on="1"/>
      </contour>
      <contour>
        <pt x="490" y="101" on="1"/>
        <pt x="482" y="0" on="1"/>
        <pt x="78" y="0" on="1"/>
        <pt x="86" y="192" on="1"/>
        <pt x="78" y="644" on="1"/>
        <pt x="486" y="644" on="1"/>
        <pt x="493" y="633" on="1"/>
        <pt x="484" y="532" on="1"/>
        <pt x="329" y="537" on="1"/>
        <pt x="214" y="536" on="1"/>
        <pt x="212" y="380" on="1"/>
        <pt x="321" y="379" on="1"/>
        <pt x="427" y="382" on="1"/>
        <pt x="435" y="372" on="1"/>
        <pt x="426" y="271" on="1"/>
        <pt x="312" y="274" on="1"/>
        <pt x="210" y="273" on="1"/>
        <pt x="209" y="204" on="1"/>
        <pt x="212" y="107" on="1"/>
        <pt x="324" y="106" on="1"/>
        <pt x="483" y="112" on="1"/>
      </contour>
    </TTGlyph>
    <TTGlyph name="Ehookabove" xMin="78" yMin="0" xMax="494" yMax="919">
      <component glyphName="E" x="0" y="0" flags="0x1000"/>
      <component glyphName="hookabove" x="87" y="178" flags="0x1000"/>
    </TTGlyph>
    <TTGlyph name="Emacron" xMin="78" yMin="0" xMax="494" yMax="839">
      <component glyphName="E" x="0" y="0" flags="0x1000"/>
      <component glyphName="macron" x="88" y="179" flags="0x1000"/>
    </TTGlyph>
    <TTGlyph name="Eng" xMin="78" yMin="-171" xMax="618" yMax="646">
      <contour>
        <pt x="613" y="56" on="1"/>
        <pt x="613" y="0" on="0"/>
        <pt x="576" y="-80" on="0"/>
        <pt x="491" y="-143" on="0"/>
        <pt x="417" y="-171" on="1"/>
        <pt x="376" y="-99" on="1"/>
        <pt x="376" y="-86" on="1"/>
        <pt x="455" y="-46" on="0"/>
        <pt x="477" y="1" on="1"/>
        <pt x="207" y="436" on="1"/>
        <pt x="198" y="436" on="1"/>
        <pt x="197" y="222" on="1"/>
        <pt x="202" y="0" on="1"/>
        <pt x="78" y="0" on="1"/>
        <pt x="85" y="190" on="1"/>
        <pt x="79" y="644" on="1"/>
        <pt x="225" y="644" on="1"/>
        <pt x="487" y="217" on="1"/>
        <pt x="496" y="217" on="1"/>
        <pt x="492" y="638" on="1"/>
        <pt x="618" y="646" on="1"/>
        <pt x="610" y="199" on="1"/>
      </contour>
    </TTGlyph>
    <TTGlyph name="Eogonek" xMin="78" yMin="-197" xMax="498" yMax="644">
      <contour>
        <pt x="443" y="-197" on="0"/>
        <pt x="395" y="-197" on="1"/>
        <pt x="354" y="-197" on="0"/>
        <pt x="304" y="-147" on="0"/>
        <pt x="304" y="-109" on="1"/>
        <pt x="304" y="-66" on="0"/>
        <pt x="333" y="-27" on="1"/>
        <pt x="352" y="0" on="1"/>
        <pt x="78" y="0" on="1"/>
        <pt x="86" y="192" on="1"/>
        <pt x="78" y="644" on="1"/>
        <pt x="486" y="644" on="1"/>
        <pt x="493" y="633" on="1"/>
        <pt x="484" y="532" on="1"/>
        <pt x="329" y="537" on="1"/>
        <pt x="214" y="536" on="1"/>
        <pt x="212" y="380" on="1"/>
        <pt x="321" y="379" on="1"/>
        <pt x="427" y="382" on="1"/>
        <pt x="435" y="372" on="1"/>
        <pt x="426" y="271" on="1"/>
        <pt x="312" y="274" on="1"/>
        <pt x="210" y="273" on="1"/>
        <pt x="209" y="204" on="1"/>
        <pt x="212" y="107" on="1"/>
        <pt x="324" y="106" on="1"/>
        <pt x="483" y="112" on="1"/>
        <pt x="490" y="101" on="1"/>
        <pt x="482" y="0" on="1"/>
        <pt x="418" y="0" on="1"/>
        <pt x="393" y="-38" on="1"/>
        <pt x="377" y="-65" on="0"/>
        <pt x="377" y="-85" on="1"/>
        <pt x="377" y="-122" on="0"/>
        <pt x="415" y="-122" on="1"/>
        <pt x="445" y="-122" on="0"/>
        <pt x="480" y="-93" on="1"/>
        <pt x="487" y="-93" on="1"/>
        <pt x="498" y="-148" on="1"/>
      </contour>
    </TTGlyph>
    <TTGlyph name="Eth" xMin="15" yMin="-7" xMax="652" yMax="648">
      <contour>
        <pt x="503" y="648" on="0"/>
        <pt x="652" y="492" on="0"/>
        <pt x="652" y="346" on="1"/>
        <pt x="652" y="175" on="0"/>
        <pt x="484" y="-7" on="0"/>
        <pt x="328" y="-7" on="1"/>
        <pt x="218" y="-7" on="0"/>
        <pt x="104" y="0" on="1"/>
        <pt x="103" y="0" on="1"/>
        <pt x="111" y="192" on="1"/>
        <pt x="110" y="275" on="1"/>
        <pt x="21" y="275" on="1"/>
        <pt x="15" y="284" on="1"/>
        <pt x="20" y="365" on="1"/>
        <pt x="108" y="365" on="1"/>
        <pt x="103" y="644" on="1"/>
        <pt x="104" y="644" on="1"/>
        <pt x="363" y="648" on="1"/>
      </contour>
      <contour>
        <pt x="511" y="98" on="0"/>
        <pt x="511" y="315" on="1"/>
        <pt x="511" y="433" on="0"/>
        <pt x="434" y="540" on="0"/>
        <pt x="352" y="540" on="1"/>
        <pt x="301" y="540" on="0"/>
        <pt x="239" y="535" on="1"/>
        <pt x="237" y="365" on="1"/>
        <pt x="354" y="365" on="1"/>
        <pt x="360" y="356" on="1"/>
        <pt x="356" y="275" on="1"/>
        <pt x="235" y="275" on="1"/>
        <pt x="234" y="204" on="1"/>
        <pt x="237" y="105" on="1"/>
        <pt x="307" y="98" on="0"/>
        <pt x="353" y="98" on="1"/>
      </contour>
    </TTGlyph>
    <TTGlyph name="Etilde" xMin="78" yMin="0" xMax="494" yMax="880">
      <component glyphName="E" x="0" y="0" flags="0x1000"/>
      <component glyphName="tilde" x="88" y="179" flags="0x1000"/>
    </TTGlyph>
    <TTGlyph name="Euro" xMin="6" yMin="-7" xMax="452" yMax="512">
      <contour>
        <pt x="6" y="278" on="1"/>
        <pt x="10" y="337" on="1"/>
        <pt x="81" y="337" on="1"/>
        <pt x="103" y="421" on="0"/>
        <pt x="227" y="512" on="0"/>
        <pt x="322" y="512" on="1"/>
        <pt x="388" y="512" on="0"/>
        <pt x="452" y="485" on="1"/>
        <pt x="431" y="386" on="1"/>
        <pt x="421" y="381" on="1"/>
        <pt x="374" y="410" on="0"/>
        <pt x="317" y="410" on="1"/>
        <pt x="234" y="410" on="0"/>
        <pt x="212" y="337" on="1"/>
        <pt x="354" y="337" on="1"/>
        <pt x="360" y="331" on="1"/>
        <pt x="355" y="270" on="1"/>
        <pt x="10" y="270" on="1"/>
      </contour>
      <contour>
        <pt x="378" y="94" on="0"/>
        <pt x="430" y="120" on="1"/>
        <pt x="441" y="114" on="1"/>
        <pt x="431" y="16" on="1"/>
        <pt x="378" y="-7" on="0"/>
        <pt x="313" y="-7" on="1"/>
        <pt x="114" y="-7" on="0"/>
        <pt x="79" y="161" on="1"/>
        <pt x="10" y="161" on="1"/>
        <pt x="6" y="168" on="1"/>
        <pt x="10" y="228" on="1"/>
        <pt x="354" y="228" on="1"/>
        <pt x="360" y="221" on="1"/>
        <pt x="355" y="161" on="1"/>
        <pt x="215" y="161" on="1"/>
        <pt x="242" y="94" on="0"/>
        <pt x="320" y="94" on="1"/>
      </contour>
    </TTGlyph>
    <TTGlyph name="F" xMin="78" yMin="0" xMax="469" yMax="644">
      <contour>
        <pt x="211" y="362" on="1"/>
        <pt x="301" y="361" on="1"/>
        <pt x="410" y="364" on="1"/>
        <pt x="419" y="354" on="1"/>
        <pt x="409" y="253" on="1"/>
        <pt x="290" y="256" on="1"/>
        <pt x="209" y="255" on="1"/>
        <pt x="208" y="204" on="1"/>
        <pt x="214" y="0" on="1"/>
        <pt x="78" y="0" on="1"/>
        <pt x="85" y="192" on="1"/>
        <pt x="78" y="644" on="1"/>
        <pt x="461" y="644" on="1"/>
        <pt x="469" y="633" on="1"/>
        <pt x="459" y="531" on="1"/>
        <pt x="306" y="537" on="1"/>
        <pt x="214" y="536" on="1"/>
      </contour>
    </TTGlyph>
    <TTGlyph name="G" xMin="28" yMin="-9" xMax="553" yMax="652">
      <contour>
        <pt x="469" y="652" on="0"/>
        <pt x="553" y="613" on="1"/>
        <pt x="524" y="491" on="1"/>
        <pt x="511" y="489" on="1"/>
        <pt x="462" y="517" on="0"/>
        <pt x="385" y="542" on="0"/>
        <pt x="341" y="542" on="1"/>
        <pt x="252" y="542" on="0"/>
        <pt x="170" y="436" on="0"/>
        <pt x="170" y="315" on="1"/>
        <pt x="170" y="235" on="0"/>
        <pt x="205" y="141" on="0"/>
        <pt x="279" y="98" on="0"/>
        <pt x="340" y="98" on="1"/>
        <pt x="378" y="98" on="0"/>
        <pt x="425" y="112" on="1"/>
        <pt x="427" y="167" on="1"/>
        <pt x="425" y="266" on="1"/>
        <pt x="550" y="276" on="1"/>
        <pt x="547" y="188" on="1"/>
        <pt x="550" y="31" on="1"/>
        <pt x="430" y="-9" on="0"/>
        <pt x="329" y="-9" on="1"/>
        <pt x="179" y="-9" on="0"/>
        <pt x="28" y="155" on="0"/>
        <pt x="28" y="308" on="1"/>
        <pt x="28" y="475" on="0"/>
        <pt x="203" y="652" on="0"/>
        <pt x="364" y="652" on="1"/>
      </contour>
    </TTGlyph>
    <TTGlyph name="Gbreve" xMin="28" yMin="-9" xMax="553" yMax="869">
      <component glyphName="G" x="0" y="0" flags="0x1000"/>
      <component glyphName="breve.cap" x="132" y="179" flags="0x1000"/>
    </TTGlyph>
    <TTGlyph name="Gcircumflex" xMin="28" yMin="-9" xMax="552" yMax="885">
      <contour>
        <pt x="248" y="827" on="0"/>
        <pt x="313" y="885" on="1"/>
        <pt x="340" y="885" on="1"/>
        <pt x="402" y="830" on="0"/>
        <pt x="474" y="781" on="1"/>
        <pt x="450" y="728" on="1"/>
        <pt x="437" y="728" on="1"/>
        <pt x="406" y="746" on="1"/>
        <pt x="369" y="765" on="0"/>
        <pt x="327" y="791" on="1"/>
        <pt x="285" y="765" on="0"/>
        <pt x="248" y="746" on="1"/>
        <pt x="217" y="728" on="1"/>
        <pt x="204" y="728" on="1"/>
        <pt x="179" y="781" on="1"/>
      </contour>
      <contour>
        <pt x="470" y="652" on="0"/>
        <pt x="552" y="613" on="1"/>
        <pt x="523" y="491" on="1"/>
        <pt x="511" y="489" on="1"/>
        <pt x="462" y="517" on="0"/>
        <pt x="384" y="542" on="0"/>
        <pt x="340" y="542" on="1"/>
        <pt x="251" y="542" on="0"/>
        <pt x="170" y="437" on="0"/>
        <pt x="170" y="315" on="1"/>
        <pt x="170" y="235" on="0"/>
        <pt x="204" y="141" on="0"/>
        <pt x="278" y="98" on="0"/>
        <pt x="339" y="98" on="1"/>
        <pt x="378" y="98" on="0"/>
        <pt x="425" y="112" on="1"/>
        <pt x="427" y="167" on="1"/>
        <pt x="424" y="266" on="1"/>
        <pt x="550" y="276" on="1"/>
        <pt x="547" y="188" on="1"/>
        <pt x="549" y="31" on="1"/>
        <pt x="430" y="-9" on="0"/>
        <pt x="329" y="-9" on="1"/>
        <pt x="179" y="-9" on="0"/>
        <pt x="28" y="155" on="0"/>
        <pt x="28" y="308" on="1"/>
        <pt x="28" y="475" on="0"/>
        <pt x="203" y="652" on="0"/>
        <pt x="364" y="652" on="1"/>
      </contour>
    </TTGlyph>
    <TTGlyph name="Gcommaaccent" xMin="28" yMin="-272" xMax="552" yMax="652">
      <contour>
        <pt x="470" y="652" on="0"/>
        <pt x="552" y="613" on="1"/>
        <pt x="523" y="491" on="1"/>
        <pt x="511" y="489" on="1"/>
        <pt x="462" y="517" on="0"/>
        <pt x="384" y="542" on="0"/>
        <pt x="340" y="542" on="1"/>
        <pt x="251" y="542" on="0"/>
        <pt x="170" y="437" on="0"/>
        <pt x="170" y="315" on="1"/>
        <pt x="170" y="235" on="0"/>
        <pt x="204" y="141" on="0"/>
        <pt x="278" y="98" on="0"/>
        <pt x="339" y="98" on="1"/>
        <pt x="378" y="98" on="0"/>
        <pt x="425" y="112" on="1"/>
        <pt x="427" y="167" on="1"/>
        <pt x="424" y="266" on="1"/>
        <pt x="550" y="276" on="1"/>
        <pt x="547" y="188" on="1"/>
        <pt x="549" y="31" on="1"/>
        <pt x="430" y="-9" on="0"/>
        <pt x="329" y="-9" on="1"/>
        <pt x="179" y="-9" on="0"/>
        <pt x="28" y="155" on="0"/>
        <pt x="28" y="308" on="1"/>
        <pt x="28" y="475" on="0"/>
        <pt x="203" y="652" on="0"/>
        <pt x="364" y="652" on="1"/>
      </contour>
      <contour>
        <pt x="377" y="-71" on="0"/>
        <pt x="377" y="-116" on="1"/>
        <pt x="377" y="-195" on="0"/>
        <pt x="269" y="-272" on="1"/>
        <pt x="230" y="-238" on="1"/>
        <pt x="229" y="-229" on="1"/>
        <pt x="279" y="-188" on="0"/>
        <pt x="279" y="-141" on="1"/>
        <pt x="279" y="-111" on="0"/>
        <pt x="251" y="-87" on="1"/>
        <pt x="251" y="-77" on="1"/>
        <pt x="295" y="-51" on="0"/>
        <pt x="337" y="-40" on="1"/>
      </contour>
    </TTGlyph>
    <TTGlyph name="Gdieresis" xMin="28" yMin="-9" xMax="552" yMax="862">
      <contour>
        <pt x="273" y="862" on="0"/>
        <pt x="305" y="829" on="0"/>
        <pt x="305" y="800" on="1"/>
        <pt x="305" y="768" on="0"/>
        <pt x="270" y="732" on="0"/>
        <pt x="239" y="732" on="1"/>
        <pt x="210" y="732" on="0"/>
        <pt x="178" y="765" on="0"/>
        <pt x="178" y="795" on="1"/>
        <pt x="178" y="826" on="0"/>
        <pt x="213" y="862" on="0"/>
        <pt x="244" y="862" on="1"/>
      </contour>
      <contour>
        <pt x="446" y="862" on="0"/>
        <pt x="478" y="829" on="0"/>
        <pt x="478" y="800" on="1"/>
        <pt x="478" y="768" on="0"/>
        <pt x="443" y="732" on="0"/>
        <pt x="412" y="732" on="1"/>
        <pt x="383" y="732" on="0"/>
        <pt x="351" y="765" on="0"/>
        <pt x="351" y="795" on="1"/>
        <pt x="351" y="826" on="0"/>
        <pt x="386" y="862" on="0"/>
        <pt x="417" y="862" on="1"/>
      </contour>
      <contour>
        <pt x="470" y="652" on="0"/>
        <pt x="552" y="613" on="1"/>
        <pt x="523" y="491" on="1"/>
        <pt x="511" y="489" on="1"/>
        <pt x="462" y="517" on="0"/>
        <pt x="384" y="542" on="0"/>
        <pt x="340" y="542" on="1"/>
        <pt x="251" y="542" on="0"/>
        <pt x="170" y="437" on="0"/>
        <pt x="170" y="315" on="1"/>
        <pt x="170" y="235" on="0"/>
        <pt x="204" y="141" on="0"/>
        <pt x="278" y="98" on="0"/>
        <pt x="339" y="98" on="1"/>
        <pt x="378" y="98" on="0"/>
        <pt x="425" y="112" on="1"/>
        <pt x="427" y="167" on="1"/>
        <pt x="424" y="266" on="1"/>
        <pt x="550" y="276" on="1"/>
        <pt x="547" y="188" on="1"/>
        <pt x="549" y="31" on="1"/>
        <pt x="430" y="-9" on="0"/>
        <pt x="329" y="-9" on="1"/>
        <pt x="179" y="-9" on="0"/>
        <pt x="28" y="155" on="0"/>
        <pt x="28" y="308" on="1"/>
        <pt x="28" y="475" on="0"/>
        <pt x="203" y="652" on="0"/>
        <pt x="364" y="652" on="1"/>
      </contour>
    </TTGlyph>
    <TTGlyph name="Gdotaccent" xMin="28" yMin="-9" xMax="553" yMax="872">
      <component glyphName="G" x="0" y="0" flags="0x1000"/>
      <component glyphName="period" x="213" y="737" flags="0x1000"/>
    </TTGlyph>
    <TTGlyph name="Gtilde" xMin="28" yMin="-9" xMax="553" yMax="880">
      <component glyphName="G" x="0" y="0" flags="0x1000"/>
      <component glyphName="tilde" x="132" y="179" flags="0x1000"/>
    </TTGlyph>
    <TTGlyph name="H" xMin="78" yMin="0" xMax="618" yMax="644">
      <contour>
        <pt x="616" y="0" on="1"/>
        <pt x="479" y="0" on="1"/>
        <pt x="487" y="192" on="1"/>
        <pt x="486" y="267" on="1"/>
        <pt x="340" y="269" on="1"/>
        <pt x="209" y="266" on="1"/>
        <pt x="208" y="204" on="1"/>
        <pt x="214" y="0" on="1"/>
        <pt x="78" y="0" on="1"/>
        <pt x="85" y="192" on="1"/>
        <pt x="78" y="644" on="1"/>
        <pt x="216" y="644" on="1"/>
        <pt x="211" y="379" on="1"/>
        <pt x="349" y="376" on="1"/>
        <pt x="484" y="379" on="1"/>
        <pt x="479" y="644" on="1"/>
        <pt x="618" y="644" on="1"/>
        <pt x="610" y="204" on="1"/>
      </contour>
    </TTGlyph>
    <TTGlyph name="Hbar" xMin="26" yMin="0" xMax="702" yMax="644">
      <contour>
        <pt x="624" y="204" on="1"/>
        <pt x="629" y="0" on="1"/>
        <pt x="493" y="0" on="1"/>
        <pt x="501" y="192" on="1"/>
        <pt x="500" y="267" on="1"/>
        <pt x="353" y="269" on="1"/>
        <pt x="223" y="266" on="1"/>
        <pt x="222" y="204" on="1"/>
        <pt x="228" y="0" on="1"/>
        <pt x="91" y="0" on="1"/>
        <pt x="99" y="192" on="1"/>
        <pt x="94" y="475" on="1"/>
        <pt x="32" y="475" on="1"/>
        <pt x="26" y="482" on="1"/>
        <pt x="31" y="553" on="1"/>
        <pt x="93" y="553" on="1"/>
        <pt x="91" y="644" on="1"/>
        <pt x="229" y="644" on="1"/>
        <pt x="228" y="553" on="1"/>
        <pt x="495" y="553" on="1"/>
        <pt x="493" y="644" on="1"/>
        <pt x="631" y="644" on="1"/>
        <pt x="630" y="553" on="1"/>
        <pt x="696" y="553" on="1"/>
        <pt x="702" y="545" on="1"/>
        <pt x="697" y="475" on="1"/>
        <pt x="628" y="475" on="1"/>
      </contour>
      <contour>
        <pt x="226" y="475" on="1"/>
        <pt x="225" y="379" on="1"/>
        <pt x="362" y="376" on="1"/>
        <pt x="498" y="379" on="1"/>
        <pt x="496" y="475" on="1"/>
      </contour>
    </TTGlyph>
    <TTGlyph name="Hcircumflex" xMin="78" yMin="0" xMax="617" yMax="885">
      <contour>
        <pt x="198" y="781" on="1"/>
        <pt x="267" y="827" on="0"/>
        <pt x="332" y="885" on="1"/>
        <pt x="359" y="885" on="1"/>
        <pt x="421" y="830" on="0"/>
        <pt x="493" y="781" on="1"/>
        <pt x="469" y="728" on="1"/>
        <pt x="456" y="728" on="1"/>
        <pt x="425" y="746" on="1"/>
        <pt x="388" y="765" on="0"/>
        <pt x="346" y="791" on="1"/>
        <pt x="304" y="765" on="0"/>
        <pt x="267" y="746" on="1"/>
        <pt x="236" y="728" on="1"/>
        <pt x="223" y="728" on="1"/>
      </contour>
      <contour>
        <pt x="616" y="0" on="1"/>
        <pt x="479" y="0" on="1"/>
        <pt x="487" y="192" on="1"/>
        <pt x="486" y="267" on="1"/>
        <pt x="339" y="269" on="1"/>
        <pt x="210" y="266" on="1"/>
        <pt x="209" y="204" on="1"/>
        <pt x="215" y="0" on="1"/>
        <pt x="78" y="0" on="1"/>
        <pt x="86" y="192" on="1"/>
        <pt x="78" y="644" on="1"/>
        <pt x="216" y="644" on="1"/>
        <pt x="212" y="379" on="1"/>
        <pt x="348" y="376" on="1"/>
        <pt x="484" y="379" on="1"/>
        <pt x="479" y="644" on="1"/>
        <pt x="617" y="644" on="1"/>
        <pt x="610" y="204" on="1"/>
      </contour>
    </TTGlyph>
    <TTGlyph name="I" xMin="78" yMin="0" xMax="216" yMax="644">
      <contour>
        <pt x="214" y="0" on="1"/>
        <pt x="78" y="0" on="1"/>
        <pt x="85" y="192" on="1"/>
        <pt x="78" y="644" on="1"/>
        <pt x="216" y="644" on="1"/>
        <pt x="208" y="204" on="1"/>
      </contour>
    </TTGlyph>
    <TTGlyph name="I.ss01" xMin="-100" yMin="0" xMax="379" yMax="505">
      <contour>
        <pt x="198" y="49" on="1"/>
        <pt x="379" y="49" on="1"/>
        <pt x="379" y="0" on="1"/>
        <pt x="-100" y="0" on="1"/>
        <pt x="-100" y="49" on="1"/>
        <pt x="75" y="49" on="1"/>
        <pt x="79" y="150" on="1"/>
        <pt x="74" y="456" on="1"/>
        <pt x="-100" y="456" on="1"/>
        <pt x="-100" y="505" on="1"/>
        <pt x="379" y="505" on="1"/>
        <pt x="379" y="456" on="1"/>
        <pt x="200" y="456" on="1"/>
        <pt x="194" y="162" on="1"/>
      </contour>
    </TTGlyph>
    <TTGlyph name="IJ" xMin="78" yMin="-106" xMax="553" yMax="644">
      <component glyphName="I" x="0" y="0" flags="0x1000"/>
      <component glyphName="J" x="295" y="0" flags="0x1000"/>
    </TTGlyph>
    <TTGlyph name="Iacute" xMin="42" yMin="0" xMax="296" yMax="889">
      <component glyphName="I" x="0" y="0" flags="0x1000"/>
      <component glyphName="acute.cap" x="-24" y="179" flags="0x1000"/>
    </TTGlyph>
    <TTGlyph name="Iacute_J.loclNLD" xMin="42" yMin="-106" xMax="592" yMax="889">
      <component glyphName="I" x="0" y="0" flags="0x1000"/>
      <component glyphName="acute.cap" x="-24" y="179" flags="0x1000"/>
      <component glyphName="J" x="295" y="0" flags="0x1000"/>
      <component glyphName="acute.cap" x="272" y="179" flags="0x1000"/>
    </TTGlyph>
    <TTGlyph name="Ibreve" xMin="-4" yMin="0" xMax="297" yMax="869">
      <component glyphName="I" x="0" y="0" flags="0x1000"/>
      <component glyphName="breve.cap" x="-48" y="179" flags="0x1000"/>
    </TTGlyph>
    <TTGlyph name="Icaron" xMin="0" yMin="0" xMax="295" yMax="875">
      <component glyphName="I" x="0" y="0" flags="0x1000"/>
      <component glyphName="caron.cap" x="-47" y="179" flags="0x1000"/>
    </TTGlyph>
    <TTGlyph name="Icircumflex" xMin="-1" yMin="0" xMax="294" yMax="885">
      <contour>
        <pt x="68" y="827" on="0"/>
        <pt x="133" y="885" on="1"/>
        <pt x="160" y="885" on="1"/>
        <pt x="222" y="830" on="0"/>
        <pt x="294" y="781" on="1"/>
        <pt x="270" y="728" on="1"/>
        <pt x="257" y="728" on="1"/>
        <pt x="226" y="746" on="1"/>
        <pt x="189" y="765" on="0"/>
        <pt x="147" y="791" on="1"/>
        <pt x="105" y="765" on="0"/>
        <pt x="68" y="746" on="1"/>
        <pt x="37" y="728" on="1"/>
        <pt x="24" y="728" on="1"/>
        <pt x="-1" y="781" on="1"/>
      </contour>
      <contour>
        <pt x="215" y="0" on="1"/>
        <pt x="78" y="0" on="1"/>
        <pt x="86" y="192" on="1"/>
        <pt x="78" y="644" on="1"/>
        <pt x="216" y="644" on="1"/>
        <pt x="209" y="204" on="1"/>
      </contour>
    </TTGlyph>
    <TTGlyph name="Idieresis" xMin="8" yMin="0" xMax="288" yMax="862">
      <contour>
        <pt x="103" y="862" on="0"/>
        <pt x="135" y="829" on="0"/>
        <pt x="135" y="800" on="1"/>
        <pt x="135" y="768" on="0"/>
        <pt x="100" y="732" on="0"/>
        <pt x="69" y="732" on="1"/>
        <pt x="40" y="732" on="0"/>
        <pt x="8" y="765" on="0"/>
        <pt x="8" y="795" on="1"/>
        <pt x="8" y="826" on="0"/>
        <pt x="43" y="862" on="0"/>
        <pt x="74" y="862" on="1"/>
      </contour>
      <contour>
        <pt x="256" y="862" on="0"/>
        <pt x="288" y="829" on="0"/>
        <pt x="288" y="800" on="1"/>
        <pt x="288" y="768" on="0"/>
        <pt x="253" y="732" on="0"/>
        <pt x="222" y="732" on="1"/>
        <pt x="193" y="732" on="0"/>
        <pt x="161" y="765" on="0"/>
        <pt x="161" y="795" on="1"/>
        <pt x="161" y="826" on="0"/>
        <pt x="196" y="862" on="0"/>
        <pt x="227" y="862" on="1"/>
      </contour>
      <contour>
        <pt x="215" y="0" on="1"/>
        <pt x="78" y="0" on="1"/>
        <pt x="86" y="192" on="1"/>
        <pt x="78" y="644" on="1"/>
        <pt x="216" y="644" on="1"/>
        <pt x="209" y="204" on="1"/>
      </contour>
    </TTGlyph>
    <TTGlyph name="Idotaccent" xMin="77" yMin="0" xMax="216" yMax="872">
      <contour>
        <pt x="181" y="872" on="0"/>
        <pt x="216" y="836" on="0"/>
        <pt x="216" y="804" on="1"/>
        <pt x="216" y="770" on="0"/>
        <pt x="178" y="730" on="0"/>
        <pt x="145" y="730" on="1"/>
        <pt x="112" y="730" on="0"/>
        <pt x="77" y="766" on="0"/>
        <pt x="77" y="799" on="1"/>
        <pt x="77" y="832" on="0"/>
        <pt x="116" y="872" on="0"/>
        <pt x="150" y="872" on="1"/>
      </contour>
      <contour>
        <pt x="215" y="0" on="1"/>
        <pt x="78" y="0" on="1"/>
        <pt x="86" y="192" on="1"/>
        <pt x="78" y="644" on="1"/>
        <pt x="216" y="644" on="1"/>
        <pt x="209" y="204" on="1"/>
      </contour>
    </TTGlyph>
    <TTGlyph name="Idotbelow" xMin="71" yMin="-194" xMax="216" yMax="644">
      <contour>
        <pt x="215" y="0" on="1"/>
        <pt x="78" y="0" on="1"/>
        <pt x="86" y="192" on="1"/>
        <pt x="78" y="644" on="1"/>
        <pt x="216" y="644" on="1"/>
        <pt x="209" y="204" on="1"/>
      </contour>
      <contour>
        <pt x="175" y="-52" on="0"/>
        <pt x="210" y="-88" on="0"/>
        <pt x="210" y="-120" on="1"/>
        <pt x="210" y="-154" on="0"/>
        <pt x="172" y="-194" on="0"/>
        <pt x="139" y="-194" on="1"/>
        <pt x="106" y="-194" on="0"/>
        <pt x="71" y="-158" on="0"/>
        <pt x="71" y="-125" on="1"/>
        <pt x="71" y="-92" on="0"/>
        <pt x="110" y="-52" on="0"/>
        <pt x="144" y="-52" on="1"/>
      </contour>
    </TTGlyph>
    <TTGlyph name="Igrave" xMin="22" yMin="0" xMax="276" yMax="890">
      <contour>
        <pt x="155" y="838" on="0"/>
        <pt x="276" y="777" on="1"/>
        <pt x="254" y="722" on="1"/>
        <pt x="241" y="718" on="1"/>
        <pt x="118" y="760" on="0"/>
        <pt x="26" y="796" on="1"/>
        <pt x="22" y="808" on="1"/>
        <pt x="56" y="887" on="1"/>
        <pt x="68" y="890" on="1"/>
      </contour>
      <contour>
        <pt x="215" y="0" on="1"/>
        <pt x="78" y="0" on="1"/>
        <pt x="86" y="192" on="1"/>
        <pt x="78" y="644" on="1"/>
        <pt x="216" y="644" on="1"/>
        <pt x="209" y="204" on="1"/>
      </contour>
    </TTGlyph>
    <TTGlyph name="Ihookabove" xMin="33" yMin="0" xMax="218" yMax="919">
      <component glyphName="I" x="0" y="0" flags="0x1000"/>
      <component glyphName="hookabove" x="-48" y="178" flags="0x1000"/>
    </TTGlyph>
    <TTGlyph name="Imacron" xMin="26" yMin="0" xMax="267" yMax="839">
      <component glyphName="I" x="0" y="0" flags="0x1000"/>
      <component glyphName="macron.i" x="-48" y="179" flags="0x1000"/>
    </TTGlyph>
    <TTGlyph name="Iogonek" xMin="34" yMin="-197" xMax="216" yMax="644">
      <contour>
        <pt x="107" y="-58" on="0"/>
        <pt x="107" y="-89" on="1"/>
        <pt x="107" y="-122" on="0"/>
        <pt x="141" y="-122" on="1"/>
        <pt x="169" y="-122" on="0"/>
        <pt x="195" y="-99" on="1"/>
        <pt x="203" y="-99" on="1"/>
        <pt x="213" y="-159" on="1"/>
        <pt x="169" y="-197" on="0"/>
        <pt x="123" y="-197" on="1"/>
        <pt x="82" y="-197" on="0"/>
        <pt x="34" y="-148" on="0"/>
        <pt x="34" y="-109" on="1"/>
        <pt x="34" y="-85" on="0"/>
        <pt x="53" y="-37" on="0"/>
        <pt x="78" y="0" on="1"/>
        <pt x="86" y="192" on="1"/>
        <pt x="78" y="644" on="1"/>
        <pt x="216" y="644" on="1"/>
        <pt x="209" y="204" on="1"/>
        <pt x="215" y="0" on="1"/>
        <pt x="147" y="0" on="1"/>
      </contour>
    </TTGlyph>
    <TTGlyph name="Itilde" xMin="-7" yMin="0" xMax="301" yMax="877">
      <component glyphName="I" x="0" y="0" flags="0x1000"/>
      <component glyphName="tilde.i" x="-47" y="179" flags="0x1000"/>
    </TTGlyph>
    <TTGlyph name="J" xMin="6" yMin="-106" xMax="258" yMax="644">
      <contour>
        <pt x="253" y="121" on="1"/>
        <pt x="253" y="64" on="0"/>
        <pt x="215" y="-16" on="0"/>
        <pt x="130" y="-78" on="0"/>
        <pt x="56" y="-106" on="1"/>
        <pt x="15" y="-34" on="1"/>
        <pt x="15" y="-22" on="1"/>
        <pt x="77" y="10" on="0"/>
        <pt x="128" y="73" on="0"/>
        <pt x="128" y="123" on="1"/>
        <pt x="128" y="199" on="1"/>
        <pt x="122" y="544" on="1"/>
        <pt x="16" y="541" on="1"/>
        <pt x="6" y="551" on="1"/>
        <pt x="13" y="644" on="1"/>
        <pt x="258" y="644" on="1"/>
        <pt x="251" y="212" on="1"/>
      </contour>
    </TTGlyph>
    <TTGlyph name="Jcircumflex" xMin="0" yMin="-106" xMax="295" yMax="885">
      <contour>
        <pt x="223" y="830" on="0"/>
        <pt x="295" y="781" on="1"/>
        <pt x="271" y="728" on="1"/>
        <pt x="258" y="728" on="1"/>
        <pt x="227" y="746" on="1"/>
        <pt x="190" y="765" on="0"/>
        <pt x="148" y="791" on="1"/>
        <pt x="106" y="765" on="0"/>
        <pt x="69" y="746" on="1"/>
        <pt x="38" y="728" on="1"/>
        <pt x="25" y="728" on="1"/>
        <pt x="0" y="781" on="1"/>
        <pt x="69" y="827" on="0"/>
        <pt x="134" y="885" on="1"/>
        <pt x="161" y="885" on="1"/>
      </contour>
      <contour>
        <pt x="250" y="212" on="1"/>
        <pt x="252" y="121" on="1"/>
        <pt x="252" y="64" on="0"/>
        <pt x="215" y="-16" on="0"/>
        <pt x="130" y="-78" on="0"/>
        <pt x="56" y="-106" on="1"/>
        <pt x="15" y="-34" on="1"/>
        <pt x="15" y="-22" on="1"/>
        <pt x="77" y="10" on="0"/>
        <pt x="127" y="73" on="0"/>
        <pt x="127" y="123" on="1"/>
        <pt x="127" y="199" on="1"/>
        <pt x="122" y="544" on="1"/>
        <pt x="15" y="541" on="1"/>
        <pt x="6" y="551" on="1"/>
        <pt x="12" y="644" on="1"/>
        <pt x="258" y="644" on="1"/>
      </contour>
    </TTGlyph>
    <TTGlyph name="K" xMin="77" yMin="-10" xMax="593" yMax="644">
      <contour>
        <pt x="461" y="180" on="0"/>
        <pt x="593" y="28" on="1"/>
        <pt x="591" y="13" on="1"/>
        <pt x="529" y="-2" on="0"/>
        <pt x="458" y="-10" on="1"/>
        <pt x="442" y="-2" on="1"/>
        <pt x="298" y="193" on="0"/>
        <pt x="210" y="331" on="1"/>
        <pt x="208" y="204" on="1"/>
        <pt x="213" y="0" on="1"/>
        <pt x="77" y="0" on="1"/>
        <pt x="85" y="192" on="1"/>
        <pt x="77" y="644" on="1"/>
        <pt x="215" y="644" on="1"/>
        <pt x="210" y="345" on="1"/>
        <pt x="390" y="582" on="1"/>
        <pt x="427" y="644" on="1"/>
        <pt x="574" y="644" on="1"/>
        <pt x="346" y="340" on="1"/>
      </contour>
    </TTGlyph>
    <TTGlyph name="Kcommaaccent" xMin="77" yMin="-272" xMax="593" yMax="644">
      <contour>
        <pt x="461" y="180" on="0"/>
        <pt x="593" y="28" on="1"/>
        <pt x="591" y="13" on="1"/>
        <pt x="530" y="-2" on="0"/>
        <pt x="457" y="-10" on="1"/>
        <pt x="442" y="-2" on="1"/>
        <pt x="298" y="193" on="0"/>
        <pt x="210" y="331" on="1"/>
        <pt x="208" y="204" on="1"/>
        <pt x="214" y="0" on="1"/>
        <pt x="77" y="0" on="1"/>
        <pt x="85" y="192" on="1"/>
        <pt x="77" y="644" on="1"/>
        <pt x="215" y="644" on="1"/>
        <pt x="210" y="345" on="1"/>
        <pt x="390" y="582" on="1"/>
        <pt x="427" y="644" on="1"/>
        <pt x="574" y="644" on="1"/>
        <pt x="346" y="340" on="1"/>
      </contour>
      <contour>
        <pt x="373" y="-71" on="0"/>
        <pt x="373" y="-116" on="1"/>
        <pt x="373" y="-195" on="0"/>
        <pt x="265" y="-272" on="1"/>
        <pt x="226" y="-238" on="1"/>
        <pt x="225" y="-229" on="1"/>
        <pt x="275" y="-188" on="0"/>
        <pt x="275" y="-141" on="1"/>
        <pt x="275" y="-111" on="0"/>
        <pt x="247" y="-87" on="1"/>
        <pt x="247" y="-77" on="1"/>
        <pt x="291" y="-51" on="0"/>
        <pt x="333" y="-40" on="1"/>
      </contour>
    </TTGlyph>
    <TTGlyph name="L" xMin="74" yMin="0" xMax="431" yMax="644">
      <contour>
        <pt x="422" y="0" on="1"/>
        <pt x="74" y="0" on="1"/>
        <pt x="81" y="192" on="1"/>
        <pt x="74" y="644" on="1"/>
        <pt x="212" y="644" on="1"/>
        <pt x="204" y="204" on="1"/>
        <pt x="207" y="112" on="1"/>
        <pt x="423" y="112" on="1"/>
        <pt x="431" y="101" on="1"/>
      </contour>
    </TTGlyph>
    <TTGlyph name="L.ss01" xMin="-100" yMin="0" xMax="500" yMax="505">
      <contour>
        <pt x="191" y="164" on="1"/>
        <pt x="192" y="107" on="1"/>
        <pt x="364" y="107" on="1"/>
        <pt x="371" y="97" on="1"/>
        <pt x="367" y="49" on="1"/>
        <pt x="500" y="49" on="1"/>
        <pt x="500" y="0" on="1"/>
        <pt x="-100" y="0" on="1"/>
        <pt x="-100" y="49" on="1"/>
        <pt x="74" y="49" on="1"/>
        <pt x="78" y="152" on="1"/>
        <pt x="73" y="456" on="1"/>
        <pt x="-100" y="456" on="1"/>
        <pt x="-100" y="505" on="1"/>
        <pt x="500" y="505" on="1"/>
        <pt x="500" y="456" on="1"/>
        <pt x="197" y="456" on="1"/>
      </contour>
    </TTGlyph>
    <TTGlyph name="Lacute" xMin="74" yMin="0" xMax="431" yMax="889">
      <component glyphName="L" x="0" y="0" flags="0x1000"/>
      <component glyphName="acute.cap" x="41" y="179" flags="0x1000"/>
    </TTGlyph>
    <TTGlyph name="Lcaron" xMin="74" yMin="0" xMax="433" yMax="644">
      <contour>
        <pt x="431" y="101" on="1"/>
        <pt x="422" y="0" on="1"/>
        <pt x="74" y="0" on="1"/>
        <pt x="82" y="192" on="1"/>
        <pt x="74" y="644" on="1"/>
        <pt x="212" y="644" on="1"/>
        <pt x="205" y="204" on="1"/>
        <pt x="208" y="112" on="1"/>
        <pt x="423" y="112" on="1"/>
      </contour>
      <contour>
        <pt x="330" y="585" on="1"/>
        <pt x="425" y="591" on="1"/>
        <pt x="433" y="582" on="1"/>
        <pt x="400" y="382" on="1"/>
        <pt x="342" y="373" on="1"/>
        <pt x="332" y="381" on="1"/>
      </contour>
    </TTGlyph>
    <TTGlyph name="Lcommaaccent" xMin="74" yMin="-272" xMax="431" yMax="644">
      <contour>
        <pt x="422" y="0" on="1"/>
        <pt x="74" y="0" on="1"/>
        <pt x="82" y="192" on="1"/>
        <pt x="74" y="644" on="1"/>
        <pt x="212" y="644" on="1"/>
        <pt x="205" y="204" on="1"/>
        <pt x="208" y="112" on="1"/>
        <pt x="423" y="112" on="1"/>
        <pt x="431" y="101" on="1"/>
      </contour>
      <contour>
        <pt x="308" y="-71" on="0"/>
        <pt x="308" y="-116" on="1"/>
        <pt x="308" y="-195" on="0"/>
        <pt x="200" y="-272" on="1"/>
        <pt x="161" y="-238" on="1"/>
        <pt x="160" y="-229" on="1"/>
        <pt x="210" y="-188" on="0"/>
        <pt x="210" y="-141" on="1"/>
        <pt x="210" y="-111" on="0"/>
        <pt x="182" y="-87" on="1"/>
        <pt x="182" y="-77" on="1"/>
        <pt x="226" y="-51" on="0"/>
        <pt x="268" y="-40" on="1"/>
      </contour>
    </TTGlyph>
    <TTGlyph name="Ldot" xMin="74" yMin="0" xMax="434" yMax="644">
      <component glyphName="L" x="0" y="0" flags="0x1000"/>
      <component glyphName="period" x="251" y="325" flags="0x1000"/>
    </TTGlyph>
    <TTGlyph name="Lslash" xMin="0" yMin="0" xMax="448" yMax="644">
      <contour>
        <pt x="439" y="0" on="1"/>
        <pt x="90" y="0" on="1"/>
        <pt x="98" y="192" on="1"/>
        <pt x="97" y="248" on="1"/>
        <pt x="37" y="217" on="1"/>
        <pt x="24" y="223" on="1"/>
        <pt x="0" y="302" on="1"/>
        <pt x="95" y="351" on="1"/>
        <pt x="90" y="644" on="1"/>
        <pt x="229" y="644" on="1"/>
        <pt x="225" y="418" on="1"/>
        <pt x="327" y="470" on="1"/>
        <pt x="340" y="464" on="1"/>
        <pt x="364" y="386" on="1"/>
        <pt x="223" y="313" on="1"/>
        <pt x="221" y="204" on="1"/>
        <pt x="224" y="112" on="1"/>
        <pt x="440" y="112" on="1"/>
        <pt x="448" y="101" on="1"/>
      </contour>
    </TTGlyph>
    <TTGlyph name="M" xMin="44" yMin="0" xMax="749" yMax="644">
      <contour>
        <pt x="629" y="0" on="1"/>
        <pt x="619" y="195" on="1"/>
        <pt x="596" y="443" on="1"/>
        <pt x="586" y="443" on="1"/>
        <pt x="442" y="68" on="1"/>
        <pt x="337" y="68" on="1"/>
        <pt x="206" y="443" on="1"/>
        <pt x="197" y="443" on="1"/>
        <pt x="172" y="208" on="1"/>
        <pt x="158" y="0" on="1"/>
        <pt x="44" y="0" on="1"/>
        <pt x="109" y="644" on="1"/>
        <pt x="265" y="644" on="1"/>
        <pt x="291" y="549" on="1"/>
        <pt x="393" y="244" on="1"/>
        <pt x="402" y="244" on="1"/>
        <pt x="509" y="549" on="1"/>
        <pt x="538" y="644" on="1"/>
        <pt x="691" y="644" on="1"/>
        <pt x="749" y="0" on="1"/>
      </contour>
    </TTGlyph>
    <TTGlyph name="M.ss01" xMin="-100" yMin="0" xMax="786" yMax="505">
      <contour>
        <pt x="617" y="49" on="1"/>
        <pt x="786" y="49" on="1"/>
        <pt x="786" y="0" on="1"/>
        <pt x="-100" y="0" on="1"/>
        <pt x="-100" y="49" on="1"/>
        <pt x="63" y="49" on="1"/>
        <pt x="106" y="456" on="1"/>
        <pt x="-100" y="456" on="1"/>
        <pt x="-100" y="505" on="1"/>
        <pt x="786" y="505" on="1"/>
        <pt x="786" y="456" on="1"/>
        <pt x="580" y="456" on="1"/>
      </contour>
      <contour>
        <pt x="258" y="456" on="1"/>
        <pt x="267" y="427" on="1"/>
        <pt x="337" y="242" on="1"/>
        <pt x="345" y="242" on="1"/>
        <pt x="419" y="425" on="1"/>
        <pt x="430" y="456" on="1"/>
      </contour>
      <contour>
        <pt x="508" y="171" on="1"/>
        <pt x="494" y="326" on="1"/>
        <pt x="486" y="326" on="1"/>
        <pt x="380" y="88" on="1"/>
        <pt x="288" y="88" on="1"/>
        <pt x="192" y="326" on="1"/>
        <pt x="185" y="326" on="1"/>
        <pt x="169" y="180" on="1"/>
        <pt x="162" y="49" on="1"/>
        <pt x="513" y="49" on="1"/>
      </contour>
    </TTGlyph>
    <TTGlyph name="N" xMin="78" yMin="0" xMax="618" yMax="646">
      <contour>
        <pt x="615" y="0" on="1"/>
        <pt x="469" y="0" on="1"/>
        <pt x="207" y="436" on="1"/>
        <pt x="198" y="436" on="1"/>
        <pt x="197" y="222" on="1"/>
        <pt x="202" y="0" on="1"/>
        <pt x="78" y="0" on="1"/>
        <pt x="85" y="190" on="1"/>
        <pt x="79" y="644" on="1"/>
        <pt x="225" y="644" on="1"/>
        <pt x="487" y="208" on="1"/>
        <pt x="496" y="208" on="1"/>
        <pt x="492" y="638" on="1"/>
        <pt x="618" y="646" on="1"/>
        <pt x="610" y="199" on="1"/>
      </contour>
    </TTGlyph>
    <TTGlyph name="Nacute" xMin="78" yMin="0" xMax="618" yMax="889">
      <component glyphName="N" x="0" y="0" flags="0x1000"/>
      <component glyphName="acute.cap" x="175" y="179" flags="0x1000"/>
    </TTGlyph>
    <TTGlyph name="Ncaron" xMin="78" yMin="0" xMax="618" yMax="875">
      <component glyphName="N" x="0" y="0" flags="0x1000"/>
      <component glyphName="caron.cap" x="153" y="179" flags="0x1000"/>
    </TTGlyph>
    <TTGlyph name="Ncommaaccent" xMin="78" yMin="-272" xMax="619" yMax="646">
      <contour>
        <pt x="615" y="0" on="1"/>
        <pt x="469" y="0" on="1"/>
        <pt x="207" y="436" on="1"/>
        <pt x="198" y="436" on="1"/>
        <pt x="197" y="222" on="1"/>
        <pt x="203" y="0" on="1"/>
        <pt x="78" y="0" on="1"/>
        <pt x="86" y="190" on="1"/>
        <pt x="79" y="644" on="1"/>
        <pt x="225" y="644" on="1"/>
        <pt x="487" y="208" on="1"/>
        <pt x="496" y="208" on="1"/>
        <pt x="492" y="638" on="1"/>
        <pt x="619" y="646" on="1"/>
        <pt x="610" y="199" on="1"/>
      </contour>
      <contour>
        <pt x="420" y="-71" on="0"/>
        <pt x="420" y="-116" on="1"/>
        <pt x="420" y="-195" on="0"/>
        <pt x="312" y="-272" on="1"/>
        <pt x="273" y="-238" on="1"/>
        <pt x="272" y="-229" on="1"/>
        <pt x="322" y="-188" on="0"/>
        <pt x="322" y="-141" on="1"/>
        <pt x="322" y="-111" on="0"/>
        <pt x="294" y="-87" on="1"/>
        <pt x="294" y="-77" on="1"/>
        <pt x="338" y="-51" on="0"/>
        <pt x="380" y="-40" on="1"/>
      </contour>
    </TTGlyph>
    <TTGlyph name="Ntilde" xMin="78" yMin="0" xMax="618" yMax="880">
      <component glyphName="N" x="0" y="0" flags="0x1000"/>
      <component glyphName="tilde" x="152" y="179" flags="0x1000"/>
    </TTGlyph>
    <TTGlyph name="O" xMin="28" yMin="-10" xMax="616" yMax="653">
      <contour>
        <pt x="469" y="653" on="0"/>
        <pt x="616" y="488" on="0"/>
        <pt x="616" y="336" on="1"/>
        <pt x="616" y="170" on="0"/>
        <pt x="457" y="-10" on="0"/>
        <pt x="311" y="-10" on="1"/>
        <pt x="175" y="-10" on="0"/>
        <pt x="28" y="159" on="0"/>
        <pt x="28" y="314" on="1"/>
        <pt x="28" y="477" on="0"/>
        <pt x="187" y="653" on="0"/>
        <pt x="333" y="653" on="1"/>
      </contour>
      <contour>
        <pt x="241" y="543" on="0"/>
        <pt x="169" y="444" on="0"/>
        <pt x="169" y="332" on="1"/>
        <pt x="169" y="204" on="0"/>
        <pt x="240" y="95" on="0"/>
        <pt x="322" y="95" on="1"/>
        <pt x="402" y="95" on="0"/>
        <pt x="474" y="195" on="0"/>
        <pt x="474" y="309" on="1"/>
        <pt x="474" y="436" on="0"/>
        <pt x="403" y="543" on="0"/>
        <pt x="321" y="543" on="1"/>
      </contour>
    </TTGlyph>
    <TTGlyph name="OE" xMin="28" yMin="-12" xMax="853" yMax="656">
      <contour>
        <pt x="390" y="656" on="0"/>
        <pt x="454" y="650" on="1"/>
        <pt x="510" y="644" on="0"/>
        <pt x="536" y="644" on="1"/>
        <pt x="845" y="644" on="1"/>
        <pt x="853" y="633" on="1"/>
        <pt x="843" y="532" on="1"/>
        <pt x="693" y="537" on="1"/>
        <pt x="572" y="537" on="1"/>
        <pt x="571" y="381" on="1"/>
        <pt x="678" y="379" on="1"/>
        <pt x="787" y="382" on="1"/>
        <pt x="795" y="372" on="1"/>
        <pt x="785" y="271" on="1"/>
        <pt x="669" y="274" on="1"/>
        <pt x="568" y="273" on="1"/>
        <pt x="568" y="202" on="1"/>
        <pt x="569" y="108" on="1"/>
        <pt x="681" y="106" on="1"/>
        <pt x="842" y="112" on="1"/>
        <pt x="850" y="101" on="1"/>
        <pt x="841" y="0" on="1"/>
        <pt x="536" y="0" on="1"/>
        <pt x="499" y="1" on="0"/>
        <pt x="434" y="-6" on="1"/>
        <pt x="368" y="-12" on="0"/>
        <pt x="332" y="-12" on="1"/>
        <pt x="187" y="-12" on="0"/>
        <pt x="28" y="160" on="0"/>
        <pt x="28" y="315" on="1"/>
        <pt x="28" y="477" on="0"/>
        <pt x="199" y="656" on="0"/>
        <pt x="352" y="656" on="1"/>
      </contour>
      <contour>
        <pt x="251" y="546" on="0"/>
        <pt x="169" y="441" on="0"/>
        <pt x="169" y="325" on="1"/>
        <pt x="169" y="204" on="0"/>
        <pt x="252" y="92" on="0"/>
        <pt x="343" y="92" on="1"/>
        <pt x="404" y="92" on="0"/>
        <pt x="425" y="105" on="1"/>
        <pt x="445" y="115" on="0"/>
        <pt x="444" y="148" on="1"/>
        <pt x="440" y="489" on="1"/>
        <pt x="439" y="523" on="0"/>
        <pt x="427" y="532" on="1"/>
        <pt x="406" y="546" on="0"/>
        <pt x="341" y="546" on="1"/>
      </contour>
    </TTGlyph>
    <TTGlyph name="Oacute" xMin="28" yMin="-10" xMax="616" yMax="889">
      <component glyphName="O" x="0" y="0" flags="0x1000"/>
      <component glyphName="acute.cap" x="151" y="179" flags="0x1000"/>
    </TTGlyph>
    <TTGlyph name="Obreve" xMin="28" yMin="-10" xMax="616" yMax="869">
      <component glyphName="O" x="0" y="0" flags="0x1000"/>
      <component glyphName="breve.cap" x="128" y="179" flags="0x1000"/>
    </TTGlyph>
    <TTGlyph name="Ocaron" xMin="28" yMin="-10" xMax="616" yMax="875">
      <component glyphName="O" x="0" y="0" flags="0x1000"/>
      <component glyphName="caron.cap" x="129" y="179" flags="0x1000"/>
    </TTGlyph>
    <TTGlyph name="Ocircumflex" xMin="28" yMin="-10" xMax="615" yMax="885">
      <contour>
        <pt x="244" y="827" on="0"/>
        <pt x="309" y="885" on="1"/>
        <pt x="336" y="885" on="1"/>
        <pt x="398" y="830" on="0"/>
        <pt x="470" y="781" on="1"/>
        <pt x="446" y="728" on="1"/>
        <pt x="433" y="728" on="1"/>
        <pt x="402" y="746" on="1"/>
        <pt x="365" y="765" on="0"/>
        <pt x="323" y="791" on="1"/>
        <pt x="281" y="765" on="0"/>
        <pt x="244" y="746" on="1"/>
        <pt x="213" y="728" on="1"/>
        <pt x="200" y="728" on="1"/>
        <pt x="175" y="781" on="1"/>
      </contour>
      <contour>
        <pt x="468" y="653" on="0"/>
        <pt x="615" y="488" on="0"/>
        <pt x="615" y="336" on="1"/>
        <pt x="615" y="170" on="0"/>
        <pt x="457" y="-10" on="0"/>
        <pt x="311" y="-10" on="1"/>
        <pt x="175" y="-10" on="0"/>
        <pt x="28" y="159" on="0"/>
        <pt x="28" y="314" on="1"/>
        <pt x="28" y="477" on="0"/>
        <pt x="187" y="653" on="0"/>
        <pt x="333" y="653" on="1"/>
      </contour>
      <contour>
        <pt x="240" y="543" on="0"/>
        <pt x="169" y="444" on="0"/>
        <pt x="169" y="332" on="1"/>
        <pt x="169" y="204" on="0"/>
        <pt x="240" y="95" on="0"/>
        <pt x="322" y="95" on="1"/>
        <pt x="401" y="95" on="0"/>
        <pt x="474" y="195" on="0"/>
        <pt x="474" y="309" on="1"/>
        <pt x="474" y="436" on="0"/>
        <pt x="402" y="543" on="0"/>
        <pt x="320" y="543" on="1"/>
      </contour>
    </TTGlyph>
    <TTGlyph name="Ocircumflexacute" xMin="28" yMin="-10" xMax="616" yMax="995">
      <component glyphName="O" x="0" y="0" flags="0x1000"/>
      <component glyphName="circumflexacute" x="128" y="179" flags="0x1000"/>
    </TTGlyph>
    <TTGlyph name="Ocircumflexdotbelow" xMin="28" yMin="-194" xMax="615" yMax="881">
      <contour>
        <pt x="249" y="823" on="0"/>
        <pt x="314" y="881" on="1"/>
        <pt x="341" y="881" on="1"/>
        <pt x="403" y="826" on="0"/>
        <pt x="475" y="777" on="1"/>
        <pt x="451" y="724" on="1"/>
        <pt x="438" y="724" on="1"/>
        <pt x="407" y="742" on="1"/>
        <pt x="370" y="761" on="0"/>
        <pt x="328" y="787" on="1"/>
        <pt x="286" y="761" on="0"/>
        <pt x="249" y="742" on="1"/>
        <pt x="218" y="724" on="1"/>
        <pt x="205" y="724" on="1"/>
        <pt x="180" y="777" on="1"/>
      </contour>
      <contour>
        <pt x="468" y="653" on="0"/>
        <pt x="615" y="488" on="0"/>
        <pt x="615" y="336" on="1"/>
        <pt x="615" y="170" on="0"/>
        <pt x="457" y="-10" on="0"/>
        <pt x="311" y="-10" on="1"/>
        <pt x="175" y="-10" on="0"/>
        <pt x="28" y="159" on="0"/>
        <pt x="28" y="314" on="1"/>
        <pt x="28" y="477" on="0"/>
        <pt x="187" y="653" on="0"/>
        <pt x="333" y="653" on="1"/>
      </contour>
      <contour>
        <pt x="240" y="543" on="0"/>
        <pt x="169" y="444" on="0"/>
        <pt x="169" y="332" on="1"/>
        <pt x="169" y="204" on="0"/>
        <pt x="240" y="95" on="0"/>
        <pt x="322" y="95" on="1"/>
        <pt x="401" y="95" on="0"/>
        <pt x="474" y="195" on="0"/>
        <pt x="474" y="309" on="1"/>
        <pt x="474" y="436" on="0"/>
        <pt x="402" y="543" on="0"/>
        <pt x="320" y="543" on="1"/>
      </contour>
      <contour>
        <pt x="358" y="-52" on="0"/>
        <pt x="393" y="-88" on="0"/>
        <pt x="393" y="-120" on="1"/>
        <pt x="393" y="-154" on="0"/>
        <pt x="355" y="-194" on="0"/>
        <pt x="322" y="-194" on="1"/>
        <pt x="289" y="-194" on="0"/>
        <pt x="254" y="-158" on="0"/>
        <pt x="254" y="-125" on="1"/>
        <pt x="254" y="-92" on="0"/>
        <pt x="293" y="-52" on="0"/>
        <pt x="327" y="-52" on="1"/>
      </contour>
    </TTGlyph>
    <TTGlyph name="Ocircumflexgrave" xMin="28" yMin="-10" xMax="616" yMax="995">
      <component glyphName="O" x="0" y="0" flags="0x1000"/>
      <component glyphName="circumflexgrave" x="128" y="179" flags="0x1000"/>
    </TTGlyph>
    <TTGlyph name="Ocircumflexhookabove" xMin="28" yMin="-10" xMax="615" yMax="1038">
      <contour>
        <pt x="457" y="1038" on="0"/>
        <pt x="501" y="1000" on="0"/>
        <pt x="501" y="971" on="1"/>
        <pt x="501" y="952" on="0"/>
        <pt x="477" y="917" on="0"/>
        <pt x="447" y="892" on="1"/>
        <pt x="469" y="855" on="1"/>
        <pt x="423" y="828" on="1"/>
        <pt x="383" y="891" on="1"/>
        <pt x="433" y="927" on="0"/>
        <pt x="433" y="958" on="1"/>
        <pt x="433" y="980" on="0"/>
        <pt x="406" y="980" on="1"/>
        <pt x="375" y="980" on="0"/>
        <pt x="346" y="956" on="1"/>
        <pt x="324" y="990" on="1"/>
        <pt x="369" y="1038" on="0"/>
        <pt x="424" y="1038" on="1"/>
      </contour>
      <contour>
        <pt x="243" y="807" on="0"/>
        <pt x="308" y="865" on="1"/>
        <pt x="335" y="865" on="1"/>
        <pt x="397" y="810" on="0"/>
        <pt x="469" y="761" on="1"/>
        <pt x="445" y="708" on="1"/>
        <pt x="432" y="708" on="1"/>
        <pt x="401" y="726" on="1"/>
        <pt x="364" y="745" on="0"/>
        <pt x="322" y="771" on="1"/>
        <pt x="280" y="745" on="0"/>
        <pt x="243" y="726" on="1"/>
        <pt x="212" y="708" on="1"/>
        <pt x="199" y="708" on="1"/>
        <pt x="174" y="761" on="1"/>
      </contour>
      <contour>
        <pt x="468" y="653" on="0"/>
        <pt x="615" y="488" on="0"/>
        <pt x="615" y="336" on="1"/>
        <pt x="615" y="170" on="0"/>
        <pt x="457" y="-10" on="0"/>
        <pt x="311" y="-10" on="1"/>
        <pt x="175" y="-10" on="0"/>
        <pt x="28" y="159" on="0"/>
        <pt x="28" y="314" on="1"/>
        <pt x="28" y="477" on="0"/>
        <pt x="187" y="653" on="0"/>
        <pt x="333" y="653" on="1"/>
      </contour>
      <contour>
        <pt x="240" y="543" on="0"/>
        <pt x="169" y="444" on="0"/>
        <pt x="169" y="332" on="1"/>
        <pt x="169" y="204" on="0"/>
        <pt x="240" y="95" on="0"/>
        <pt x="322" y="95" on="1"/>
        <pt x="401" y="95" on="0"/>
        <pt x="474" y="195" on="0"/>
        <pt x="474" y="309" on="1"/>
        <pt x="474" y="436" on="0"/>
        <pt x="402" y="543" on="0"/>
        <pt x="320" y="543" on="1"/>
      </contour>
    </TTGlyph>
    <TTGlyph name="Ocircumflextilde" xMin="28" yMin="-10" xMax="615" yMax="1022">
      <contour>
        <pt x="488" y="974" on="1"/>
        <pt x="423" y="890" on="1"/>
        <pt x="412" y="885" on="1"/>
        <pt x="387" y="889" on="0"/>
        <pt x="335" y="904" on="1"/>
        <pt x="282" y="919" on="0"/>
        <pt x="269" y="919" on="1"/>
        <pt x="259" y="919" on="0"/>
        <pt x="239" y="902" on="0"/>
        <pt x="218" y="877" on="0"/>
        <pt x="212" y="870" on="1"/>
        <pt x="201" y="870" on="1"/>
        <pt x="164" y="907" on="1"/>
        <pt x="164" y="918" on="1"/>
        <pt x="229" y="1002" on="1"/>
        <pt x="241" y="1006" on="1"/>
        <pt x="258" y="1004" on="0"/>
        <pt x="318" y="988" on="1"/>
        <pt x="371" y="973" on="0"/>
        <pt x="383" y="973" on="1"/>
        <pt x="394" y="973" on="0"/>
        <pt x="416" y="992" on="0"/>
        <pt x="438" y="1018" on="0"/>
        <pt x="441" y="1022" on="1"/>
        <pt x="452" y="1022" on="1"/>
        <pt x="488" y="985" on="1"/>
      </contour>
      <contour>
        <pt x="243" y="807" on="0"/>
        <pt x="308" y="865" on="1"/>
        <pt x="335" y="865" on="1"/>
        <pt x="397" y="810" on="0"/>
        <pt x="469" y="761" on="1"/>
        <pt x="445" y="708" on="1"/>
        <pt x="432" y="708" on="1"/>
        <pt x="401" y="726" on="1"/>
        <pt x="364" y="745" on="0"/>
        <pt x="322" y="771" on="1"/>
        <pt x="280" y="745" on="0"/>
        <pt x="243" y="726" on="1"/>
        <pt x="212" y="708" on="1"/>
        <pt x="199" y="708" on="1"/>
        <pt x="174" y="761" on="1"/>
      </contour>
      <contour>
        <pt x="468" y="653" on="0"/>
        <pt x="615" y="488" on="0"/>
        <pt x="615" y="336" on="1"/>
        <pt x="615" y="170" on="0"/>
        <pt x="457" y="-10" on="0"/>
        <pt x="311" y="-10" on="1"/>
        <pt x="175" y="-10" on="0"/>
        <pt x="28" y="159" on="0"/>
        <pt x="28" y="314" on="1"/>
        <pt x="28" y="477" on="0"/>
        <pt x="187" y="653" on="0"/>
        <pt x="333" y="653" on="1"/>
      </contour>
      <contour>
        <pt x="240" y="543" on="0"/>
        <pt x="169" y="444" on="0"/>
        <pt x="169" y="332" on="1"/>
        <pt x="169" y="204" on="0"/>
        <pt x="240" y="95" on="0"/>
        <pt x="322" y="95" on="1"/>
        <pt x="401" y="95" on="0"/>
        <pt x="474" y="195" on="0"/>
        <pt x="474" y="309" on="1"/>
        <pt x="474" y="436" on="0"/>
        <pt x="402" y="543" on="0"/>
        <pt x="320" y="543" on="1"/>
      </contour>
    </TTGlyph>
    <TTGlyph name="Odieresis" xMin="28" yMin="-10" xMax="615" yMax="862">
      <contour>
        <pt x="268" y="862" on="0"/>
        <pt x="300" y="829" on="0"/>
        <pt x="300" y="800" on="1"/>
        <pt x="300" y="768" on="0"/>
        <pt x="265" y="732" on="0"/>
        <pt x="234" y="732" on="1"/>
        <pt x="205" y="732" on="0"/>
        <pt x="173" y="765" on="0"/>
        <pt x="173" y="795" on="1"/>
        <pt x="173" y="826" on="0"/>
        <pt x="208" y="862" on="0"/>
        <pt x="239" y="862" on="1"/>
      </contour>
      <contour>
        <pt x="442" y="862" on="0"/>
        <pt x="474" y="829" on="0"/>
        <pt x="474" y="800" on="1"/>
        <pt x="474" y="768" on="0"/>
        <pt x="439" y="732" on="0"/>
        <pt x="408" y="732" on="1"/>
        <pt x="379" y="732" on="0"/>
        <pt x="347" y="765" on="0"/>
        <pt x="347" y="795" on="1"/>
        <pt x="347" y="826" on="0"/>
        <pt x="382" y="862" on="0"/>
        <pt x="413" y="862" on="1"/>
      </contour>
      <contour>
        <pt x="468" y="653" on="0"/>
        <pt x="615" y="488" on="0"/>
        <pt x="615" y="336" on="1"/>
        <pt x="615" y="170" on="0"/>
        <pt x="457" y="-10" on="0"/>
        <pt x="311" y="-10" on="1"/>
        <pt x="175" y="-10" on="0"/>
        <pt x="28" y="159" on="0"/>
        <pt x="28" y="314" on="1"/>
        <pt x="28" y="477" on="0"/>
        <pt x="187" y="653" on="0"/>
        <pt x="333" y="653" on="1"/>
      </contour>
      <contour>
        <pt x="240" y="543" on="0"/>
        <pt x="169" y="444" on="0"/>
        <pt x="169" y="332" on="1"/>
        <pt x="169" y="204" on="0"/>
        <pt x="240" y="95" on="0"/>
        <pt x="322" y="95" on="1"/>
        <pt x="401" y="95" on="0"/>
        <pt x="474" y="195" on="0"/>
        <pt x="474" y="309" on="1"/>
        <pt x="474" y="436" on="0"/>
        <pt x="402" y="543" on="0"/>
        <pt x="320" y="543" on="1"/>
      </contour>
    </TTGlyph>
    <TTGlyph name="Odotbelow" xMin="28" yMin="-194" xMax="615" yMax="653">
      <contour>
        <pt x="468" y="653" on="0"/>
        <pt x="615" y="488" on="0"/>
        <pt x="615" y="336" on="1"/>
        <pt x="615" y="170" on="0"/>
        <pt x="457" y="-10" on="0"/>
        <pt x="311" y="-10" on="1"/>
        <pt x="175" y="-10" on="0"/>
        <pt x="28" y="159" on="0"/>
        <pt x="28" y="314" on="1"/>
        <pt x="28" y="477" on="0"/>
        <pt x="187" y="653" on="0"/>
        <pt x="333" y="653" on="1"/>
      </contour>
      <contour>
        <pt x="240" y="543" on="0"/>
        <pt x="169" y="444" on="0"/>
        <pt x="169" y="332" on="1"/>
        <pt x="169" y="204" on="0"/>
        <pt x="240" y="95" on="0"/>
        <pt x="322" y="95" on="1"/>
        <pt x="401" y="95" on="0"/>
        <pt x="474" y="195" on="0"/>
        <pt x="474" y="309" on="1"/>
        <pt x="474" y="436" on="0"/>
        <pt x="402" y="543" on="0"/>
        <pt x="320" y="543" on="1"/>
      </contour>
      <contour>
        <pt x="358" y="-52" on="0"/>
        <pt x="393" y="-88" on="0"/>
        <pt x="393" y="-120" on="1"/>
        <pt x="393" y="-154" on="0"/>
        <pt x="355" y="-194" on="0"/>
        <pt x="322" y="-194" on="1"/>
        <pt x="289" y="-194" on="0"/>
        <pt x="254" y="-158" on="0"/>
        <pt x="254" y="-125" on="1"/>
        <pt x="254" y="-92" on="0"/>
        <pt x="293" y="-52" on="0"/>
        <pt x="327" y="-52" on="1"/>
      </contour>
    </TTGlyph>
    <TTGlyph name="Ograve" xMin="28" yMin="-10" xMax="615" yMax="890">
      <contour>
        <pt x="331" y="838" on="0"/>
        <pt x="452" y="777" on="1"/>
        <pt x="430" y="722" on="1"/>
        <pt x="417" y="718" on="1"/>
        <pt x="294" y="760" on="0"/>
        <pt x="202" y="796" on="1"/>
        <pt x="198" y="808" on="1"/>
        <pt x="232" y="887" on="1"/>
        <pt x="244" y="890" on="1"/>
      </contour>
      <contour>
        <pt x="468" y="653" on="0"/>
        <pt x="615" y="488" on="0"/>
        <pt x="615" y="336" on="1"/>
        <pt x="615" y="170" on="0"/>
        <pt x="457" y="-10" on="0"/>
        <pt x="311" y="-10" on="1"/>
        <pt x="175" y="-10" on="0"/>
        <pt x="28" y="159" on="0"/>
        <pt x="28" y="314" on="1"/>
        <pt x="28" y="477" on="0"/>
        <pt x="187" y="653" on="0"/>
        <pt x="333" y="653" on="1"/>
      </contour>
      <contour>
        <pt x="240" y="543" on="0"/>
        <pt x="169" y="444" on="0"/>
        <pt x="169" y="332" on="1"/>
        <pt x="169" y="204" on="0"/>
        <pt x="240" y="95" on="0"/>
        <pt x="322" y="95" on="1"/>
        <pt x="401" y="95" on="0"/>
        <pt x="474" y="195" on="0"/>
        <pt x="474" y="309" on="1"/>
        <pt x="474" y="436" on="0"/>
        <pt x="402" y="543" on="0"/>
        <pt x="320" y="543" on="1"/>
      </contour>
    </TTGlyph>
    <TTGlyph name="Ohm" xMin="25" yMin="-6" xMax="728" yMax="653">
      <component glyphName="Omega" x="0" y="0" flags="0x1000"/>
    </TTGlyph>
    <TTGlyph name="Ohookabove" xMin="28" yMin="-10" xMax="616" yMax="919">
      <component glyphName="O" x="0" y="0" flags="0x1000"/>
      <component glyphName="hookabove" x="127" y="178" flags="0x1000"/>
    </TTGlyph>
    <TTGlyph name="Ohorn" xMin="28" yMin="-10" xMax="661" yMax="776">
      <contour>
        <pt x="621" y="776" on="0"/>
        <pt x="661" y="722" on="0"/>
        <pt x="661" y="682" on="1"/>
        <pt x="661" y="633" on="0"/>
        <pt x="595" y="568" on="0"/>
        <pt x="544" y="561" on="1"/>
        <pt x="616" y="479" on="0"/>
        <pt x="616" y="332" on="1"/>
        <pt x="616" y="172" on="0"/>
        <pt x="456" y="-10" on="0"/>
        <pt x="313" y="-10" on="1"/>
        <pt x="176" y="-10" on="0"/>
        <pt x="28" y="159" on="0"/>
        <pt x="28" y="313" on="1"/>
        <pt x="28" y="420" on="0"/>
        <pt x="100" y="573" on="0"/>
        <pt x="232" y="653" on="0"/>
        <pt x="322" y="653" on="1"/>
        <pt x="374" y="653" on="0"/>
        <pt x="441" y="633" on="1"/>
        <pt x="477" y="621" on="0"/>
        <pt x="497" y="621" on="1"/>
        <pt x="524" y="621" on="0"/>
        <pt x="557" y="650" on="0"/>
        <pt x="557" y="674" on="1"/>
        <pt x="557" y="711" on="0"/>
        <pt x="526" y="740" on="1"/>
        <pt x="529" y="750" on="1"/>
        <pt x="562" y="776" on="0"/>
        <pt x="593" y="776" on="1"/>
      </contour>
      <contour>
        <pt x="240" y="543" on="0"/>
        <pt x="169" y="443" on="0"/>
        <pt x="169" y="327" on="1"/>
        <pt x="169" y="203" on="0"/>
        <pt x="241" y="95" on="0"/>
        <pt x="323" y="95" on="1"/>
        <pt x="403" y="95" on="0"/>
        <pt x="474" y="197" on="0"/>
        <pt x="474" y="314" on="1"/>
        <pt x="474" y="437" on="0"/>
        <pt x="402" y="543" on="0"/>
        <pt x="320" y="543" on="1"/>
      </contour>
    </TTGlyph>
    <TTGlyph name="Ohornacute" xMin="28" yMin="-10" xMax="661" yMax="889">
      <component glyphName="Ohorn" x="0" y="0" flags="0x1000"/>
      <component glyphName="acute.cap" x="151" y="179" flags="0x1000"/>
    </TTGlyph>
    <TTGlyph name="Ohorndotbelow" xMin="28" yMin="-194" xMax="661" yMax="776">
      <contour>
        <pt x="620" y="776" on="0"/>
        <pt x="661" y="722" on="0"/>
        <pt x="661" y="682" on="1"/>
        <pt x="661" y="633" on="0"/>
        <pt x="595" y="568" on="0"/>
        <pt x="544" y="561" on="1"/>
        <pt x="615" y="478" on="0"/>
        <pt x="615" y="332" on="1"/>
        <pt x="615" y="171" on="0"/>
        <pt x="456" y="-10" on="0"/>
        <pt x="312" y="-10" on="1"/>
        <pt x="175" y="-10" on="0"/>
        <pt x="28" y="159" on="0"/>
        <pt x="28" y="313" on="1"/>
        <pt x="28" y="421" on="0"/>
        <pt x="100" y="574" on="0"/>
        <pt x="232" y="653" on="0"/>
        <pt x="322" y="653" on="1"/>
        <pt x="374" y="653" on="0"/>
        <pt x="441" y="633" on="1"/>
        <pt x="477" y="621" on="0"/>
        <pt x="497" y="621" on="1"/>
        <pt x="524" y="621" on="0"/>
        <pt x="557" y="650" on="0"/>
        <pt x="557" y="674" on="1"/>
        <pt x="557" y="711" on="0"/>
        <pt x="526" y="740" on="1"/>
        <pt x="528" y="750" on="1"/>
        <pt x="563" y="776" on="0"/>
        <pt x="592" y="776" on="1"/>
      </contour>
      <contour>
        <pt x="239" y="543" on="0"/>
        <pt x="169" y="443" on="0"/>
        <pt x="169" y="327" on="1"/>
        <pt x="169" y="203" on="0"/>
        <pt x="241" y="95" on="0"/>
        <pt x="323" y="95" on="1"/>
        <pt x="403" y="95" on="0"/>
        <pt x="474" y="197" on="0"/>
        <pt x="474" y="314" on="1"/>
        <pt x="474" y="437" on="0"/>
        <pt x="402" y="543" on="0"/>
        <pt x="320" y="543" on="1"/>
      </contour>
      <contour>
        <pt x="358" y="-52" on="0"/>
        <pt x="393" y="-88" on="0"/>
        <pt x="393" y="-120" on="1"/>
        <pt x="393" y="-154" on="0"/>
        <pt x="355" y="-194" on="0"/>
        <pt x="322" y="-194" on="1"/>
        <pt x="289" y="-194" on="0"/>
        <pt x="254" y="-158" on="0"/>
        <pt x="254" y="-125" on="1"/>
        <pt x="254" y="-92" on="0"/>
        <pt x="293" y="-52" on="0"/>
        <pt x="327" y="-52" on="1"/>
      </contour>
    </TTGlyph>
    <TTGlyph name="Ohorngrave" xMin="28" yMin="-10" xMax="661" yMax="890">
      <contour>
        <pt x="331" y="838" on="0"/>
        <pt x="452" y="777" on="1"/>
        <pt x="430" y="722" on="1"/>
        <pt x="417" y="718" on="1"/>
        <pt x="294" y="760" on="0"/>
        <pt x="202" y="796" on="1"/>
        <pt x="198" y="808" on="1"/>
        <pt x="232" y="887" on="1"/>
        <pt x="244" y="890" on="1"/>
      </contour>
      <contour>
        <pt x="620" y="776" on="0"/>
        <pt x="661" y="722" on="0"/>
        <pt x="661" y="682" on="1"/>
        <pt x="661" y="633" on="0"/>
        <pt x="595" y="568" on="0"/>
        <pt x="544" y="561" on="1"/>
        <pt x="615" y="478" on="0"/>
        <pt x="615" y="332" on="1"/>
        <pt x="615" y="171" on="0"/>
        <pt x="456" y="-10" on="0"/>
        <pt x="312" y="-10" on="1"/>
        <pt x="175" y="-10" on="0"/>
        <pt x="28" y="159" on="0"/>
        <pt x="28" y="313" on="1"/>
        <pt x="28" y="421" on="0"/>
        <pt x="100" y="574" on="0"/>
        <pt x="232" y="653" on="0"/>
        <pt x="322" y="653" on="1"/>
        <pt x="374" y="653" on="0"/>
        <pt x="441" y="633" on="1"/>
        <pt x="477" y="621" on="0"/>
        <pt x="497" y="621" on="1"/>
        <pt x="524" y="621" on="0"/>
        <pt x="557" y="650" on="0"/>
        <pt x="557" y="674" on="1"/>
        <pt x="557" y="711" on="0"/>
        <pt x="526" y="740" on="1"/>
        <pt x="528" y="750" on="1"/>
        <pt x="563" y="776" on="0"/>
        <pt x="592" y="776" on="1"/>
      </contour>
      <contour>
        <pt x="239" y="543" on="0"/>
        <pt x="169" y="443" on="0"/>
        <pt x="169" y="327" on="1"/>
        <pt x="169" y="203" on="0"/>
        <pt x="241" y="95" on="0"/>
        <pt x="323" y="95" on="1"/>
        <pt x="403" y="95" on="0"/>
        <pt x="474" y="197" on="0"/>
        <pt x="474" y="314" on="1"/>
        <pt x="474" y="437" on="0"/>
        <pt x="402" y="543" on="0"/>
        <pt x="320" y="543" on="1"/>
      </contour>
    </TTGlyph>
    <TTGlyph name="Ohornhookabove" xMin="28" yMin="-10" xMax="661" yMax="919">
      <component glyphName="Ohorn" x="0" y="0" flags="0x1000"/>
      <component glyphName="hookabove" x="127" y="178" flags="0x1000"/>
    </TTGlyph>
    <TTGlyph name="Ohorntilde" xMin="28" yMin="-10" xMax="661" yMax="880">
      <component glyphName="Ohorn" x="0" y="0" flags="0x1000"/>
      <component glyphName="tilde" x="128" y="179" flags="0x1000"/>
    </TTGlyph>
    <TTGlyph name="Ohungarumlaut" xMin="28" yMin="-10" xMax="616" yMax="885">
      <component glyphName="O" x="0" y="0" flags="0x1000"/>
      <component glyphName="hungarumlaut.cap" x="152" y="179" flags="0x1000"/>
    </TTGlyph>
    <TTGlyph name="Omacron" xMin="28" yMin="-10" xMax="616" yMax="839">
      <component glyphName="O" x="0" y="0" flags="0x1000"/>
      <component glyphName="macron" x="128" y="179" flags="0x1000"/>
    </TTGlyph>
    <TTGlyph name="Omega" xMin="25" yMin="-6" xMax="728" yMax="653">
      <contour>
        <pt x="477" y="653" on="0"/>
        <pt x="607" y="581" on="0"/>
        <pt x="672" y="457" on="0"/>
        <pt x="672" y="378" on="1"/>
        <pt x="672" y="305" on="0"/>
        <pt x="614" y="165" on="0"/>
        <pt x="557" y="106" on="1"/>
        <pt x="559" y="102" on="1"/>
        <pt x="637" y="102" on="1"/>
        <pt x="721" y="110" on="1"/>
        <pt x="728" y="102" on="1"/>
        <pt x="713" y="-6" on="1"/>
        <pt x="598" y="0" on="1"/>
        <pt x="457" y="0" on="1"/>
        <pt x="419" y="-2" on="1"/>
        <pt x="413" y="3" on="1"/>
        <pt x="413" y="89" on="1"/>
        <pt x="530" y="193" on="0"/>
        <pt x="530" y="355" on="1"/>
        <pt x="530" y="444" on="0"/>
        <pt x="453" y="544" on="0"/>
        <pt x="375" y="544" on="1"/>
        <pt x="297" y="544" on="0"/>
        <pt x="223" y="447" on="0"/>
        <pt x="223" y="360" on="1"/>
        <pt x="223" y="196" on="0"/>
        <pt x="339" y="89" on="1"/>
        <pt x="339" y="3" on="1"/>
        <pt x="333" y="-2" on="1"/>
        <pt x="295" y="0" on="1"/>
        <pt x="131" y="0" on="1"/>
        <pt x="32" y="-4" on="1"/>
        <pt x="25" y="5" on="1"/>
        <pt x="40" y="109" on="1"/>
        <pt x="132" y="101" on="1"/>
        <pt x="193" y="102" on="1"/>
        <pt x="195" y="106" on="1"/>
        <pt x="81" y="220" on="0"/>
        <pt x="81" y="367" on="1"/>
        <pt x="81" y="448" on="0"/>
        <pt x="151" y="578" on="0"/>
        <pt x="287" y="653" on="0"/>
        <pt x="383" y="653" on="1"/>
      </contour>
    </TTGlyph>
    <TTGlyph name="Oogonek" xMin="28" yMin="-197" xMax="615" yMax="653">
      <contour>
        <pt x="390" y="-65" on="0"/>
        <pt x="390" y="-85" on="1"/>
        <pt x="390" y="-122" on="0"/>
        <pt x="428" y="-122" on="1"/>
        <pt x="458" y="-122" on="0"/>
        <pt x="493" y="-93" on="1"/>
        <pt x="500" y="-93" on="1"/>
        <pt x="511" y="-148" on="1"/>
        <pt x="456" y="-197" on="0"/>
        <pt x="408" y="-197" on="1"/>
        <pt x="367" y="-197" on="0"/>
        <pt x="317" y="-147" on="0"/>
        <pt x="317" y="-109" on="1"/>
        <pt x="317" y="-66" on="0"/>
        <pt x="346" y="-27" on="1"/>
        <pt x="360" y="-7" on="1"/>
        <pt x="336" y="-10" on="0"/>
        <pt x="311" y="-10" on="1"/>
        <pt x="175" y="-10" on="0"/>
        <pt x="28" y="159" on="0"/>
        <pt x="28" y="314" on="1"/>
        <pt x="28" y="477" on="0"/>
        <pt x="187" y="653" on="0"/>
        <pt x="333" y="653" on="1"/>
        <pt x="468" y="653" on="0"/>
        <pt x="615" y="488" on="0"/>
        <pt x="615" y="336" on="1"/>
        <pt x="615" y="212" on="0"/>
        <pt x="525" y="47" on="0"/>
        <pt x="440" y="13" on="1"/>
        <pt x="406" y="-38" on="1"/>
      </contour>
      <contour>
        <pt x="169" y="204" on="0"/>
        <pt x="240" y="95" on="0"/>
        <pt x="322" y="95" on="1"/>
        <pt x="401" y="95" on="0"/>
        <pt x="474" y="195" on="0"/>
        <pt x="474" y="309" on="1"/>
        <pt x="474" y="436" on="0"/>
        <pt x="402" y="543" on="0"/>
        <pt x="320" y="543" on="1"/>
        <pt x="240" y="543" on="0"/>
        <pt x="169" y="444" on="0"/>
        <pt x="169" y="332" on="1"/>
      </contour>
    </TTGlyph>
    <TTGlyph name="Oslash" xMin="28" yMin="-119" xMax="615" yMax="748">
      <contour>
        <pt x="615" y="518" on="0"/>
        <pt x="615" y="336" on="1"/>
        <pt x="615" y="170" on="0"/>
        <pt x="457" y="-10" on="0"/>
        <pt x="311" y="-10" on="1"/>
        <pt x="263" y="-10" on="0"/>
        <pt x="226" y="0" on="1"/>
        <pt x="169" y="-119" on="1"/>
        <pt x="84" y="-88" on="1"/>
        <pt x="78" y="-76" on="1"/>
        <pt x="135" y="43" on="1"/>
        <pt x="28" y="126" on="0"/>
        <pt x="28" y="314" on="1"/>
        <pt x="28" y="477" on="0"/>
        <pt x="187" y="653" on="0"/>
        <pt x="333" y="653" on="1"/>
        <pt x="379" y="653" on="0"/>
        <pt x="421" y="642" on="1"/>
        <pt x="472" y="748" on="1"/>
        <pt x="555" y="718" on="1"/>
        <pt x="563" y="704" on="1"/>
        <pt x="512" y="598" on="1"/>
      </contour>
      <contour>
        <pt x="401" y="95" on="0"/>
        <pt x="474" y="195" on="0"/>
        <pt x="474" y="309" on="1"/>
        <pt x="474" y="436" on="0"/>
        <pt x="402" y="543" on="0"/>
        <pt x="320" y="543" on="1"/>
        <pt x="240" y="543" on="0"/>
        <pt x="169" y="444" on="0"/>
        <pt x="169" y="332" on="1"/>
        <pt x="169" y="204" on="0"/>
        <pt x="240" y="95" on="0"/>
        <pt x="322" y="95" on="1"/>
      </contour>
    </TTGlyph>
    <TTGlyph name="Oslashacute" xMin="28" yMin="-119" xMax="615" yMax="890">
      <component glyphName="Oslash" x="0" y="0" flags="0x1000"/>
      <component glyphName="acute.cap" x="150" y="180" flags="0x1000"/>
    </TTGlyph>
    <TTGlyph name="Otilde" xMin="28" yMin="-10" xMax="616" yMax="880">
      <component glyphName="O" x="0" y="0" flags="0x1000"/>
      <component glyphName="tilde" x="128" y="179" flags="0x1000"/>
    </TTGlyph>
    <TTGlyph name="P" xMin="78" yMin="0" xMax="535" yMax="645">
      <contour>
        <pt x="426" y="645" on="0"/>
        <pt x="535" y="543" on="0"/>
        <pt x="535" y="448" on="1"/>
        <pt x="535" y="375" on="0"/>
        <pt x="471" y="266" on="0"/>
        <pt x="352" y="206" on="0"/>
        <pt x="272" y="206" on="1"/>
        <pt x="208" y="206" on="1"/>
        <pt x="208" y="204" on="1"/>
        <pt x="214" y="0" on="1"/>
        <pt x="78" y="0" on="1"/>
        <pt x="85" y="192" on="1"/>
        <pt x="78" y="644" on="1"/>
        <pt x="325" y="645" on="1"/>
      </contour>
      <contour>
        <pt x="394" y="331" on="0"/>
        <pt x="394" y="436" on="1"/>
        <pt x="394" y="490" on="0"/>
        <pt x="339" y="543" on="0"/>
        <pt x="282" y="545" on="1"/>
        <pt x="214" y="541" on="1"/>
        <pt x="210" y="309" on="1"/>
        <pt x="302" y="305" on="1"/>
      </contour>
    </TTGlyph>
    <TTGlyph name="Q" xMin="28" yMin="-201" xMax="736" yMax="653">
      <contour>
        <pt x="709" y="-163" on="0"/>
        <pt x="673" y="-197" on="1"/>
        <pt x="662" y="-201" on="1"/>
        <pt x="476" y="-132" on="0"/>
        <pt x="333" y="-10" on="1"/>
        <pt x="312" y="-10" on="1"/>
        <pt x="176" y="-10" on="0"/>
        <pt x="28" y="159" on="0"/>
        <pt x="28" y="314" on="1"/>
        <pt x="28" y="477" on="0"/>
        <pt x="187" y="653" on="0"/>
        <pt x="333" y="653" on="1"/>
        <pt x="469" y="653" on="0"/>
        <pt x="616" y="488" on="0"/>
        <pt x="616" y="334" on="1"/>
        <pt x="616" y="218" on="0"/>
        <pt x="532" y="56" on="0"/>
        <pt x="454" y="19" on="1"/>
        <pt x="585" y="-61" on="0"/>
        <pt x="731" y="-96" on="1"/>
        <pt x="736" y="-110" on="1"/>
      </contour>
      <contour>
        <pt x="169" y="203" on="0"/>
        <pt x="241" y="95" on="0"/>
        <pt x="323" y="95" on="1"/>
        <pt x="401" y="95" on="0"/>
        <pt x="474" y="197" on="0"/>
        <pt x="474" y="311" on="1"/>
        <pt x="474" y="436" on="0"/>
        <pt x="402" y="543" on="0"/>
        <pt x="320" y="543" on="1"/>
        <pt x="240" y="543" on="0"/>
        <pt x="169" y="443" on="0"/>
        <pt x="169" y="329" on="1"/>
      </contour>
    </TTGlyph>
    <TTGlyph name="R" xMin="78" yMin="-10" xMax="571" yMax="645">
      <contour>
        <pt x="494" y="132" on="0"/>
        <pt x="571" y="32" on="1"/>
        <pt x="569" y="17" on="1"/>
        <pt x="504" y="-6" on="0"/>
        <pt x="436" y="-10" on="1"/>
        <pt x="422" y="1" on="1"/>
        <pt x="350" y="125" on="0"/>
        <pt x="305" y="217" on="1"/>
        <pt x="208" y="217" on="1"/>
        <pt x="208" y="204" on="1"/>
        <pt x="214" y="0" on="1"/>
        <pt x="78" y="0" on="1"/>
        <pt x="85" y="192" on="1"/>
        <pt x="78" y="644" on="1"/>
        <pt x="325" y="645" on="1"/>
        <pt x="426" y="645" on="0"/>
        <pt x="536" y="546" on="0"/>
        <pt x="536" y="454" on="1"/>
        <pt x="536" y="392" on="0"/>
        <pt x="473" y="289" on="0"/>
        <pt x="416" y="256" on="1"/>
      </contour>
      <contour>
        <pt x="309" y="318" on="1"/>
        <pt x="394" y="347" on="0"/>
        <pt x="394" y="441" on="1"/>
        <pt x="394" y="492" on="0"/>
        <pt x="339" y="543" on="0"/>
        <pt x="282" y="545" on="1"/>
        <pt x="214" y="541" on="1"/>
        <pt x="210" y="322" on="1"/>
      </contour>
    </TTGlyph>
    <TTGlyph name="Racute" xMin="78" yMin="-10" xMax="571" yMax="903">
      <component glyphName="R" x="0" y="0" flags="0x1000"/>
      <component glyphName="acute" x="125" y="179" flags="0x1000"/>
    </TTGlyph>
    <TTGlyph name="Rcaron" xMin="78" yMin="-10" xMax="571" yMax="895">
      <component glyphName="R" x="0" y="0" flags="0x1000"/>
      <component glyphName="caron" x="102" y="179" flags="0x1000"/>
    </TTGlyph>
    <TTGlyph name="Rcommaaccent" xMin="78" yMin="-272" xMax="570" yMax="645">
      <contour>
        <pt x="504" y="118" on="0"/>
        <pt x="570" y="32" on="1"/>
        <pt x="568" y="17" on="1"/>
        <pt x="503" y="-6" on="0"/>
        <pt x="436" y="-10" on="1"/>
        <pt x="421" y="1" on="1"/>
        <pt x="346" y="134" on="0"/>
        <pt x="304" y="217" on="1"/>
        <pt x="209" y="217" on="1"/>
        <pt x="209" y="204" on="1"/>
        <pt x="215" y="0" on="1"/>
        <pt x="78" y="0" on="1"/>
        <pt x="86" y="192" on="1"/>
        <pt x="78" y="644" on="1"/>
        <pt x="325" y="645" on="1"/>
        <pt x="426" y="645" on="0"/>
        <pt x="536" y="546" on="0"/>
        <pt x="536" y="454" on="1"/>
        <pt x="536" y="392" on="0"/>
        <pt x="472" y="289" on="0"/>
        <pt x="415" y="256" on="1"/>
      </contour>
      <contour>
        <pt x="309" y="318" on="1"/>
        <pt x="394" y="347" on="0"/>
        <pt x="394" y="441" on="1"/>
        <pt x="394" y="492" on="0"/>
        <pt x="339" y="543" on="0"/>
        <pt x="282" y="545" on="1"/>
        <pt x="214" y="541" on="1"/>
        <pt x="211" y="322" on="1"/>
      </contour>
      <contour>
        <pt x="370" y="-71" on="0"/>
        <pt x="370" y="-116" on="1"/>
        <pt x="370" y="-195" on="0"/>
        <pt x="262" y="-272" on="1"/>
        <pt x="223" y="-238" on="1"/>
        <pt x="222" y="-229" on="1"/>
        <pt x="272" y="-188" on="0"/>
        <pt x="272" y="-141" on="1"/>
        <pt x="272" y="-111" on="0"/>
        <pt x="244" y="-87" on="1"/>
        <pt x="244" y="-77" on="1"/>
        <pt x="288" y="-51" on="0"/>
        <pt x="330" y="-40" on="1"/>
      </contour>
    </TTGlyph>
    <TTGlyph name="S" xMin="31" yMin="-9" xMax="464" yMax="652">
      <contour>
        <pt x="367" y="652" on="0"/>
        <pt x="448" y="619" on="1"/>
        <pt x="426" y="502" on="1"/>
        <pt x="406" y="494" on="1"/>
        <pt x="372" y="518" on="0"/>
        <pt x="299" y="546" on="0"/>
        <pt x="269" y="546" on="1"/>
        <pt x="229" y="546" on="0"/>
        <pt x="181" y="503" on="0"/>
        <pt x="181" y="475" on="1"/>
        <pt x="181" y="446" on="0"/>
        <pt x="234" y="406" on="0"/>
        <pt x="291" y="379" on="1"/>
        <pt x="346" y="354" on="0"/>
        <pt x="415" y="311" on="0"/>
        <pt x="464" y="241" on="0"/>
        <pt x="464" y="190" on="1"/>
        <pt x="464" y="135" on="0"/>
        <pt x="404" y="44" on="0"/>
        <pt x="294" y="-9" on="0"/>
        <pt x="222" y="-9" on="1"/>
        <pt x="127" y="-9" on="0"/>
        <pt x="31" y="32" on="1"/>
        <pt x="50" y="158" on="1"/>
        <pt x="65" y="166" on="1"/>
        <pt x="105" y="131" on="0"/>
        <pt x="200" y="94" on="0"/>
        <pt x="237" y="94" on="1"/>
        <pt x="281" y="94" on="0"/>
        <pt x="330" y="137" on="0"/>
        <pt x="330" y="167" on="1"/>
        <pt x="330" y="199" on="0"/>
        <pt x="277" y="239" on="0"/>
        <pt x="218" y="267" on="1"/>
        <pt x="164" y="291" on="0"/>
        <pt x="96" y="333" on="0"/>
        <pt x="48" y="403" on="0"/>
        <pt x="48" y="453" on="1"/>
        <pt x="48" y="509" on="0"/>
        <pt x="108" y="600" on="0"/>
        <pt x="216" y="652" on="0"/>
        <pt x="285" y="652" on="1"/>
      </contour>
    </TTGlyph>
    <TTGlyph name="Sacute" xMin="31" yMin="-9" xMax="464" yMax="903">
      <component glyphName="S" x="0" y="0" flags="0x1000"/>
      <component glyphName="acute" x="89" y="179" flags="0x1000"/>
    </TTGlyph>
    <TTGlyph name="Scaron" xMin="31" yMin="-9" xMax="464" yMax="895">
      <component glyphName="S" x="0" y="0" flags="0x1000"/>
      <component glyphName="caron" x="67" y="179" flags="0x1000"/>
    </TTGlyph>
    <TTGlyph name="Scedilla" xMin="31" yMin="-201" xMax="464" yMax="652">
      <contour>
        <pt x="464" y="116" on="0"/>
        <pt x="359" y="8" on="0"/>
        <pt x="271" y="-5" on="1"/>
        <pt x="261" y="-48" on="1"/>
        <pt x="295" y="-67" on="1"/>
        <pt x="336" y="-89" on="0"/>
        <pt x="336" y="-126" on="1"/>
        <pt x="336" y="-159" on="0"/>
        <pt x="284" y="-201" on="0"/>
        <pt x="242" y="-201" on="1"/>
        <pt x="197" y="-201" on="0"/>
        <pt x="160" y="-173" on="1"/>
        <pt x="169" y="-117" on="1"/>
        <pt x="175" y="-114" on="1"/>
        <pt x="205" y="-144" on="0"/>
        <pt x="234" y="-144" on="1"/>
        <pt x="258" y="-144" on="0"/>
        <pt x="258" y="-123" on="1"/>
        <pt x="258" y="-112" on="0"/>
        <pt x="241" y="-103" on="1"/>
        <pt x="192" y="-75" on="1"/>
        <pt x="207" y="-9" on="1"/>
        <pt x="119" y="-6" on="0"/>
        <pt x="31" y="32" on="1"/>
        <pt x="50" y="158" on="1"/>
        <pt x="65" y="166" on="1"/>
        <pt x="105" y="131" on="0"/>
        <pt x="200" y="94" on="0"/>
        <pt x="237" y="94" on="1"/>
        <pt x="281" y="94" on="0"/>
        <pt x="330" y="137" on="0"/>
        <pt x="330" y="167" on="1"/>
        <pt x="330" y="199" on="0"/>
        <pt x="277" y="239" on="0"/>
        <pt x="218" y="267" on="1"/>
        <pt x="164" y="291" on="0"/>
        <pt x="96" y="333" on="0"/>
        <pt x="48" y="403" on="0"/>
        <pt x="48" y="453" on="1"/>
        <pt x="48" y="509" on="0"/>
        <pt x="108" y="600" on="0"/>
        <pt x="216" y="652" on="0"/>
        <pt x="285" y="652" on="1"/>
        <pt x="367" y="652" on="0"/>
        <pt x="448" y="619" on="1"/>
        <pt x="426" y="502" on="1"/>
        <pt x="406" y="494" on="1"/>
        <pt x="372" y="518" on="0"/>
        <pt x="299" y="546" on="0"/>
        <pt x="269" y="546" on="1"/>
        <pt x="229" y="546" on="0"/>
        <pt x="181" y="503" on="0"/>
        <pt x="181" y="475" on="1"/>
        <pt x="181" y="446" on="0"/>
        <pt x="234" y="406" on="0"/>
        <pt x="291" y="379" on="1"/>
        <pt x="346" y="354" on="0"/>
        <pt x="415" y="311" on="0"/>
        <pt x="464" y="241" on="0"/>
        <pt x="464" y="190" on="1"/>
      </contour>
    </TTGlyph>
    <TTGlyph name="Scircumflex" xMin="31" yMin="-9" xMax="464" yMax="897">
      <contour>
        <pt x="163" y="808" on="0"/>
        <pt x="247" y="897" on="1"/>
        <pt x="276" y="897" on="1"/>
        <pt x="354" y="811" on="0"/>
        <pt x="416" y="756" on="1"/>
        <pt x="383" y="705" on="1"/>
        <pt x="370" y="705" on="1"/>
        <pt x="304" y="757" on="0"/>
        <pt x="261" y="797" on="1"/>
        <pt x="222" y="760" on="0"/>
        <pt x="153" y="705" on="1"/>
        <pt x="140" y="705" on="1"/>
        <pt x="106" y="756" on="1"/>
      </contour>
      <contour>
        <pt x="367" y="652" on="0"/>
        <pt x="448" y="619" on="1"/>
        <pt x="426" y="502" on="1"/>
        <pt x="406" y="494" on="1"/>
        <pt x="372" y="518" on="0"/>
        <pt x="299" y="546" on="0"/>
        <pt x="269" y="546" on="1"/>
        <pt x="229" y="546" on="0"/>
        <pt x="181" y="503" on="0"/>
        <pt x="181" y="475" on="1"/>
        <pt x="181" y="446" on="0"/>
        <pt x="234" y="406" on="0"/>
        <pt x="291" y="379" on="1"/>
        <pt x="346" y="354" on="0"/>
        <pt x="415" y="311" on="0"/>
        <pt x="464" y="241" on="0"/>
        <pt x="464" y="190" on="1"/>
        <pt x="464" y="135" on="0"/>
        <pt x="404" y="44" on="0"/>
        <pt x="294" y="-9" on="0"/>
        <pt x="222" y="-9" on="1"/>
        <pt x="127" y="-9" on="0"/>
        <pt x="31" y="32" on="1"/>
        <pt x="50" y="158" on="1"/>
        <pt x="65" y="166" on="1"/>
        <pt x="105" y="131" on="0"/>
        <pt x="200" y="94" on="0"/>
        <pt x="237" y="94" on="1"/>
        <pt x="281" y="94" on="0"/>
        <pt x="330" y="137" on="0"/>
        <pt x="330" y="167" on="1"/>
        <pt x="330" y="199" on="0"/>
        <pt x="277" y="239" on="0"/>
        <pt x="218" y="267" on="1"/>
        <pt x="164" y="291" on="0"/>
        <pt x="96" y="333" on="0"/>
        <pt x="48" y="403" on="0"/>
        <pt x="48" y="453" on="1"/>
        <pt x="48" y="509" on="0"/>
        <pt x="108" y="600" on="0"/>
        <pt x="216" y="652" on="0"/>
        <pt x="285" y="652" on="1"/>
      </contour>
    </TTGlyph>
    <TTGlyph name="Scommaaccent" xMin="31" yMin="-272" xMax="464" yMax="652">
      <contour>
        <pt x="367" y="652" on="0"/>
        <pt x="448" y="619" on="1"/>
        <pt x="426" y="502" on="1"/>
        <pt x="406" y="494" on="1"/>
        <pt x="372" y="518" on="0"/>
        <pt x="299" y="546" on="0"/>
        <pt x="269" y="546" on="1"/>
        <pt x="229" y="546" on="0"/>
        <pt x="181" y="503" on="0"/>
        <pt x="181" y="475" on="1"/>
        <pt x="181" y="446" on="0"/>
        <pt x="234" y="406" on="0"/>
        <pt x="291" y="379" on="1"/>
        <pt x="346" y="354" on="0"/>
        <pt x="415" y="311" on="0"/>
        <pt x="464" y="241" on="0"/>
        <pt x="464" y="190" on="1"/>
        <pt x="464" y="135" on="0"/>
        <pt x="404" y="44" on="0"/>
        <pt x="294" y="-9" on="0"/>
        <pt x="222" y="-9" on="1"/>
        <pt x="127" y="-9" on="0"/>
        <pt x="31" y="32" on="1"/>
        <pt x="50" y="158" on="1"/>
        <pt x="65" y="166" on="1"/>
        <pt x="105" y="131" on="0"/>
        <pt x="200" y="94" on="0"/>
        <pt x="237" y="94" on="1"/>
        <pt x="281" y="94" on="0"/>
        <pt x="330" y="137" on="0"/>
        <pt x="330" y="167" on="1"/>
        <pt x="330" y="199" on="0"/>
        <pt x="277" y="239" on="0"/>
        <pt x="218" y="267" on="1"/>
        <pt x="164" y="291" on="0"/>
        <pt x="96" y="333" on="0"/>
        <pt x="48" y="403" on="0"/>
        <pt x="48" y="453" on="1"/>
        <pt x="48" y="509" on="0"/>
        <pt x="108" y="600" on="0"/>
        <pt x="216" y="652" on="0"/>
        <pt x="285" y="652" on="1"/>
      </contour>
      <contour>
        <pt x="315" y="-71" on="0"/>
        <pt x="315" y="-116" on="1"/>
        <pt x="315" y="-195" on="0"/>
        <pt x="207" y="-272" on="1"/>
        <pt x="168" y="-238" on="1"/>
        <pt x="167" y="-229" on="1"/>
        <pt x="217" y="-188" on="0"/>
        <pt x="217" y="-141" on="1"/>
        <pt x="217" y="-111" on="0"/>
        <pt x="189" y="-87" on="1"/>
        <pt x="189" y="-77" on="1"/>
        <pt x="233" y="-51" on="0"/>
        <pt x="275" y="-40" on="1"/>
      </contour>
    </TTGlyph>
    <TTGlyph name="T" xMin="15" yMin="0" xMax="489" yMax="644">
      <contour>
        <pt x="481" y="532" on="1"/>
        <pt x="360" y="538" on="1"/>
        <pt x="320" y="538" on="1"/>
        <pt x="315" y="204" on="1"/>
        <pt x="321" y="0" on="1"/>
        <pt x="185" y="0" on="1"/>
        <pt x="192" y="192" on="1"/>
        <pt x="187" y="538" on="1"/>
        <pt x="147" y="538" on="1"/>
        <pt x="24" y="532" on="1"/>
        <pt x="15" y="543" on="1"/>
        <pt x="24" y="644" on="1"/>
        <pt x="481" y="644" on="1"/>
        <pt x="489" y="633" on="1"/>
      </contour>
    </TTGlyph>
    <TTGlyph name="Tbar" xMin="15" yMin="0" xMax="489" yMax="644">
      <contour>
        <pt x="317" y="341" on="1"/>
        <pt x="415" y="341" on="1"/>
        <pt x="424" y="332" on="1"/>
        <pt x="418" y="267" on="1"/>
        <pt x="316" y="267" on="1"/>
        <pt x="315" y="204" on="1"/>
        <pt x="321" y="0" on="1"/>
        <pt x="185" y="0" on="1"/>
        <pt x="193" y="192" on="1"/>
        <pt x="192" y="267" on="1"/>
        <pt x="102" y="267" on="1"/>
        <pt x="93" y="276" on="1"/>
        <pt x="98" y="341" on="1"/>
        <pt x="191" y="341" on="1"/>
        <pt x="187" y="538" on="1"/>
        <pt x="146" y="538" on="1"/>
        <pt x="24" y="532" on="1"/>
        <pt x="15" y="543" on="1"/>
        <pt x="24" y="644" on="1"/>
        <pt x="481" y="644" on="1"/>
        <pt x="489" y="633" on="1"/>
        <pt x="481" y="532" on="1"/>
        <pt x="359" y="538" on="1"/>
        <pt x="321" y="538" on="1"/>
      </contour>
    </TTGlyph>
    <TTGlyph name="Tcaron" xMin="15" yMin="0" xMax="489" yMax="895">
      <component glyphName="T" x="0" y="0" flags="0x1000"/>
      <component glyphName="caron" x="61" y="179" flags="0x1000"/>
    </TTGlyph>
    <TTGlyph name="Tcedilla" xMin="15" yMin="-201" xMax="489" yMax="644">
      <contour>
        <pt x="481" y="532" on="1"/>
        <pt x="359" y="538" on="1"/>
        <pt x="321" y="538" on="1"/>
        <pt x="315" y="204" on="1"/>
        <pt x="321" y="0" on="1"/>
        <pt x="282" y="0" on="1"/>
        <pt x="270" y="-48" on="1"/>
        <pt x="304" y="-67" on="1"/>
        <pt x="345" y="-89" on="0"/>
        <pt x="345" y="-126" on="1"/>
        <pt x="345" y="-159" on="0"/>
        <pt x="293" y="-201" on="0"/>
        <pt x="251" y="-201" on="1"/>
        <pt x="206" y="-201" on="0"/>
        <pt x="169" y="-173" on="1"/>
        <pt x="178" y="-117" on="1"/>
        <pt x="184" y="-114" on="1"/>
        <pt x="214" y="-144" on="0"/>
        <pt x="243" y="-144" on="1"/>
        <pt x="267" y="-144" on="0"/>
        <pt x="267" y="-123" on="1"/>
        <pt x="267" y="-112" on="0"/>
        <pt x="250" y="-103" on="1"/>
        <pt x="201" y="-75" on="1"/>
        <pt x="218" y="0" on="1"/>
        <pt x="185" y="0" on="1"/>
        <pt x="193" y="192" on="1"/>
        <pt x="187" y="538" on="1"/>
        <pt x="146" y="538" on="1"/>
        <pt x="24" y="532" on="1"/>
        <pt x="15" y="543" on="1"/>
        <pt x="24" y="644" on="1"/>
        <pt x="481" y="644" on="1"/>
        <pt x="489" y="633" on="1"/>
      </contour>
    </TTGlyph>
    <TTGlyph name="Thorn" xMin="78" yMin="0" xMax="540" yMax="644">
      <contour>
        <pt x="432" y="543" on="0"/>
        <pt x="540" y="443" on="0"/>
        <pt x="540" y="345" on="1"/>
        <pt x="540" y="232" on="0"/>
        <pt x="403" y="108" on="0"/>
        <pt x="276" y="108" on="1"/>
        <pt x="212" y="107" on="1"/>
        <pt x="215" y="0" on="1"/>
        <pt x="78" y="0" on="1"/>
        <pt x="85" y="192" on="1"/>
        <pt x="80" y="542" on="1"/>
        <pt x="78" y="644" on="1"/>
        <pt x="217" y="644" on="1"/>
        <pt x="215" y="543" on="1"/>
        <pt x="329" y="543" on="1"/>
      </contour>
      <contour>
        <pt x="397" y="233" on="0"/>
        <pt x="397" y="335" on="1"/>
        <pt x="397" y="390" on="0"/>
        <pt x="343" y="441" on="0"/>
        <pt x="286" y="443" on="1"/>
        <pt x="214" y="440" on="1"/>
        <pt x="210" y="212" on="1"/>
        <pt x="304" y="208" on="1"/>
      </contour>
    </TTGlyph>
    <TTGlyph name="U" xMin="62" yMin="-9" xMax="579" yMax="644">
      <contour>
        <pt x="573" y="232" on="1"/>
        <pt x="574" y="117" on="0"/>
        <pt x="438" y="-9" on="0"/>
        <pt x="311" y="-9" on="1"/>
        <pt x="189" y="-9" on="0"/>
        <pt x="61" y="113" on="0"/>
        <pt x="64" y="227" on="1"/>
        <pt x="65" y="320" on="1"/>
        <pt x="62" y="644" on="1"/>
        <pt x="198" y="644" on="1"/>
        <pt x="191" y="245" on="1"/>
        <pt x="190" y="102" on="0"/>
        <pt x="319" y="102" on="1"/>
        <pt x="449" y="102" on="0"/>
        <pt x="448" y="238" on="1"/>
        <pt x="441" y="644" on="1"/>
        <pt x="579" y="644" on="1"/>
        <pt x="574" y="317" on="1"/>
      </contour>
    </TTGlyph>
    <TTGlyph name="Uacute" xMin="62" yMin="-9" xMax="579" yMax="889">
      <component glyphName="U" x="0" y="0" flags="0x1000"/>
      <component glyphName="acute.cap" x="150" y="179" flags="0x1000"/>
    </TTGlyph>
    <TTGlyph name="Ubreve" xMin="62" yMin="-9" xMax="579" yMax="879">
      <component glyphName="U" x="0" y="0" flags="0x1000"/>
      <component glyphName="breve" x="127" y="179" flags="0x1000"/>
    </TTGlyph>
    <TTGlyph name="Ucaron" xMin="62" yMin="-9" xMax="579" yMax="895">
      <component glyphName="U" x="0" y="0" flags="0x1000"/>
      <component glyphName="caron" x="127" y="179" flags="0x1000"/>
    </TTGlyph>
    <TTGlyph name="Ucircumflex" xMin="62" yMin="-9" xMax="578" yMax="885">
      <contour>
        <pt x="243" y="827" on="0"/>
        <pt x="308" y="885" on="1"/>
        <pt x="335" y="885" on="1"/>
        <pt x="397" y="830" on="0"/>
        <pt x="469" y="781" on="1"/>
        <pt x="445" y="728" on="1"/>
        <pt x="432" y="728" on="1"/>
        <pt x="401" y="746" on="1"/>
        <pt x="364" y="765" on="0"/>
        <pt x="322" y="791" on="1"/>
        <pt x="280" y="765" on="0"/>
        <pt x="243" y="746" on="1"/>
        <pt x="212" y="728" on="1"/>
        <pt x="199" y="728" on="1"/>
        <pt x="174" y="781" on="1"/>
      </contour>
      <contour>
        <pt x="573" y="232" on="1"/>
        <pt x="574" y="117" on="0"/>
        <pt x="438" y="-9" on="0"/>
        <pt x="311" y="-9" on="1"/>
        <pt x="189" y="-9" on="0"/>
        <pt x="61" y="113" on="0"/>
        <pt x="63" y="227" on="1"/>
        <pt x="65" y="320" on="1"/>
        <pt x="62" y="644" on="1"/>
        <pt x="198" y="644" on="1"/>
        <pt x="191" y="245" on="1"/>
        <pt x="190" y="102" on="0"/>
        <pt x="319" y="102" on="1"/>
        <pt x="448" y="102" on="0"/>
        <pt x="447" y="238" on="1"/>
        <pt x="441" y="644" on="1"/>
        <pt x="578" y="644" on="1"/>
        <pt x="574" y="317" on="1"/>
      </contour>
    </TTGlyph>
    <TTGlyph name="Udieresis" xMin="62" yMin="-9" xMax="578" yMax="862">
      <contour>
        <pt x="268" y="862" on="0"/>
        <pt x="300" y="829" on="0"/>
        <pt x="300" y="800" on="1"/>
        <pt x="300" y="768" on="0"/>
        <pt x="265" y="732" on="0"/>
        <pt x="234" y="732" on="1"/>
        <pt x="205" y="732" on="0"/>
        <pt x="173" y="765" on="0"/>
        <pt x="173" y="795" on="1"/>
        <pt x="173" y="826" on="0"/>
        <pt x="208" y="862" on="0"/>
        <pt x="239" y="862" on="1"/>
      </contour>
      <contour>
        <pt x="442" y="862" on="0"/>
        <pt x="474" y="829" on="0"/>
        <pt x="474" y="800" on="1"/>
        <pt x="474" y="768" on="0"/>
        <pt x="439" y="732" on="0"/>
        <pt x="408" y="732" on="1"/>
        <pt x="379" y="732" on="0"/>
        <pt x="347" y="765" on="0"/>
        <pt x="347" y="795" on="1"/>
        <pt x="347" y="826" on="0"/>
        <pt x="382" y="862" on="0"/>
        <pt x="413" y="862" on="1"/>
      </contour>
      <contour>
        <pt x="573" y="232" on="1"/>
        <pt x="574" y="117" on="0"/>
        <pt x="438" y="-9" on="0"/>
        <pt x="311" y="-9" on="1"/>
        <pt x="189" y="-9" on="0"/>
        <pt x="61" y="113" on="0"/>
        <pt x="63" y="227" on="1"/>
        <pt x="65" y="320" on="1"/>
        <pt x="62" y="644" on="1"/>
        <pt x="198" y="644" on="1"/>
        <pt x="191" y="245" on="1"/>
        <pt x="190" y="102" on="0"/>
        <pt x="319" y="102" on="1"/>
        <pt x="448" y="102" on="0"/>
        <pt x="447" y="238" on="1"/>
        <pt x="441" y="644" on="1"/>
        <pt x="578" y="644" on="1"/>
        <pt x="574" y="317" on="1"/>
      </contour>
    </TTGlyph>
    <TTGlyph name="Udieresisacute" xMin="62" yMin="-9" xMax="579" yMax="1025">
      <component glyphName="U" x="0" y="0" flags="0x1000"/>
      <component glyphName="dieresisacute" x="126" y="179" flags="0x1000"/>
    </TTGlyph>
    <TTGlyph name="Udieresiscaron" xMin="62" yMin="-9" xMax="579" yMax="1010">
      <component glyphName="U" x="0" y="0" flags="0x1000"/>
      <component glyphName="dieresiscaron" x="126" y="179" flags="0x1000"/>
    </TTGlyph>
    <TTGlyph name="Udieresisgrave" xMin="62" yMin="-9" xMax="579" yMax="1025">
      <component glyphName="U" x="0" y="0" flags="0x1000"/>
      <component glyphName="dieresisgrave" x="126" y="179" flags="0x1000"/>
    </TTGlyph>
    <TTGlyph name="Udieresismacron" xMin="62" yMin="-9" xMax="579" yMax="981">
      <component glyphName="U" x="0" y="0" flags="0x1000"/>
      <component glyphName="dieresismacron" x="126" y="179" flags="0x1000"/>
    </TTGlyph>
    <TTGlyph name="Udotbelow" xMin="62" yMin="-194" xMax="578" yMax="644">
      <contour>
        <pt x="573" y="232" on="1"/>
        <pt x="574" y="117" on="0"/>
        <pt x="438" y="-9" on="0"/>
        <pt x="311" y="-9" on="1"/>
        <pt x="189" y="-9" on="0"/>
        <pt x="61" y="113" on="0"/>
        <pt x="63" y="227" on="1"/>
        <pt x="65" y="320" on="1"/>
        <pt x="62" y="644" on="1"/>
        <pt x="198" y="644" on="1"/>
        <pt x="191" y="245" on="1"/>
        <pt x="190" y="102" on="0"/>
        <pt x="319" y="102" on="1"/>
        <pt x="448" y="102" on="0"/>
        <pt x="447" y="238" on="1"/>
        <pt x="441" y="644" on="1"/>
        <pt x="578" y="644" on="1"/>
        <pt x="574" y="317" on="1"/>
      </contour>
      <contour>
        <pt x="351" y="-52" on="0"/>
        <pt x="386" y="-88" on="0"/>
        <pt x="386" y="-120" on="1"/>
        <pt x="386" y="-154" on="0"/>
        <pt x="348" y="-194" on="0"/>
        <pt x="315" y="-194" on="1"/>
        <pt x="282" y="-194" on="0"/>
        <pt x="247" y="-158" on="0"/>
        <pt x="247" y="-125" on="1"/>
        <pt x="247" y="-92" on="0"/>
        <pt x="286" y="-52" on="0"/>
        <pt x="320" y="-52" on="1"/>
      </contour>
    </TTGlyph>
    <TTGlyph name="Ugrave" xMin="62" yMin="-9" xMax="578" yMax="890">
      <contour>
        <pt x="330" y="838" on="0"/>
        <pt x="451" y="777" on="1"/>
        <pt x="429" y="722" on="1"/>
        <pt x="416" y="718" on="1"/>
        <pt x="293" y="760" on="0"/>
        <pt x="201" y="796" on="1"/>
        <pt x="197" y="808" on="1"/>
        <pt x="231" y="887" on="1"/>
        <pt x="243" y="890" on="1"/>
      </contour>
      <contour>
        <pt x="573" y="232" on="1"/>
        <pt x="574" y="117" on="0"/>
        <pt x="438" y="-9" on="0"/>
        <pt x="311" y="-9" on="1"/>
        <pt x="189" y="-9" on="0"/>
        <pt x="61" y="113" on="0"/>
        <pt x="63" y="227" on="1"/>
        <pt x="65" y="320" on="1"/>
        <pt x="62" y="644" on="1"/>
        <pt x="198" y="644" on="1"/>
        <pt x="191" y="245" on="1"/>
        <pt x="190" y="102" on="0"/>
        <pt x="319" y="102" on="1"/>
        <pt x="448" y="102" on="0"/>
        <pt x="447" y="238" on="1"/>
        <pt x="441" y="644" on="1"/>
        <pt x="578" y="644" on="1"/>
        <pt x="574" y="317" on="1"/>
      </contour>
    </TTGlyph>
    <TTGlyph name="Uhookabove" xMin="62" yMin="-9" xMax="579" yMax="919">
      <component glyphName="U" x="0" y="0" flags="0x1000"/>
      <component glyphName="hookabove" x="126" y="178" flags="0x1000"/>
    </TTGlyph>
    <TTGlyph name="Uhorn" xMin="62" yMin="-9" xMax="670" yMax="789">
      <contour>
        <pt x="670" y="667" on="0"/>
        <pt x="620" y="606" on="0"/>
        <pt x="577" y="590" on="1"/>
        <pt x="574" y="317" on="1"/>
        <pt x="573" y="232" on="1"/>
        <pt x="574" y="117" on="0"/>
        <pt x="438" y="-9" on="0"/>
        <pt x="311" y="-9" on="1"/>
        <pt x="189" y="-9" on="0"/>
        <pt x="61" y="113" on="0"/>
        <pt x="63" y="227" on="1"/>
        <pt x="65" y="320" on="1"/>
        <pt x="62" y="644" on="1"/>
        <pt x="198" y="644" on="1"/>
        <pt x="191" y="245" on="1"/>
        <pt x="190" y="102" on="0"/>
        <pt x="319" y="102" on="1"/>
        <pt x="448" y="102" on="0"/>
        <pt x="447" y="238" on="1"/>
        <pt x="441" y="644" on="1"/>
        <pt x="505" y="644" on="1"/>
        <pt x="567" y="644" on="0"/>
        <pt x="567" y="693" on="1"/>
        <pt x="567" y="725" on="0"/>
        <pt x="535" y="753" on="1"/>
        <pt x="538" y="763" on="1"/>
        <pt x="573" y="789" on="0"/>
        <pt x="602" y="789" on="1"/>
        <pt x="629" y="789" on="0"/>
        <pt x="670" y="740" on="0"/>
        <pt x="670" y="705" on="1"/>
      </contour>
    </TTGlyph>
    <TTGlyph name="Uhornacute" xMin="62" yMin="-9" xMax="670" yMax="889">
      <component glyphName="Uhorn" x="0" y="0" flags="0x1000"/>
      <component glyphName="acute.cap" x="150" y="179" flags="0x1000"/>
    </TTGlyph>
    <TTGlyph name="Uhorndotbelow" xMin="62" yMin="-194" xMax="670" yMax="789">
      <contour>
        <pt x="670" y="667" on="0"/>
        <pt x="620" y="606" on="0"/>
        <pt x="577" y="590" on="1"/>
        <pt x="574" y="317" on="1"/>
        <pt x="573" y="232" on="1"/>
        <pt x="574" y="117" on="0"/>
        <pt x="438" y="-9" on="0"/>
        <pt x="311" y="-9" on="1"/>
        <pt x="189" y="-9" on="0"/>
        <pt x="61" y="113" on="0"/>
        <pt x="63" y="227" on="1"/>
        <pt x="65" y="320" on="1"/>
        <pt x="62" y="644" on="1"/>
        <pt x="198" y="644" on="1"/>
        <pt x="191" y="245" on="1"/>
        <pt x="190" y="102" on="0"/>
        <pt x="319" y="102" on="1"/>
        <pt x="448" y="102" on="0"/>
        <pt x="447" y="238" on="1"/>
        <pt x="441" y="644" on="1"/>
        <pt x="505" y="644" on="1"/>
        <pt x="567" y="644" on="0"/>
        <pt x="567" y="693" on="1"/>
        <pt x="567" y="725" on="0"/>
        <pt x="535" y="753" on="1"/>
        <pt x="538" y="763" on="1"/>
        <pt x="573" y="789" on="0"/>
        <pt x="602" y="789" on="1"/>
        <pt x="629" y="789" on="0"/>
        <pt x="670" y="740" on="0"/>
        <pt x="670" y="705" on="1"/>
      </contour>
      <contour>
        <pt x="353" y="-52" on="0"/>
        <pt x="388" y="-88" on="0"/>
        <pt x="388" y="-120" on="1"/>
        <pt x="388" y="-154" on="0"/>
        <pt x="350" y="-194" on="0"/>
        <pt x="317" y="-194" on="1"/>
        <pt x="284" y="-194" on="0"/>
        <pt x="249" y="-158" on="0"/>
        <pt x="249" y="-125" on="1"/>
        <pt x="249" y="-92" on="0"/>
        <pt x="288" y="-52" on="0"/>
        <pt x="322" y="-52" on="1"/>
      </contour>
    </TTGlyph>
    <TTGlyph name="Uhorngrave" xMin="62" yMin="-9" xMax="670" yMax="890">
      <contour>
        <pt x="293" y="760" on="0"/>
        <pt x="201" y="796" on="1"/>
        <pt x="197" y="808" on="1"/>
        <pt x="231" y="887" on="1"/>
        <pt x="243" y="890" on="1"/>
        <pt x="330" y="838" on="0"/>
        <pt x="451" y="777" on="1"/>
        <pt x="429" y="722" on="1"/>
        <pt x="416" y="718" on="1"/>
      </contour>
      <contour>
        <pt x="670" y="667" on="0"/>
        <pt x="620" y="606" on="0"/>
        <pt x="577" y="590" on="1"/>
        <pt x="574" y="317" on="1"/>
        <pt x="573" y="232" on="1"/>
        <pt x="574" y="117" on="0"/>
        <pt x="438" y="-9" on="0"/>
        <pt x="311" y="-9" on="1"/>
        <pt x="189" y="-9" on="0"/>
        <pt x="61" y="113" on="0"/>
        <pt x="63" y="227" on="1"/>
        <pt x="65" y="320" on="1"/>
        <pt x="62" y="644" on="1"/>
        <pt x="198" y="644" on="1"/>
        <pt x="191" y="245" on="1"/>
        <pt x="190" y="102" on="0"/>
        <pt x="319" y="102" on="1"/>
        <pt x="448" y="102" on="0"/>
        <pt x="447" y="238" on="1"/>
        <pt x="441" y="644" on="1"/>
        <pt x="505" y="644" on="1"/>
        <pt x="567" y="644" on="0"/>
        <pt x="567" y="693" on="1"/>
        <pt x="567" y="725" on="0"/>
        <pt x="535" y="753" on="1"/>
        <pt x="538" y="763" on="1"/>
        <pt x="573" y="789" on="0"/>
        <pt x="602" y="789" on="1"/>
        <pt x="629" y="789" on="0"/>
        <pt x="670" y="740" on="0"/>
        <pt x="670" y="705" on="1"/>
      </contour>
    </TTGlyph>
    <TTGlyph name="Uhornhookabove" xMin="62" yMin="-9" xMax="670" yMax="920">
      <component glyphName="Uhorn" x="0" y="0" flags="0x1000"/>
      <component glyphName="hookabove" x="126" y="179" flags="0x1000"/>
    </TTGlyph>
    <TTGlyph name="Uhorntilde" xMin="62" yMin="-9" xMax="670" yMax="880">
      <component glyphName="Uhorn" x="0" y="0" flags="0x1000"/>
      <component glyphName="tilde" x="126" y="179" flags="0x1000"/>
    </TTGlyph>
    <TTGlyph name="Uhungarumlaut" xMin="62" yMin="-9" xMax="579" yMax="885">
      <component glyphName="U" x="0" y="0" flags="0x1000"/>
      <component glyphName="hungarumlaut.cap" x="150" y="179" flags="0x1000"/>
    </TTGlyph>
    <TTGlyph name="Umacron" xMin="62" yMin="-9" xMax="579" yMax="839">
      <component glyphName="U" x="0" y="0" flags="0x1000"/>
      <component glyphName="macron" x="126" y="179" flags="0x1000"/>
    </TTGlyph>
    <TTGlyph name="Uogonek" xMin="62" yMin="-197" xMax="578" yMax="644">
      <contour>
        <pt x="573" y="232" on="1"/>
        <pt x="575" y="107" on="0"/>
        <pt x="495" y="44" on="1"/>
        <pt x="441" y="-42" on="1"/>
        <pt x="424" y="-67" on="0"/>
        <pt x="424" y="-90" on="1"/>
        <pt x="424" y="-123" on="0"/>
        <pt x="460" y="-123" on="1"/>
        <pt x="494" y="-123" on="0"/>
        <pt x="527" y="-93" on="1"/>
        <pt x="535" y="-93" on="1"/>
        <pt x="547" y="-147" on="1"/>
        <pt x="491" y="-197" on="0"/>
        <pt x="442" y="-197" on="1"/>
        <pt x="401" y="-197" on="0"/>
        <pt x="352" y="-148" on="0"/>
        <pt x="352" y="-109" on="1"/>
        <pt x="352" y="-70" on="0"/>
        <pt x="379" y="-32" on="1"/>
        <pt x="401" y="1" on="1"/>
        <pt x="362" y="-9" on="0"/>
        <pt x="311" y="-9" on="1"/>
        <pt x="189" y="-9" on="0"/>
        <pt x="61" y="113" on="0"/>
        <pt x="63" y="227" on="1"/>
        <pt x="65" y="320" on="1"/>
        <pt x="62" y="644" on="1"/>
        <pt x="198" y="644" on="1"/>
        <pt x="191" y="245" on="1"/>
        <pt x="190" y="102" on="0"/>
        <pt x="319" y="102" on="1"/>
        <pt x="448" y="102" on="0"/>
        <pt x="447" y="238" on="1"/>
        <pt x="441" y="644" on="1"/>
        <pt x="578" y="644" on="1"/>
        <pt x="574" y="317" on="1"/>
      </contour>
    </TTGlyph>
    <TTGlyph name="Uring" xMin="62" yMin="-9" xMax="579" yMax="903">
      <component glyphName="U" x="0" y="0" flags="0x1000"/>
      <component glyphName="ring" x="126" y="179" flags="0x1000"/>
    </TTGlyph>
    <TTGlyph name="Utilde" xMin="62" yMin="-9" xMax="579" yMax="880">
      <component glyphName="U" x="0" y="0" flags="0x1000"/>
      <component glyphName="tilde" x="126" y="179" flags="0x1000"/>
    </TTGlyph>
    <TTGlyph name="V" xMin="10" yMin="0" xMax="586" yMax="644">
      <contour>
        <pt x="207" y="0" on="1"/>
        <pt x="10" y="644" on="1"/>
        <pt x="148" y="644" on="1"/>
        <pt x="164" y="559" on="1"/>
        <pt x="286" y="126" on="1"/>
        <pt x="295" y="126" on="1"/>
        <pt x="435" y="552" on="1"/>
        <pt x="452" y="644" on="1"/>
        <pt x="586" y="644" on="1"/>
        <pt x="369" y="0" on="1"/>
      </contour>
    </TTGlyph>
    <TTGlyph name="V.ss01" xMin="-100" yMin="0" xMax="619" yMax="505">
      <contour>
        <pt x="343" y="49" on="1"/>
        <pt x="619" y="49" on="1"/>
        <pt x="619" y="0" on="1"/>
        <pt x="-100" y="0" on="1"/>
        <pt x="-100" y="49" on="1"/>
        <pt x="170" y="49" on="1"/>
        <pt x="41" y="456" on="1"/>
        <pt x="-100" y="456" on="1"/>
        <pt x="-100" y="505" on="1"/>
        <pt x="619" y="505" on="1"/>
        <pt x="619" y="456" on="1"/>
        <pt x="485" y="456" on="1"/>
      </contour>
      <contour>
        <pt x="159" y="456" on="1"/>
        <pt x="165" y="425" on="1"/>
        <pt x="255" y="120" on="1"/>
        <pt x="262" y="120" on="1"/>
        <pt x="366" y="418" on="1"/>
        <pt x="372" y="456" on="1"/>
      </contour>
    </TTGlyph>
    <TTGlyph name="W" xMin="19" yMin="0" xMax="898" yMax="644">
      <contour>
        <pt x="544" y="0" on="1"/>
        <pt x="448" y="308" on="1"/>
        <pt x="439" y="308" on="1"/>
        <pt x="342" y="0" on="1"/>
        <pt x="199" y="0" on="1"/>
        <pt x="19" y="644" on="1"/>
        <pt x="152" y="644" on="1"/>
        <pt x="162" y="565" on="1"/>
        <pt x="276" y="140" on="1"/>
        <pt x="285" y="140" on="1"/>
        <pt x="394" y="487" on="1"/>
        <pt x="348" y="644" on="1"/>
        <pt x="486" y="644" on="1"/>
        <pt x="501" y="551" on="1"/>
        <pt x="617" y="140" on="1"/>
        <pt x="626" y="140" on="1"/>
        <pt x="756" y="556" on="1"/>
        <pt x="772" y="644" on="1"/>
        <pt x="898" y="644" on="1"/>
        <pt x="686" y="0" on="1"/>
      </contour>
    </TTGlyph>
    <TTGlyph name="Wacute" xMin="19" yMin="0" xMax="898" yMax="889">
      <component glyphName="W" x="0" y="0" flags="0x1000"/>
      <component glyphName="acute.cap" x="274" y="179" flags="0x1000"/>
    </TTGlyph>
    <TTGlyph name="Wcircumflex" xMin="19" yMin="0" xMax="898" yMax="885">
      <contour>
        <pt x="366" y="827" on="0"/>
        <pt x="431" y="885" on="1"/>
        <pt x="458" y="885" on="1"/>
        <pt x="520" y="830" on="0"/>
        <pt x="592" y="781" on="1"/>
        <pt x="568" y="728" on="1"/>
        <pt x="555" y="728" on="1"/>
        <pt x="524" y="746" on="1"/>
        <pt x="487" y="765" on="0"/>
        <pt x="445" y="791" on="1"/>
        <pt x="403" y="765" on="0"/>
        <pt x="366" y="746" on="1"/>
        <pt x="335" y="728" on="1"/>
        <pt x="322" y="728" on="1"/>
        <pt x="297" y="781" on="1"/>
      </contour>
      <contour>
        <pt x="544" y="0" on="1"/>
        <pt x="448" y="308" on="1"/>
        <pt x="439" y="308" on="1"/>
        <pt x="342" y="0" on="1"/>
        <pt x="199" y="0" on="1"/>
        <pt x="19" y="644" on="1"/>
        <pt x="151" y="644" on="1"/>
        <pt x="162" y="565" on="1"/>
        <pt x="275" y="140" on="1"/>
        <pt x="284" y="140" on="1"/>
        <pt x="393" y="487" on="1"/>
        <pt x="348" y="644" on="1"/>
        <pt x="486" y="644" on="1"/>
        <pt x="501" y="551" on="1"/>
        <pt x="617" y="140" on="1"/>
        <pt x="626" y="140" on="1"/>
        <pt x="756" y="556" on="1"/>
        <pt x="772" y="644" on="1"/>
        <pt x="898" y="644" on="1"/>
        <pt x="686" y="0" on="1"/>
      </contour>
    </TTGlyph>
    <TTGlyph name="Wdieresis" xMin="19" yMin="0" xMax="898" yMax="862">
      <contour>
        <pt x="391" y="862" on="0"/>
        <pt x="423" y="829" on="0"/>
        <pt x="423" y="800" on="1"/>
        <pt x="423" y="768" on="0"/>
        <pt x="388" y="732" on="0"/>
        <pt x="357" y="732" on="1"/>
        <pt x="328" y="732" on="0"/>
        <pt x="296" y="765" on="0"/>
        <pt x="296" y="795" on="1"/>
        <pt x="296" y="826" on="0"/>
        <pt x="331" y="862" on="0"/>
        <pt x="362" y="862" on="1"/>
      </contour>
      <contour>
        <pt x="565" y="862" on="0"/>
        <pt x="597" y="829" on="0"/>
        <pt x="597" y="800" on="1"/>
        <pt x="597" y="768" on="0"/>
        <pt x="562" y="732" on="0"/>
        <pt x="531" y="732" on="1"/>
        <pt x="502" y="732" on="0"/>
        <pt x="470" y="765" on="0"/>
        <pt x="470" y="795" on="1"/>
        <pt x="470" y="826" on="0"/>
        <pt x="505" y="862" on="0"/>
        <pt x="536" y="862" on="1"/>
      </contour>
      <contour>
        <pt x="544" y="0" on="1"/>
        <pt x="448" y="308" on="1"/>
        <pt x="439" y="308" on="1"/>
        <pt x="342" y="0" on="1"/>
        <pt x="199" y="0" on="1"/>
        <pt x="19" y="644" on="1"/>
        <pt x="151" y="644" on="1"/>
        <pt x="162" y="565" on="1"/>
        <pt x="275" y="140" on="1"/>
        <pt x="284" y="140" on="1"/>
        <pt x="393" y="487" on="1"/>
        <pt x="348" y="644" on="1"/>
        <pt x="486" y="644" on="1"/>
        <pt x="501" y="551" on="1"/>
        <pt x="617" y="140" on="1"/>
        <pt x="626" y="140" on="1"/>
        <pt x="756" y="556" on="1"/>
        <pt x="772" y="644" on="1"/>
        <pt x="898" y="644" on="1"/>
        <pt x="686" y="0" on="1"/>
      </contour>
    </TTGlyph>
    <TTGlyph name="Wgrave" xMin="19" yMin="0" xMax="898" yMax="890">
      <contour>
        <pt x="453" y="838" on="0"/>
        <pt x="574" y="777" on="1"/>
        <pt x="552" y="722" on="1"/>
        <pt x="539" y="718" on="1"/>
        <pt x="416" y="760" on="0"/>
        <pt x="324" y="796" on="1"/>
        <pt x="320" y="808" on="1"/>
        <pt x="354" y="887" on="1"/>
        <pt x="366" y="890" on="1"/>
      </contour>
      <contour>
        <pt x="544" y="0" on="1"/>
        <pt x="448" y="308" on="1"/>
        <pt x="439" y="308" on="1"/>
        <pt x="342" y="0" on="1"/>
        <pt x="199" y="0" on="1"/>
        <pt x="19" y="644" on="1"/>
        <pt x="151" y="644" on="1"/>
        <pt x="162" y="565" on="1"/>
        <pt x="275" y="140" on="1"/>
        <pt x="284" y="140" on="1"/>
        <pt x="393" y="487" on="1"/>
        <pt x="348" y="644" on="1"/>
        <pt x="486" y="644" on="1"/>
        <pt x="501" y="551" on="1"/>
        <pt x="617" y="140" on="1"/>
        <pt x="626" y="140" on="1"/>
        <pt x="756" y="556" on="1"/>
        <pt x="772" y="644" on="1"/>
        <pt x="898" y="644" on="1"/>
        <pt x="686" y="0" on="1"/>
      </contour>
    </TTGlyph>
    <TTGlyph name="X" xMin="13" yMin="0" xMax="598" yMax="644">
      <contour>
        <pt x="598" y="0" on="1"/>
        <pt x="435" y="0" on="1"/>
        <pt x="405" y="64" on="1"/>
        <pt x="298" y="231" on="1"/>
        <pt x="182" y="57" on="1"/>
        <pt x="153" y="0" on="1"/>
        <pt x="13" y="0" on="1"/>
        <pt x="219" y="318" on="1"/>
        <pt x="15" y="644" on="1"/>
        <pt x="178" y="644" on="1"/>
        <pt x="208" y="579" on="1"/>
        <pt x="309" y="422" on="1"/>
        <pt x="413" y="584" on="1"/>
        <pt x="441" y="644" on="1"/>
        <pt x="584" y="644" on="1"/>
        <pt x="390" y="337" on="1"/>
      </contour>
    </TTGlyph>
    <TTGlyph name="X.ss01" xMin="-100" yMin="0" xMax="636" yMax="505">
      <contour>
        <pt x="485" y="49" on="1"/>
        <pt x="636" y="49" on="1"/>
        <pt x="636" y="0" on="1"/>
        <pt x="-100" y="0" on="1"/>
        <pt x="-100" y="49" on="1"/>
        <pt x="61" y="49" on="1"/>
        <pt x="199" y="249" on="1"/>
        <pt x="62" y="456" on="1"/>
        <pt x="-100" y="456" on="1"/>
        <pt x="-100" y="505" on="1"/>
        <pt x="636" y="505" on="1"/>
        <pt x="636" y="456" on="1"/>
        <pt x="473" y="456" on="1"/>
        <pt x="345" y="266" on="1"/>
      </contour>
      <contour>
        <pt x="276" y="336" on="1"/>
        <pt x="348" y="439" on="1"/>
        <pt x="356" y="456" on="1"/>
        <pt x="196" y="456" on="1"/>
        <pt x="206" y="433" on="1"/>
      </contour>
      <contour>
        <pt x="266" y="176" on="1"/>
        <pt x="185" y="69" on="1"/>
        <pt x="175" y="49" on="1"/>
        <pt x="351" y="49" on="1"/>
        <pt x="339" y="75" on="1"/>
      </contour>
    </TTGlyph>
    <TTGlyph name="Y" xMin="4" yMin="0" xMax="561" yMax="644">
      <contour>
        <pt x="339" y="0" on="1"/>
        <pt x="203" y="0" on="1"/>
        <pt x="211" y="179" on="1"/>
        <pt x="209" y="217" on="1"/>
        <pt x="4" y="644" on="1"/>
        <pt x="148" y="644" on="1"/>
        <pt x="162" y="599" on="1"/>
        <pt x="271" y="354" on="1"/>
        <pt x="281" y="354" on="1"/>
        <pt x="402" y="595" on="1"/>
        <pt x="421" y="644" on="1"/>
        <pt x="561" y="644" on="1"/>
        <pt x="335" y="219" on="1"/>
        <pt x="333" y="179" on="1"/>
      </contour>
    </TTGlyph>
    <TTGlyph name="Yacute" xMin="4" yMin="0" xMax="561" yMax="889">
      <component glyphName="Y" x="0" y="0" flags="0x1000"/>
      <component glyphName="acute.cap" x="105" y="179" flags="0x1000"/>
    </TTGlyph>
    <TTGlyph name="Ycircumflex" xMin="4" yMin="0" xMax="560" yMax="885">
      <contour>
        <pt x="129" y="781" on="1"/>
        <pt x="198" y="827" on="0"/>
        <pt x="263" y="885" on="1"/>
        <pt x="290" y="885" on="1"/>
        <pt x="352" y="830" on="0"/>
        <pt x="424" y="781" on="1"/>
        <pt x="400" y="728" on="1"/>
        <pt x="387" y="728" on="1"/>
        <pt x="356" y="746" on="1"/>
        <pt x="319" y="765" on="0"/>
        <pt x="277" y="791" on="1"/>
        <pt x="235" y="765" on="0"/>
        <pt x="198" y="746" on="1"/>
        <pt x="167" y="728" on="1"/>
        <pt x="154" y="728" on="1"/>
      </contour>
      <contour>
        <pt x="339" y="0" on="1"/>
        <pt x="203" y="0" on="1"/>
        <pt x="211" y="179" on="1"/>
        <pt x="210" y="215" on="1"/>
        <pt x="4" y="644" on="1"/>
        <pt x="147" y="644" on="1"/>
        <pt x="162" y="599" on="1"/>
        <pt x="271" y="354" on="1"/>
        <pt x="280" y="354" on="1"/>
        <pt x="402" y="595" on="1"/>
        <pt x="420" y="644" on="1"/>
        <pt x="560" y="644" on="1"/>
        <pt x="335" y="219" on="1"/>
        <pt x="333" y="179" on="1"/>
      </contour>
    </TTGlyph>
    <TTGlyph name="Ydieresis" xMin="4" yMin="0" xMax="560" yMax="862">
      <contour>
        <pt x="159" y="732" on="0"/>
        <pt x="127" y="765" on="0"/>
        <pt x="127" y="795" on="1"/>
        <pt x="127" y="826" on="0"/>
        <pt x="162" y="862" on="0"/>
        <pt x="193" y="862" on="1"/>
        <pt x="222" y="862" on="0"/>
        <pt x="254" y="829" on="0"/>
        <pt x="254" y="800" on="1"/>
        <pt x="254" y="768" on="0"/>
        <pt x="219" y="732" on="0"/>
        <pt x="188" y="732" on="1"/>
      </contour>
      <contour>
        <pt x="333" y="732" on="0"/>
        <pt x="301" y="765" on="0"/>
        <pt x="301" y="795" on="1"/>
        <pt x="301" y="826" on="0"/>
        <pt x="336" y="862" on="0"/>
        <pt x="367" y="862" on="1"/>
        <pt x="396" y="862" on="0"/>
        <pt x="428" y="829" on="0"/>
        <pt x="428" y="800" on="1"/>
        <pt x="428" y="768" on="0"/>
        <pt x="393" y="732" on="0"/>
        <pt x="362" y="732" on="1"/>
      </contour>
      <contour>
        <pt x="339" y="0" on="1"/>
        <pt x="203" y="0" on="1"/>
        <pt x="211" y="179" on="1"/>
        <pt x="210" y="215" on="1"/>
        <pt x="4" y="644" on="1"/>
        <pt x="147" y="644" on="1"/>
        <pt x="162" y="599" on="1"/>
        <pt x="271" y="354" on="1"/>
        <pt x="280" y="354" on="1"/>
        <pt x="402" y="595" on="1"/>
        <pt x="420" y="644" on="1"/>
        <pt x="560" y="644" on="1"/>
        <pt x="335" y="219" on="1"/>
        <pt x="333" y="179" on="1"/>
      </contour>
    </TTGlyph>
    <TTGlyph name="Ydotbelow" xMin="4" yMin="-194" xMax="560" yMax="644">
      <contour>
        <pt x="4" y="644" on="1"/>
        <pt x="147" y="644" on="1"/>
        <pt x="162" y="599" on="1"/>
        <pt x="271" y="354" on="1"/>
        <pt x="280" y="354" on="1"/>
        <pt x="402" y="595" on="1"/>
        <pt x="420" y="644" on="1"/>
        <pt x="560" y="644" on="1"/>
        <pt x="335" y="219" on="1"/>
        <pt x="333" y="179" on="1"/>
        <pt x="339" y="0" on="1"/>
        <pt x="203" y="0" on="1"/>
        <pt x="211" y="179" on="1"/>
        <pt x="210" y="215" on="1"/>
      </contour>
      <contour>
        <pt x="305" y="-52" on="0"/>
        <pt x="340" y="-88" on="0"/>
        <pt x="340" y="-120" on="1"/>
        <pt x="340" y="-154" on="0"/>
        <pt x="302" y="-194" on="0"/>
        <pt x="269" y="-194" on="1"/>
        <pt x="236" y="-194" on="0"/>
        <pt x="201" y="-158" on="0"/>
        <pt x="201" y="-125" on="1"/>
        <pt x="201" y="-92" on="0"/>
        <pt x="240" y="-52" on="0"/>
        <pt x="274" y="-52" on="1"/>
      </contour>
    </TTGlyph>
    <TTGlyph name="Ygrave" xMin="4" yMin="0" xMax="560" yMax="890">
      <contour>
        <pt x="247" y="760" on="0"/>
        <pt x="155" y="796" on="1"/>
        <pt x="151" y="808" on="1"/>
        <pt x="185" y="887" on="1"/>
        <pt x="197" y="890" on="1"/>
        <pt x="284" y="838" on="0"/>
        <pt x="405" y="777" on="1"/>
        <pt x="383" y="722" on="1"/>
        <pt x="370" y="718" on="1"/>
      </contour>
      <contour>
        <pt x="339" y="0" on="1"/>
        <pt x="203" y="0" on="1"/>
        <pt x="211" y="179" on="1"/>
        <pt x="210" y="215" on="1"/>
        <pt x="4" y="644" on="1"/>
        <pt x="147" y="644" on="1"/>
        <pt x="162" y="599" on="1"/>
        <pt x="271" y="354" on="1"/>
        <pt x="280" y="354" on="1"/>
        <pt x="402" y="595" on="1"/>
        <pt x="420" y="644" on="1"/>
        <pt x="560" y="644" on="1"/>
        <pt x="335" y="219" on="1"/>
        <pt x="333" y="179" on="1"/>
      </contour>
    </TTGlyph>
    <TTGlyph name="Yhookabove" xMin="4" yMin="0" xMax="561" yMax="919">
      <component glyphName="Y" x="0" y="0" flags="0x1000"/>
      <component glyphName="hookabove" x="81" y="178" flags="0x1000"/>
    </TTGlyph>
    <TTGlyph name="Ytilde" xMin="4" yMin="0" xMax="561" yMax="880">
      <component glyphName="Y" x="0" y="0" flags="0x1000"/>
      <component glyphName="tilde" x="82" y="179" flags="0x1000"/>
    </TTGlyph>
    <TTGlyph name="Z" xMin="30" yMin="-4" xMax="520" yMax="645">
      <contour>
        <pt x="190" y="103" on="1"/>
        <pt x="406" y="103" on="1"/>
        <pt x="515" y="112" on="1"/>
        <pt x="520" y="104" on="1"/>
        <pt x="509" y="-3" on="1"/>
        <pt x="364" y="0" on="1"/>
        <pt x="107" y="0" on="1"/>
        <pt x="30" y="-4" on="1"/>
        <pt x="30" y="93" on="1"/>
        <pt x="353" y="540" on="1"/>
        <pt x="149" y="540" on="1"/>
        <pt x="40" y="531" on="1"/>
        <pt x="34" y="538" on="1"/>
        <pt x="44" y="645" on="1"/>
        <pt x="448" y="644" on="1"/>
        <pt x="510" y="645" on="1"/>
        <pt x="510" y="546" on="1"/>
      </contour>
    </TTGlyph>
    <TTGlyph name="Zacute" xMin="30" yMin="-4" xMax="520" yMax="889">
      <component glyphName="Z" x="0" y="0" flags="0x1000"/>
      <component glyphName="acute.cap" x="105" y="179" flags="0x1000"/>
    </TTGlyph>
    <TTGlyph name="Zcaron" xMin="30" yMin="-4" xMax="520" yMax="875">
      <component glyphName="Z" x="0" y="0" flags="0x1000"/>
      <component glyphName="caron.cap" x="83" y="179" flags="0x1000"/>
    </TTGlyph>
    <TTGlyph name="Zdotaccent" xMin="30" yMin="-4" xMax="520" yMax="872">
      <contour>
        <pt x="311" y="872" on="0"/>
        <pt x="346" y="836" on="0"/>
        <pt x="346" y="804" on="1"/>
        <pt x="346" y="770" on="0"/>
        <pt x="308" y="730" on="0"/>
        <pt x="275" y="730" on="1"/>
        <pt x="242" y="730" on="0"/>
        <pt x="207" y="766" on="0"/>
        <pt x="207" y="799" on="1"/>
        <pt x="207" y="832" on="0"/>
        <pt x="246" y="872" on="0"/>
        <pt x="280" y="872" on="1"/>
      </contour>
      <contour>
        <pt x="190" y="103" on="1"/>
        <pt x="407" y="103" on="1"/>
        <pt x="516" y="112" on="1"/>
        <pt x="520" y="104" on="1"/>
        <pt x="510" y="-3" on="1"/>
        <pt x="364" y="0" on="1"/>
        <pt x="107" y="0" on="1"/>
        <pt x="30" y="-4" on="1"/>
        <pt x="30" y="93" on="1"/>
        <pt x="353" y="540" on="1"/>
        <pt x="149" y="540" on="1"/>
        <pt x="40" y="531" on="1"/>
        <pt x="34" y="538" on="1"/>
        <pt x="45" y="645" on="1"/>
        <pt x="449" y="644" on="1"/>
        <pt x="511" y="645" on="1"/>
        <pt x="511" y="546" on="1"/>
      </contour>
    </TTGlyph>
    <TTGlyph name="a" xMin="17" yMin="0" xMax="504" yMax="505">
      <contour>
        <pt x="377" y="0" on="1"/>
        <pt x="363" y="73" on="1"/>
        <pt x="354" y="102" on="1"/>
        <pt x="252" y="103" on="1"/>
        <pt x="162" y="101" on="1"/>
        <pt x="155" y="80" on="1"/>
        <pt x="140" y="0" on="1"/>
        <pt x="17" y="0" on="1"/>
        <pt x="194" y="505" on="1"/>
        <pt x="343" y="505" on="1"/>
        <pt x="504" y="0" on="1"/>
      </contour>
      <contour>
        <pt x="270" y="390" on="1"/>
        <pt x="262" y="390" on="1"/>
        <pt x="195" y="197" on="1"/>
        <pt x="260" y="196" on="1"/>
        <pt x="327" y="197" on="1"/>
      </contour>
    </TTGlyph>
    <TTGlyph name="a.sups" xMin="25" yMin="324" xMax="323" yMax="652">
      <contour>
        <pt x="232" y="652" on="0"/>
        <pt x="293" y="604" on="0"/>
        <pt x="293" y="560" on="1"/>
        <pt x="290" y="483" on="1"/>
        <pt x="287" y="441" on="0"/>
        <pt x="287" y="421" on="1"/>
        <pt x="287" y="399" on="0"/>
        <pt x="300" y="399" on="1"/>
        <pt x="311" y="399" on="0"/>
        <pt x="316" y="403" on="1"/>
        <pt x="323" y="397" on="1"/>
        <pt x="313" y="342" on="1"/>
        <pt x="290" y="325" on="0"/>
        <pt x="263" y="325" on="1"/>
        <pt x="238" y="325" on="0"/>
        <pt x="212" y="347" on="0"/>
        <pt x="205" y="373" on="1"/>
        <pt x="201" y="373" on="1"/>
        <pt x="171" y="337" on="0"/>
        <pt x="129" y="324" on="1"/>
        <pt x="81" y="325" on="0"/>
        <pt x="25" y="377" on="0"/>
        <pt x="25" y="422" on="1"/>
        <pt x="25" y="491" on="0"/>
        <pt x="98" y="503" on="1"/>
        <pt x="197" y="519" on="1"/>
        <pt x="198" y="540" on="1"/>
        <pt x="198" y="580" on="0"/>
        <pt x="158" y="580" on="1"/>
        <pt x="121" y="580" on="0"/>
        <pt x="62" y="546" on="1"/>
        <pt x="55" y="549" on="1"/>
        <pt x="44" y="616" on="1"/>
        <pt x="108" y="652" on="0"/>
        <pt x="176" y="652" on="1"/>
      </contour>
      <contour>
        <pt x="118" y="456" on="0"/>
        <pt x="118" y="431" on="1"/>
        <pt x="118" y="395" on="0"/>
        <pt x="151" y="395" on="1"/>
        <pt x="174" y="395" on="0"/>
        <pt x="196" y="419" on="1"/>
        <pt x="197" y="471" on="1"/>
        <pt x="143" y="461" on="1"/>
      </contour>
    </TTGlyph>
    <TTGlyph name="aacute" xMin="17" yMin="0" xMax="504" yMax="764">
      <component glyphName="a" x="0" y="0" flags="0x1000"/>
      <component glyphName="acute" x="100" y="40" flags="0x1000"/>
    </TTGlyph>
    <TTGlyph name="abreve" xMin="17" yMin="0" xMax="504" yMax="740">
      <component glyphName="a" x="0" y="0" flags="0x1000"/>
      <component glyphName="breve" x="77" y="40" flags="0x1000"/>
    </TTGlyph>
    <TTGlyph name="abreveacute" xMin="17" yMin="0" xMax="504" yMax="859">
      <component glyphName="a" x="0" y="0" flags="0x1000"/>
      <component glyphName="breveacute" x="76" y="40" flags="0x1000"/>
    </TTGlyph>
    <TTGlyph name="abrevedotbelow" xMin="17" yMin="-194" xMax="504" yMax="740">
      <contour>
        <pt x="208" y="570" on="0"/>
        <pt x="135" y="640" on="0"/>
        <pt x="121" y="695" on="1"/>
        <pt x="152" y="740" on="1"/>
        <pt x="171" y="740" on="1"/>
        <pt x="195" y="664" on="0"/>
        <pt x="272" y="664" on="1"/>
        <pt x="350" y="664" on="0"/>
        <pt x="372" y="740" on="1"/>
        <pt x="391" y="740" on="1"/>
        <pt x="422" y="695" on="1"/>
        <pt x="407" y="638" on="0"/>
        <pt x="330" y="570" on="0"/>
        <pt x="268" y="570" on="1"/>
      </contour>
      <contour>
        <pt x="377" y="0" on="1"/>
        <pt x="364" y="73" on="1"/>
        <pt x="355" y="102" on="1"/>
        <pt x="252" y="103" on="1"/>
        <pt x="162" y="101" on="1"/>
        <pt x="155" y="80" on="1"/>
        <pt x="140" y="0" on="1"/>
        <pt x="17" y="0" on="1"/>
        <pt x="194" y="505" on="1"/>
        <pt x="343" y="505" on="1"/>
        <pt x="504" y="0" on="1"/>
      </contour>
      <contour>
        <pt x="270" y="390" on="1"/>
        <pt x="262" y="390" on="1"/>
        <pt x="195" y="197" on="1"/>
        <pt x="260" y="196" on="1"/>
        <pt x="327" y="197" on="1"/>
      </contour>
      <contour>
        <pt x="295" y="-52" on="0"/>
        <pt x="330" y="-88" on="0"/>
        <pt x="330" y="-120" on="1"/>
        <pt x="330" y="-154" on="0"/>
        <pt x="292" y="-194" on="0"/>
        <pt x="259" y="-194" on="1"/>
        <pt x="226" y="-194" on="0"/>
        <pt x="191" y="-158" on="0"/>
        <pt x="191" y="-125" on="1"/>
        <pt x="191" y="-92" on="0"/>
        <pt x="230" y="-52" on="0"/>
        <pt x="264" y="-52" on="1"/>
      </contour>
    </TTGlyph>
    <TTGlyph name="abrevegrave" xMin="17" yMin="0" xMax="504" yMax="859">
      <component glyphName="a" x="0" y="0" flags="0x1000"/>
      <component glyphName="brevegrave" x="76" y="40" flags="0x1000"/>
    </TTGlyph>
    <TTGlyph name="abrevehookabove" xMin="17" yMin="0" xMax="504" yMax="914">
      <contour>
        <pt x="214" y="852" on="0"/>
        <pt x="183" y="827" on="1"/>
        <pt x="161" y="863" on="1"/>
        <pt x="210" y="914" on="0"/>
        <pt x="266" y="914" on="1"/>
        <pt x="300" y="914" on="0"/>
        <pt x="346" y="874" on="0"/>
        <pt x="346" y="843" on="1"/>
        <pt x="346" y="823" on="0"/>
        <pt x="322" y="787" on="0"/>
        <pt x="291" y="760" on="1"/>
        <pt x="314" y="721" on="1"/>
        <pt x="265" y="693" on="1"/>
        <pt x="223" y="759" on="1"/>
        <pt x="247" y="777" on="0"/>
        <pt x="275" y="815" on="0"/>
        <pt x="275" y="830" on="1"/>
        <pt x="275" y="852" on="0"/>
        <pt x="247" y="852" on="1"/>
      </contour>
      <contour>
        <pt x="214" y="562" on="0"/>
        <pt x="137" y="616" on="0"/>
        <pt x="120" y="667" on="1"/>
        <pt x="151" y="710" on="1"/>
        <pt x="170" y="710" on="1"/>
        <pt x="183" y="684" on="0"/>
        <pt x="237" y="654" on="0"/>
        <pt x="273" y="654" on="1"/>
        <pt x="344" y="654" on="0"/>
        <pt x="371" y="710" on="1"/>
        <pt x="390" y="710" on="1"/>
        <pt x="421" y="667" on="1"/>
        <pt x="402" y="616" on="0"/>
        <pt x="324" y="562" on="0"/>
        <pt x="268" y="562" on="1"/>
      </contour>
      <contour>
        <pt x="377" y="0" on="1"/>
        <pt x="364" y="73" on="1"/>
        <pt x="355" y="102" on="1"/>
        <pt x="252" y="103" on="1"/>
        <pt x="162" y="101" on="1"/>
        <pt x="155" y="80" on="1"/>
        <pt x="140" y="0" on="1"/>
        <pt x="17" y="0" on="1"/>
        <pt x="194" y="505" on="1"/>
        <pt x="343" y="505" on="1"/>
        <pt x="504" y="0" on="1"/>
      </contour>
      <contour>
        <pt x="270" y="390" on="1"/>
        <pt x="262" y="390" on="1"/>
        <pt x="195" y="197" on="1"/>
        <pt x="260" y="196" on="1"/>
        <pt x="327" y="197" on="1"/>
      </contour>
    </TTGlyph>
    <TTGlyph name="abrevetilde" xMin="17" yMin="0" xMax="504" yMax="883">
      <contour>
        <pt x="112" y="768" on="1"/>
        <pt x="112" y="779" on="1"/>
        <pt x="177" y="863" on="1"/>
        <pt x="189" y="867" on="1"/>
        <pt x="206" y="865" on="0"/>
        <pt x="266" y="849" on="1"/>
        <pt x="319" y="834" on="0"/>
        <pt x="331" y="834" on="1"/>
        <pt x="342" y="834" on="0"/>
        <pt x="364" y="853" on="0"/>
        <pt x="386" y="879" on="0"/>
        <pt x="389" y="883" on="1"/>
        <pt x="400" y="883" on="1"/>
        <pt x="436" y="846" on="1"/>
        <pt x="436" y="835" on="1"/>
        <pt x="371" y="751" on="1"/>
        <pt x="360" y="746" on="1"/>
        <pt x="335" y="750" on="0"/>
        <pt x="283" y="765" on="1"/>
        <pt x="231" y="780" on="0"/>
        <pt x="217" y="780" on="1"/>
        <pt x="207" y="780" on="0"/>
        <pt x="187" y="763" on="0"/>
        <pt x="166" y="738" on="0"/>
        <pt x="160" y="731" on="1"/>
        <pt x="149" y="731" on="1"/>
      </contour>
      <contour>
        <pt x="344" y="650" on="0"/>
        <pt x="370" y="703" on="1"/>
        <pt x="388" y="703" on="1"/>
        <pt x="417" y="663" on="1"/>
        <pt x="400" y="614" on="0"/>
        <pt x="324" y="561" on="0"/>
        <pt x="272" y="561" on="1"/>
        <pt x="220" y="561" on="0"/>
        <pt x="147" y="614" on="0"/>
        <pt x="130" y="663" on="1"/>
        <pt x="159" y="703" on="1"/>
        <pt x="178" y="703" on="1"/>
        <pt x="203" y="650" on="0"/>
        <pt x="276" y="650" on="1"/>
      </contour>
      <contour>
        <pt x="377" y="0" on="1"/>
        <pt x="364" y="73" on="1"/>
        <pt x="355" y="102" on="1"/>
        <pt x="252" y="103" on="1"/>
        <pt x="162" y="101" on="1"/>
        <pt x="155" y="80" on="1"/>
        <pt x="140" y="0" on="1"/>
        <pt x="17" y="0" on="1"/>
        <pt x="194" y="505" on="1"/>
        <pt x="343" y="505" on="1"/>
        <pt x="504" y="0" on="1"/>
      </contour>
      <contour>
        <pt x="270" y="390" on="1"/>
        <pt x="262" y="390" on="1"/>
        <pt x="195" y="197" on="1"/>
        <pt x="260" y="196" on="1"/>
        <pt x="327" y="197" on="1"/>
      </contour>
    </TTGlyph>
    <TTGlyph name="acaron" xMin="17" yMin="0" xMax="504" yMax="756">
      <component glyphName="a" x="0" y="0" flags="0x1000"/>
      <component glyphName="caron" x="77" y="40" flags="0x1000"/>
    </TTGlyph>
    <TTGlyph name="acircumflex" xMin="17" yMin="0" xMax="504" yMax="758">
      <contour>
        <pt x="116" y="617" on="1"/>
        <pt x="173" y="669" on="0"/>
        <pt x="257" y="758" on="1"/>
        <pt x="286" y="758" on="1"/>
        <pt x="364" y="672" on="0"/>
        <pt x="426" y="617" on="1"/>
        <pt x="393" y="566" on="1"/>
        <pt x="380" y="566" on="1"/>
        <pt x="314" y="618" on="0"/>
        <pt x="271" y="658" on="1"/>
        <pt x="232" y="621" on="0"/>
        <pt x="163" y="566" on="1"/>
        <pt x="150" y="566" on="1"/>
      </contour>
      <contour>
        <pt x="377" y="0" on="1"/>
        <pt x="364" y="73" on="1"/>
        <pt x="355" y="102" on="1"/>
        <pt x="252" y="103" on="1"/>
        <pt x="162" y="101" on="1"/>
        <pt x="155" y="80" on="1"/>
        <pt x="140" y="0" on="1"/>
        <pt x="17" y="0" on="1"/>
        <pt x="194" y="505" on="1"/>
        <pt x="343" y="505" on="1"/>
        <pt x="504" y="0" on="1"/>
      </contour>
      <contour>
        <pt x="270" y="390" on="1"/>
        <pt x="262" y="390" on="1"/>
        <pt x="195" y="197" on="1"/>
        <pt x="260" y="196" on="1"/>
        <pt x="327" y="197" on="1"/>
      </contour>
    </TTGlyph>
    <TTGlyph name="acircumflexacute" xMin="17" yMin="0" xMax="504" yMax="856">
      <component glyphName="a" x="0" y="0" flags="0x1000"/>
      <component glyphName="circumflexacute" x="76" y="40" flags="0x1000"/>
    </TTGlyph>
    <TTGlyph name="acircumflexdotbelow" xMin="17" yMin="-194" xMax="504" yMax="758">
      <contour>
        <pt x="116" y="617" on="1"/>
        <pt x="173" y="669" on="0"/>
        <pt x="257" y="758" on="1"/>
        <pt x="286" y="758" on="1"/>
        <pt x="364" y="672" on="0"/>
        <pt x="426" y="617" on="1"/>
        <pt x="393" y="566" on="1"/>
        <pt x="380" y="566" on="1"/>
        <pt x="314" y="618" on="0"/>
        <pt x="271" y="658" on="1"/>
        <pt x="232" y="621" on="0"/>
        <pt x="163" y="566" on="1"/>
        <pt x="150" y="566" on="1"/>
      </contour>
      <contour>
        <pt x="377" y="0" on="1"/>
        <pt x="364" y="73" on="1"/>
        <pt x="355" y="102" on="1"/>
        <pt x="252" y="103" on="1"/>
        <pt x="162" y="101" on="1"/>
        <pt x="155" y="80" on="1"/>
        <pt x="140" y="0" on="1"/>
        <pt x="17" y="0" on="1"/>
        <pt x="194" y="505" on="1"/>
        <pt x="343" y="505" on="1"/>
        <pt x="504" y="0" on="1"/>
      </contour>
      <contour>
        <pt x="270" y="390" on="1"/>
        <pt x="262" y="390" on="1"/>
        <pt x="195" y="197" on="1"/>
        <pt x="260" y="196" on="1"/>
        <pt x="327" y="197" on="1"/>
      </contour>
      <contour>
        <pt x="295" y="-52" on="0"/>
        <pt x="330" y="-88" on="0"/>
        <pt x="330" y="-120" on="1"/>
        <pt x="330" y="-154" on="0"/>
        <pt x="292" y="-194" on="0"/>
        <pt x="259" y="-194" on="1"/>
        <pt x="226" y="-194" on="0"/>
        <pt x="191" y="-158" on="0"/>
        <pt x="191" y="-125" on="1"/>
        <pt x="191" y="-92" on="0"/>
        <pt x="230" y="-52" on="0"/>
        <pt x="264" y="-52" on="1"/>
      </contour>
    </TTGlyph>
    <TTGlyph name="acircumflexgrave" xMin="17" yMin="0" xMax="504" yMax="856">
      <component glyphName="a" x="0" y="0" flags="0x1000"/>
      <component glyphName="circumflexgrave" x="76" y="40" flags="0x1000"/>
    </TTGlyph>
    <TTGlyph name="acircumflexhookabove" xMin="17" yMin="0" xMax="504" yMax="899">
      <contour>
        <pt x="323" y="841" on="0"/>
        <pt x="294" y="817" on="1"/>
        <pt x="272" y="851" on="1"/>
        <pt x="317" y="899" on="0"/>
        <pt x="372" y="899" on="1"/>
        <pt x="405" y="899" on="0"/>
        <pt x="449" y="861" on="0"/>
        <pt x="449" y="832" on="1"/>
        <pt x="449" y="813" on="0"/>
        <pt x="425" y="778" on="0"/>
        <pt x="395" y="753" on="1"/>
        <pt x="417" y="716" on="1"/>
        <pt x="371" y="689" on="1"/>
        <pt x="331" y="752" on="1"/>
        <pt x="381" y="788" on="0"/>
        <pt x="381" y="819" on="1"/>
        <pt x="381" y="841" on="0"/>
        <pt x="354" y="841" on="1"/>
      </contour>
      <contour>
        <pt x="122" y="622" on="1"/>
        <pt x="191" y="668" on="0"/>
        <pt x="256" y="726" on="1"/>
        <pt x="283" y="726" on="1"/>
        <pt x="345" y="671" on="0"/>
        <pt x="417" y="622" on="1"/>
        <pt x="393" y="569" on="1"/>
        <pt x="380" y="569" on="1"/>
        <pt x="349" y="587" on="1"/>
        <pt x="312" y="606" on="0"/>
        <pt x="270" y="632" on="1"/>
        <pt x="228" y="606" on="0"/>
        <pt x="191" y="587" on="1"/>
        <pt x="160" y="569" on="1"/>
        <pt x="147" y="569" on="1"/>
      </contour>
      <contour>
        <pt x="377" y="0" on="1"/>
        <pt x="364" y="73" on="1"/>
        <pt x="355" y="102" on="1"/>
        <pt x="252" y="103" on="1"/>
        <pt x="162" y="101" on="1"/>
        <pt x="155" y="80" on="1"/>
        <pt x="140" y="0" on="1"/>
        <pt x="17" y="0" on="1"/>
        <pt x="194" y="505" on="1"/>
        <pt x="343" y="505" on="1"/>
        <pt x="504" y="0" on="1"/>
      </contour>
      <contour>
        <pt x="270" y="390" on="1"/>
        <pt x="262" y="390" on="1"/>
        <pt x="195" y="197" on="1"/>
        <pt x="260" y="196" on="1"/>
        <pt x="327" y="197" on="1"/>
      </contour>
    </TTGlyph>
    <TTGlyph name="acircumflextilde" xMin="17" yMin="0" xMax="504" yMax="883">
      <contour>
        <pt x="112" y="768" on="1"/>
        <pt x="112" y="779" on="1"/>
        <pt x="177" y="863" on="1"/>
        <pt x="189" y="867" on="1"/>
        <pt x="206" y="865" on="0"/>
        <pt x="266" y="849" on="1"/>
        <pt x="319" y="834" on="0"/>
        <pt x="331" y="834" on="1"/>
        <pt x="342" y="834" on="0"/>
        <pt x="364" y="853" on="0"/>
        <pt x="386" y="879" on="0"/>
        <pt x="389" y="883" on="1"/>
        <pt x="400" y="883" on="1"/>
        <pt x="436" y="846" on="1"/>
        <pt x="436" y="835" on="1"/>
        <pt x="371" y="751" on="1"/>
        <pt x="360" y="746" on="1"/>
        <pt x="335" y="750" on="0"/>
        <pt x="283" y="765" on="1"/>
        <pt x="231" y="780" on="0"/>
        <pt x="217" y="780" on="1"/>
        <pt x="207" y="780" on="0"/>
        <pt x="187" y="763" on="0"/>
        <pt x="166" y="738" on="0"/>
        <pt x="160" y="731" on="1"/>
        <pt x="149" y="731" on="1"/>
      </contour>
      <contour>
        <pt x="345" y="671" on="0"/>
        <pt x="417" y="622" on="1"/>
        <pt x="393" y="569" on="1"/>
        <pt x="380" y="569" on="1"/>
        <pt x="349" y="587" on="1"/>
        <pt x="312" y="606" on="0"/>
        <pt x="270" y="632" on="1"/>
        <pt x="228" y="606" on="0"/>
        <pt x="191" y="587" on="1"/>
        <pt x="160" y="569" on="1"/>
        <pt x="147" y="569" on="1"/>
        <pt x="122" y="622" on="1"/>
        <pt x="191" y="668" on="0"/>
        <pt x="256" y="726" on="1"/>
        <pt x="283" y="726" on="1"/>
      </contour>
      <contour>
        <pt x="377" y="0" on="1"/>
        <pt x="364" y="73" on="1"/>
        <pt x="355" y="102" on="1"/>
        <pt x="252" y="103" on="1"/>
        <pt x="162" y="101" on="1"/>
        <pt x="155" y="80" on="1"/>
        <pt x="140" y="0" on="1"/>
        <pt x="17" y="0" on="1"/>
        <pt x="194" y="505" on="1"/>
        <pt x="343" y="505" on="1"/>
        <pt x="504" y="0" on="1"/>
      </contour>
      <contour>
        <pt x="270" y="390" on="1"/>
        <pt x="262" y="390" on="1"/>
        <pt x="195" y="197" on="1"/>
        <pt x="260" y="196" on="1"/>
        <pt x="327" y="197" on="1"/>
      </contour>
    </TTGlyph>
    <TTGlyph name="acute" xMin="74" yMin="520" xMax="316" yMax="724">
      <contour>
        <pt x="316" y="651" on="1"/>
        <pt x="314" y="638" on="1"/>
        <pt x="292" y="624" on="0"/>
        <pt x="281" y="618" on="1"/>
        <pt x="156" y="541" on="0"/>
        <pt x="119" y="520" on="1"/>
        <pt x="106" y="521" on="1"/>
        <pt x="74" y="571" on="1"/>
        <pt x="190" y="664" on="0"/>
        <pt x="255" y="724" on="1"/>
        <pt x="268" y="723" on="1"/>
      </contour>
    </TTGlyph>
    <TTGlyph name="acute.cap" xMin="66" yMin="538" xMax="320" yMax="710">
      <contour>
        <pt x="320" y="628" on="1"/>
        <pt x="316" y="616" on="1"/>
        <pt x="224" y="580" on="0"/>
        <pt x="101" y="538" on="1"/>
        <pt x="88" y="542" on="1"/>
        <pt x="66" y="597" on="1"/>
        <pt x="187" y="658" on="0"/>
        <pt x="274" y="710" on="1"/>
        <pt x="286" y="707" on="1"/>
      </contour>
    </TTGlyph>
    <TTGlyph name="adieresis" xMin="17" yMin="0" xMax="504" yMax="723">
      <contour>
        <pt x="154" y="593" on="0"/>
        <pt x="122" y="626" on="0"/>
        <pt x="122" y="656" on="1"/>
        <pt x="122" y="687" on="0"/>
        <pt x="157" y="723" on="0"/>
        <pt x="188" y="723" on="1"/>
        <pt x="217" y="723" on="0"/>
        <pt x="249" y="690" on="0"/>
        <pt x="249" y="661" on="1"/>
        <pt x="249" y="629" on="0"/>
        <pt x="214" y="593" on="0"/>
        <pt x="183" y="593" on="1"/>
      </contour>
      <contour>
        <pt x="328" y="593" on="0"/>
        <pt x="296" y="626" on="0"/>
        <pt x="296" y="656" on="1"/>
        <pt x="296" y="687" on="0"/>
        <pt x="331" y="723" on="0"/>
        <pt x="362" y="723" on="1"/>
        <pt x="391" y="723" on="0"/>
        <pt x="423" y="690" on="0"/>
        <pt x="423" y="661" on="1"/>
        <pt x="423" y="629" on="0"/>
        <pt x="388" y="593" on="0"/>
        <pt x="357" y="593" on="1"/>
      </contour>
      <contour>
        <pt x="377" y="0" on="1"/>
        <pt x="364" y="73" on="1"/>
        <pt x="355" y="102" on="1"/>
        <pt x="252" y="103" on="1"/>
        <pt x="162" y="101" on="1"/>
        <pt x="155" y="80" on="1"/>
        <pt x="140" y="0" on="1"/>
        <pt x="17" y="0" on="1"/>
        <pt x="194" y="505" on="1"/>
        <pt x="343" y="505" on="1"/>
        <pt x="504" y="0" on="1"/>
      </contour>
      <contour>
        <pt x="270" y="390" on="1"/>
        <pt x="262" y="390" on="1"/>
        <pt x="195" y="197" on="1"/>
        <pt x="260" y="196" on="1"/>
        <pt x="327" y="197" on="1"/>
      </contour>
    </TTGlyph>
    <TTGlyph name="adotbelow" xMin="17" yMin="-194" xMax="504" yMax="505">
      <contour>
        <pt x="377" y="0" on="1"/>
        <pt x="364" y="73" on="1"/>
        <pt x="355" y="102" on="1"/>
        <pt x="252" y="103" on="1"/>
        <pt x="162" y="101" on="1"/>
        <pt x="155" y="80" on="1"/>
        <pt x="140" y="0" on="1"/>
        <pt x="17" y="0" on="1"/>
        <pt x="194" y="505" on="1"/>
        <pt x="343" y="505" on="1"/>
        <pt x="504" y="0" on="1"/>
      </contour>
      <contour>
        <pt x="270" y="390" on="1"/>
        <pt x="262" y="390" on="1"/>
        <pt x="195" y="197" on="1"/>
        <pt x="260" y="196" on="1"/>
        <pt x="327" y="197" on="1"/>
      </contour>
      <contour>
        <pt x="295" y="-52" on="0"/>
        <pt x="330" y="-88" on="0"/>
        <pt x="330" y="-120" on="1"/>
        <pt x="330" y="-154" on="0"/>
        <pt x="292" y="-194" on="0"/>
        <pt x="259" y="-194" on="1"/>
        <pt x="226" y="-194" on="0"/>
        <pt x="191" y="-158" on="0"/>
        <pt x="191" y="-125" on="1"/>
        <pt x="191" y="-92" on="0"/>
        <pt x="230" y="-52" on="0"/>
        <pt x="264" y="-52" on="1"/>
      </contour>
    </TTGlyph>
    <TTGlyph name="ae" xMin="-4" yMin="0" xMax="696" yMax="505">
      <contour>
        <pt x="688" y="0" on="1"/>
        <pt x="360" y="0" on="1"/>
        <pt x="356" y="69" on="1"/>
        <pt x="343" y="163" on="1"/>
        <pt x="156" y="114" on="1"/>
        <pt x="136" y="76" on="1"/>
        <pt x="112" y="0" on="1"/>
        <pt x="-4" y="0" on="1"/>
        <pt x="255" y="505" on="1"/>
        <pt x="629" y="505" on="1"/>
        <pt x="636" y="495" on="1"/>
        <pt x="626" y="407" on="1"/>
        <pt x="496" y="413" on="1"/>
        <pt x="424" y="413" on="1"/>
        <pt x="441" y="280" on="1"/>
        <pt x="604" y="322" on="1"/>
        <pt x="612" y="315" on="1"/>
        <pt x="621" y="229" on="1"/>
        <pt x="452" y="191" on="1"/>
        <pt x="465" y="93" on="1"/>
        <pt x="551" y="93" on="1"/>
        <pt x="689" y="98" on="1"/>
        <pt x="696" y="89" on="1"/>
      </contour>
      <contour>
        <pt x="312" y="396" on="1"/>
        <pt x="304" y="396" on="1"/>
        <pt x="213" y="222" on="1"/>
        <pt x="331" y="252" on="1"/>
      </contour>
    </TTGlyph>
    <TTGlyph name="aeacute" xMin="-4" yMin="0" xMax="696" yMax="764">
      <component glyphName="ae" x="0" y="0" flags="0x1000"/>
      <component glyphName="acute" x="247" y="40" flags="0x1000"/>
    </TTGlyph>
    <TTGlyph name="agrave" xMin="17" yMin="0" xMax="504" yMax="764">
      <contour>
        <pt x="310" y="581" on="0"/>
        <pt x="185" y="658" on="1"/>
        <pt x="174" y="664" on="0"/>
        <pt x="152" y="678" on="1"/>
        <pt x="150" y="691" on="1"/>
        <pt x="198" y="763" on="1"/>
        <pt x="211" y="764" on="1"/>
        <pt x="276" y="704" on="0"/>
        <pt x="392" y="611" on="1"/>
        <pt x="360" y="561" on="1"/>
        <pt x="347" y="560" on="1"/>
      </contour>
      <contour>
        <pt x="377" y="0" on="1"/>
        <pt x="364" y="73" on="1"/>
        <pt x="355" y="102" on="1"/>
        <pt x="252" y="103" on="1"/>
        <pt x="162" y="101" on="1"/>
        <pt x="155" y="80" on="1"/>
        <pt x="140" y="0" on="1"/>
        <pt x="17" y="0" on="1"/>
        <pt x="194" y="505" on="1"/>
        <pt x="343" y="505" on="1"/>
        <pt x="504" y="0" on="1"/>
      </contour>
      <contour>
        <pt x="270" y="390" on="1"/>
        <pt x="262" y="390" on="1"/>
        <pt x="195" y="197" on="1"/>
        <pt x="260" y="196" on="1"/>
        <pt x="327" y="197" on="1"/>
      </contour>
    </TTGlyph>
    <TTGlyph name="ahookabove" xMin="17" yMin="0" xMax="504" yMax="781">
      <component glyphName="a" x="0" y="0" flags="0x1000"/>
      <component glyphName="hookabove" x="76" y="40" flags="0x1000"/>
    </TTGlyph>
    <TTGlyph name="amacron" xMin="17" yMin="0" xMax="504" yMax="700">
      <component glyphName="a" x="0" y="0" flags="0x1000"/>
      <component glyphName="macron" x="76" y="40" flags="0x1000"/>
    </TTGlyph>
    <TTGlyph name="ampersand" xMin="31" yMin="-12" xMax="695" yMax="711">
      <contour>
        <pt x="692" y="273" on="1"/>
        <pt x="681" y="191" on="1"/>
        <pt x="552" y="191" on="1"/>
        <pt x="529" y="93" on="0"/>
        <pt x="398" y="-12" on="0"/>
        <pt x="294" y="-12" on="1"/>
        <pt x="171" y="-12" on="0"/>
        <pt x="31" y="130" on="0"/>
        <pt x="31" y="255" on="1"/>
        <pt x="31" y="332" on="0"/>
        <pt x="86" y="449" on="0"/>
        <pt x="186" y="513" on="0"/>
        <pt x="251" y="513" on="1"/>
        <pt x="312" y="513" on="0"/>
        <pt x="377" y="461" on="0"/>
        <pt x="377" y="418" on="1"/>
        <pt x="376" y="407" on="1"/>
        <pt x="556" y="543" on="0"/>
        <pt x="632" y="711" on="1"/>
        <pt x="643" y="711" on="1"/>
        <pt x="682" y="675" on="0"/>
        <pt x="695" y="627" on="1"/>
        <pt x="666" y="558" on="0"/>
        <pt x="498" y="384" on="0"/>
        <pt x="270" y="226" on="0"/>
        <pt x="156" y="177" on="1"/>
        <pt x="191" y="83" on="0"/>
        <pt x="303" y="83" on="1"/>
        <pt x="382" y="83" on="0"/>
        <pt x="469" y="184" on="0"/>
        <pt x="471" y="274" on="1"/>
        <pt x="480" y="284" on="1"/>
        <pt x="684" y="284" on="1"/>
      </contour>
      <contour>
        <pt x="199" y="428" on="0"/>
        <pt x="143" y="343" on="0"/>
        <pt x="142" y="270" on="1"/>
        <pt x="207" y="297" on="0"/>
        <pt x="258" y="328" on="1"/>
        <pt x="295" y="352" on="0"/>
        <pt x="295" y="388" on="1"/>
        <pt x="295" y="428" on="0"/>
        <pt x="247" y="428" on="1"/>
      </contour>
    </TTGlyph>
    <TTGlyph name="aogonek" xMin="17" yMin="-196" xMax="538" yMax="505">
      <contour>
        <pt x="489" y="-196" on="0"/>
        <pt x="441" y="-196" on="1"/>
        <pt x="402" y="-196" on="0"/>
        <pt x="353" y="-149" on="0"/>
        <pt x="353" y="-111" on="1"/>
        <pt x="353" y="-69" on="0"/>
        <pt x="403" y="0" on="1"/>
        <pt x="377" y="0" on="1"/>
        <pt x="364" y="73" on="1"/>
        <pt x="355" y="102" on="1"/>
        <pt x="252" y="103" on="1"/>
        <pt x="162" y="101" on="1"/>
        <pt x="155" y="80" on="1"/>
        <pt x="140" y="0" on="1"/>
        <pt x="17" y="0" on="1"/>
        <pt x="194" y="505" on="1"/>
        <pt x="343" y="505" on="1"/>
        <pt x="504" y="0" on="1"/>
        <pt x="470" y="0" on="1"/>
        <pt x="427" y="-57" on="0"/>
        <pt x="427" y="-88" on="1"/>
        <pt x="427" y="-121" on="0"/>
        <pt x="459" y="-121" on="1"/>
        <pt x="490" y="-121" on="0"/>
        <pt x="519" y="-89" on="1"/>
        <pt x="527" y="-89" on="1"/>
        <pt x="538" y="-146" on="1"/>
      </contour>
      <contour>
        <pt x="270" y="390" on="1"/>
        <pt x="262" y="390" on="1"/>
        <pt x="195" y="197" on="1"/>
        <pt x="260" y="196" on="1"/>
        <pt x="327" y="197" on="1"/>
      </contour>
    </TTGlyph>
    <TTGlyph name="approxequal" xMin="41" yMin="88" xMax="462" yMax="432">
      <component glyphName="asciitilde" x="11" y="95" flags="0x1000"/>
      <component glyphName="asciitilde" x="11" y="-92" flags="0x1000"/>
    </TTGlyph>
    <TTGlyph name="aring" xMin="17" yMin="0" xMax="504" yMax="764">
      <component glyphName="a" x="0" y="0" flags="0x1000"/>
      <component glyphName="ring" x="76" y="40" flags="0x1000"/>
    </TTGlyph>
</ttFont>
